<?xml version="1.0" encoding="UTF-8" standalone="no"?>
<!-- Generator: Adobe Illustrator 22.1.0, SVG Export Plug-In . SVG Version: 6.00 Build 0)  -->

<svg
   version="1.1"
   id="Layer_1"
   x="0px"
   y="0px"
   viewBox="0 0 225.33501 249.59"
   xml:space="preserve"
   sodipodi:docname="boolean.svg"
   width="225.33501"
   height="249.59"
   inkscape:version="1.2.2 (b0a8486, 2022-12-01)"
   xmlns:inkscape="http://www.inkscape.org/namespaces/inkscape"
   xmlns:sodipodi="http://sodipodi.sourceforge.net/DTD/sodipodi-0.dtd"
   xmlns="http://www.w3.org/2000/svg"
   xmlns:svg="http://www.w3.org/2000/svg"><defs
   id="defs741" /><sodipodi:namedview
   id="namedview739"
   pagecolor="#ffffff"
   bordercolor="#666666"
   borderopacity="1.0"
   inkscape:showpageshadow="2"
   inkscape:pageopacity="0.0"
   inkscape:pagecheckerboard="0"
   inkscape:deskcolor="#d1d1d1"
   showgrid="false"
   inkscape:zoom="3.4257812"
   inkscape:cx="114.2805"
   inkscape:cy="102.45838"
   inkscape:window-width="1269"
   inkscape:window-height="886"
   inkscape:window-x="-20"
   inkscape:window-y="25"
   inkscape:window-maximized="0"
   inkscape:current-layer="Layer_1" />
<style
   type="text/css"
   id="style698">
	.st0{fill:#D73735;}
	.st1{fill:#F85252;}
	.st2{fill:#EDAF85;}
	.st3{fill:#F7C09A;}
	.st4{fill:#D8D6D7;}
	.st5{fill:#FFFFFF;}
	.st6{fill:#1C868E;}
	.st7{fill:#40C4DF;}
	.st8{fill:#491352;}
	.st9{fill:#56C1B3;}
	.st10{fill:#7BEFE4;}
</style>
<g
   id="g736"
   transform="translate(-15.333,-3.205)">
	<path
   class="st6"
   d="m 238.67,61.88 c 0,15.66 -6.35,29.82 -16.6,40.08 -10.26,10.26 -24.43,16.6 -40.08,16.6 H 74.01 c -31.3,0 -56.68,-25.37 -56.68,-56.68 0,-3.12 0.25,-6.19 0.74,-9.17 C 20.02,40.73 25.73,30.01 33.93,21.8 44.19,11.54 58.36,5.2 74.01,5.2 h 107.98 c 29.77,0 54.19,22.97 56.5,52.15 0.12,1.49 0.18,3 0.18,4.53 z"
   id="path700" />
	<path
   class="st7"
   d="m 238.49,57.35 c -1.95,11.99 -7.65,22.73 -15.87,30.94 -10.26,10.26 -24.43,16.6 -40.08,16.6 H 74.56 C 44.77,104.89 20.36,81.92 18.07,52.71 20.02,40.73 25.73,30.01 33.93,21.8 44.19,11.54 58.36,5.2 74.01,5.2 h 107.98 c 29.77,0 54.19,22.97 56.5,52.15 z"
   id="path702" />
	<path
   class="st0"
   d="m 238.67,194.12 c 0,15.65 -6.35,29.82 -16.6,40.08 -10.26,10.26 -24.43,16.6 -40.08,16.6 H 74.01 c -31.3,0 -56.68,-25.38 -56.68,-56.68 0,-3.12 0.25,-6.19 0.74,-9.17 1.95,-11.98 7.65,-22.7 15.86,-30.91 10.26,-10.26 24.43,-16.6 40.08,-16.6 h 107.98 c 29.78,0 54.19,22.96 56.5,52.15 0.12,1.49 0.18,3 0.18,4.53 z"
   id="path704" />
	<path
   class="st1"
   d="m 238.49,189.59 c -1.95,11.99 -7.65,22.72 -15.87,30.93 -10.26,10.26 -24.43,16.6 -40.08,16.6 H 74.56 c -29.78,0 -54.2,-22.97 -56.49,-52.17 1.95,-11.98 7.65,-22.7 15.86,-30.91 10.26,-10.26 24.43,-16.6 40.08,-16.6 h 107.98 c 29.78,0 54.19,22.96 56.5,52.15 z"
   id="path706" />
	<path
   class="st4"
   d="m 121.53,61.88 c 0,21.39 -15.6,39.12 -36.03,42.46 -2.28,0.38 -4.62,0.57 -7,0.57 -23.76,0 -43.03,-19.26 -43.03,-43.03 0,-23.76 19.27,-43.02 43.03,-43.02 2.38,0 4.72,0.19 7,0.57 20.43,3.34 36.03,21.07 36.03,42.45 z"
   id="path708" />
	<path
   class="st4"
   d="m 220.53,194.12 c 0,21.38 -15.6,39.11 -36.03,42.45 -2.28,0.38 -4.62,0.57 -7,0.57 -23.76,0 -43.03,-19.26 -43.03,-43.02 0,-23.77 19.27,-43.03 43.03,-43.03 2.38,0 4.72,0.19 7,0.57 20.43,3.34 36.03,21.07 36.03,42.46 z"
   id="path710" />
	<path
   class="st5"
   d="m 121.53,61.88 c 0,21.39 -15.6,39.12 -36.03,42.46 C 65.07,101 49.47,83.27 49.47,61.88 c 0,-21.38 15.6,-39.11 36.03,-42.45 20.43,3.34 36.03,21.07 36.03,42.45 z"
   id="path712" />
	<path
   class="st5"
   d="m 220.53,194.12 c 0,21.38 -15.6,39.11 -36.03,42.45 -20.43,-3.34 -36.03,-21.07 -36.03,-42.45 0,-21.39 15.6,-39.12 36.03,-42.46 20.43,3.34 36.03,21.07 36.03,42.46 z"
   id="path714" />
	<g
   id="g718">
		<path
   class="st7"
   d="M 65.052,83.442 52.944,73.064 c -2.936,-2.516 -3.275,-6.935 -0.759,-9.87 2.515,-2.936 6.934,-3.276 9.87,-0.759 l 8.002,6.858 18.618,-27.927 c 2.144,-3.217 6.489,-4.088 9.707,-1.941 3.217,2.145 4.086,6.49 1.941,9.707 L 78.707,81.559 c -3.069,4.602 -9.471,5.471 -13.655,1.883 z"
   id="path716" />
	</g>
	<path
   class="st1"
   d="m 187.399,194.117 12.375,-12.375 c 2.734,-2.734 2.734,-7.166 0,-9.899 -2.734,-2.734 -7.166,-2.734 -9.9,0 L 177.5,184.218 165.126,171.843 c -2.734,-2.734 -7.166,-2.734 -9.9,0 -2.734,2.734 -2.734,7.166 0,9.899 l 12.375,12.375 -12.375,12.374 c -2.734,2.734 -2.734,7.166 0,9.9 2.734,2.734 7.166,2.734 9.9,0 l 12.374,-12.375 12.374,12.375 c 2.734,2.734 7.166,2.734 9.9,0 2.734,-2.734 2.734,-7.166 0,-9.9 z"
   id="path720" />
	<g
   id="g734">
		<path
   class="st8"
   d="M 74.011,120.561 H 181.99 c 32.355,0 58.678,-26.322 58.678,-58.678 0,-32.356 -26.323,-58.678 -58.679,-58.678 H 74.011 c -32.355,0 -58.678,26.322 -58.678,58.678 0,32.356 26.322,58.678 58.678,58.678 z m 0,-113.356 H 181.99 c 30.149,0 54.678,24.528 54.678,54.678 0,30.15 -24.528,54.678 -54.678,54.678 H 74.011 c -30.149,0 -54.678,-24.528 -54.678,-54.678 0,-30.15 24.528,-54.678 54.678,-54.678 z"
   id="path722" />
		<path
   class="st8"
   d="m 78.501,106.908 c 24.827,0 45.025,-20.198 45.025,-45.025 0,-24.827 -20.198,-45.025 -45.025,-45.025 -24.827,0 -45.026,20.198 -45.026,45.025 0,24.827 20.199,45.025 45.026,45.025 z m 0,-86.051 c 22.621,0 41.025,18.404 41.025,41.025 0,22.621 -18.404,41.025 -41.025,41.025 -22.622,0 -41.026,-18.404 -41.026,-41.025 0,-22.621 18.404,-41.025 41.026,-41.025 z"
   id="path724" />
		<path
   class="st8"
   d="M 181.989,135.439 H 74.011 c -32.355,0 -58.678,26.322 -58.678,58.678 0,32.356 26.322,58.678 58.678,58.678 H 181.99 c 32.355,0 58.678,-26.322 58.678,-58.678 0,-32.356 -26.323,-58.678 -58.679,-58.678 z m 0,113.356 H 74.011 c -30.149,0 -54.678,-24.528 -54.678,-54.678 0,-30.15 24.528,-54.678 54.678,-54.678 H 181.99 c 30.149,0 54.678,24.528 54.678,54.678 0,30.15 -24.529,54.678 -54.679,54.678 z"
   id="path726" />
		<path
   class="st8"
   d="m 177.499,149.092 c -24.827,0 -45.025,20.198 -45.025,45.025 0,24.827 20.198,45.025 45.025,45.025 24.827,0 45.026,-20.198 45.026,-45.025 0,-24.827 -20.199,-45.025 -45.026,-45.025 z m 0,86.051 c -22.621,0 -41.025,-18.404 -41.025,-41.025 0,-22.621 18.404,-41.025 41.025,-41.025 22.622,0 41.026,18.404 41.026,41.025 0,22.621 -18.404,41.025 -41.026,41.025 z"
   id="path728" />
		<path
   class="st8"
   d="M 51.643,74.583 63.75,84.961 c 5.086,4.361 12.885,3.308 16.621,-2.293 l 21.617,-32.426 c 1.334,-2 1.809,-4.4 1.337,-6.757 C 101.756,35.641 91.44,33.614 87.012,40.257 L 69.646,66.307 C 63.28,60.851 61.422,58.414 56.809,58.777 48.788,59.391 45.612,69.414 51.643,74.583 Z m 5.864,-11.834 c 2.383,0 2.695,0.732 11.249,8.063 0.921,0.787 2.306,0.582 2.966,-0.409 L 90.34,42.477 c 2.475,-3.71 8.194,-2.543 9.063,1.793 0.559,2.799 1.154,0.908 -22.36,36.18 -2.4,3.6 -7.419,4.279 -10.689,1.475 C 53.338,70.768 52.725,70.854 52.515,68.135 c -0.223,-2.891 2.051,-5.386 4.992,-5.386 z"
   id="path730" />
		<path
   class="st8"
   d="m 190.227,194.117 10.961,-10.961 c 3.509,-3.508 3.509,-9.218 0,-12.728 -3.51,-3.51 -9.22,-3.508 -12.728,0 l -10.961,10.961 -10.96,-10.961 c -3.508,-3.51 -9.22,-3.51 -12.728,0 -3.509,3.51 -3.509,9.22 0,12.728 l 10.96,10.961 -10.96,10.96 c -5.675,5.677 -1.59,15.364 6.363,15.364 4.817,0 5.974,-2.246 17.324,-13.597 11.364,11.363 12.516,13.597 17.324,13.597 7.953,0 12.04,-9.688 6.364,-15.364 z m 8.132,20.86 c -1.96,1.958 -5.12,1.951 -7.071,0 l -12.375,-12.374 c -0.781,-0.781 -2.047,-0.781 -2.828,0 -13.317,13.317 -13.166,13.839 -15.91,13.839 -4.411,0 -6.691,-5.378 -3.535,-8.536 l 12.374,-12.374 c 0.781,-0.781 0.781,-2.047 0,-2.828 L 156.64,180.329 c -1.949,-1.949 -1.949,-5.121 0,-7.071 1.947,-1.948 5.12,-1.951 7.071,0 l 12.374,12.375 c 0.375,0.375 0.884,0.586 1.414,0.586 1.142,0 0.454,0.375 13.789,-12.961 1.949,-1.949 5.122,-1.949 7.071,0 1.949,1.95 1.949,5.122 0,7.071 l -12.375,12.375 c -0.375,0.375 -0.586,0.884 -0.586,1.414 0,0.53 0.211,1.039 0.586,1.414 l 12.375,12.374 c 1.95,1.949 1.95,5.121 0,7.071 z"
   id="path732" />
	</g>
</g>
</svg>
