<?xml version="1.0" encoding="UTF-8" standalone="no"?>
<!-- Creator: CorelDRAW X5 -->

<svg
   xml:space="preserve"
   width="1536"
   height="1536"
   style="clip-rule:evenodd;fill-rule:evenodd;image-rendering:optimizeQuality;shape-rendering:geometricPrecision;text-rendering:geometricPrecision"
   viewBox="0 0 1536 1536"
   version="1.1"
   id="svg887"
   sodipodi:docname="button.svg"
   inkscape:version="1.2.2 (b0a8486, 2022-12-01)"
   xmlns:inkscape="http://www.inkscape.org/namespaces/inkscape"
   xmlns:sodipodi="http://sodipodi.sourceforge.net/DTD/sodipodi-0.dtd"
   xmlns="http://www.w3.org/2000/svg"
   xmlns:svg="http://www.w3.org/2000/svg"><sodipodi:namedview
   id="namedview889"
   pagecolor="#ffffff"
   bordercolor="#666666"
   borderopacity="1.0"
   inkscape:showpageshadow="2"
   inkscape:pageopacity="0.0"
   inkscape:pagecheckerboard="0"
   inkscape:deskcolor="#d1d1d1"
   showgrid="false"
   inkscape:zoom="0.42822266"
   inkscape:cx="768.2919"
   inkscape:cy="769.45952"
   inkscape:window-width="2560"
   inkscape:window-height="999"
   inkscape:window-x="0"
   inkscape:window-y="25"
   inkscape:window-maximized="1"
   inkscape:current-layer="Layer_x0020_1" />
 <defs
   id="defs872">
  <style
   type="text/css"
   id="style870">
   <![CDATA[
    .fil1 {fill:none}
    .fil0 {fill:#D50000}
    .fil2 {fill:#FFFDE7}
    .fil3 {fill:#FFFDE7;fill-rule:nonzero}
   ]]>
  </style>
 </defs>
 <g
   id="Layer_x0020_1"
   inkscape:label="Layer 1"
   inkscape:groupmode="layer"
   transform="translate(-256,-256)">
  <metadata
   id="CorelCorpID_0Corel-Layer" />
  <circle
   class="fil0"
   cx="1024"
   cy="1024"
   r="768"
   id="circle875" />
  <path
   class="fil1"
   d="m 1208,546 c 198,76 328,266 328,478 0,283 -229,512 -512,512 -283,0 -512,-229 -512,-512 0,-212 130,-402 328,-478"
   id="path877" />
  <g
   id="_360258376">
   <path
   class="fil2"
   d="m 1077,1037 c 0,29 -24,53 -53,53 -29,0 -53,-24 -53,-53 V 490 c 0,-29 24,-53 53,-53 29,0 53,24 53,53 z"
   id="path879" />
   <path
   class="fil3"
   d="m 1158,666 c -27,-10 -41,-41 -31,-69 10,-27 41,-41 69,-31 93,36 170,98 223,176 54,78 85,173 85,272 0,133 -54,253 -141,339 -87,87 -207,141 -339,141 -133,0 -253,-54 -339,-141 -87,-87 -141,-207 -141,-339 0,-99 31,-193 84,-272 54,-78 131,-141 224,-176 27,-10 58,3 69,31 10,27 -3,58 -31,69 -72,28 -132,76 -174,137 -42,61 -66,134 -66,212 0,103 42,196 109,264 68,68 161,109 264,109 103,0 196,-42 264,-109 68,-68 109,-161 109,-264 0,-78 -24,-151 -65,-212 -42,-61 -102,-109 -174,-137 z"
   id="path881" />
  </g>
  <rect
   class="fil1"
   width="2048"
   height="2048"
   id="rect884"
   x="0"
   y="0" />
 </g>
</svg>
