<?xml version="1.0" encoding="UTF-8" standalone="no"?>
<!-- Generator: Adobe Illustrator 16.0.0, SVG Export Plug-In . SVG Version: 6.00 Build 0)  -->

<svg
   version="1.1"
   id="Слой_1"
   x="0px"
   y="0px"
   width="511.73401"
   height="494.43399"
   viewBox="0 0 511.73401 494.43399"
   enable-background="new 0 0 512 512"
   xml:space="preserve"
   sodipodi:docname="card.svg"
   inkscape:version="1.2.2 (b0a84865, 2022-12-01)"
   xmlns:inkscape="http://www.inkscape.org/namespaces/inkscape"
   xmlns:sodipodi="http://sodipodi.sourceforge.net/DTD/sodipodi-0.dtd"
   xmlns="http://www.w3.org/2000/svg"
   xmlns:svg="http://www.w3.org/2000/svg"><defs
   id="defs461" /><sodipodi:namedview
   id="namedview459"
   pagecolor="#ffffff"
   bordercolor="#000000"
   borderopacity="0.25"
   inkscape:showpageshadow="2"
   inkscape:pageopacity="0.0"
   inkscape:pagecheckerboard="0"
   inkscape:deskcolor="#d1d1d1"
   showgrid="false"
   inkscape:zoom="1.546875"
   inkscape:cx="256"
   inkscape:cy="246.94949"
   inkscape:window-width="1390"
   inkscape:window-height="942"
   inkscape:window-x="0"
   inkscape:window-y="25"
   inkscape:window-maximized="0"
   inkscape:current-layer="Слой_1" />
<g
   id="_x32_2._cards_x2C__casino_x2C__game_x2C__party_x2C__fun_1_"
   transform="translate(-0.133,-8.783)">
	<g
   id="g168">
		<g
   id="g6">
			<g
   id="g4">
				<path
   fill="#e6e9ed"
   d="M 455.459,307.975 243.709,96.229 H 124.428 L 8.796,211.857 c -6.215,6.23 -6.223,16.405 0,22.629 l 260.072,260.079 c 6.216,6.216 16.413,6.216 22.629,-0.016 L 455.459,330.587 c 6.215,-6.214 6.215,-16.397 0,-22.612 z"
   id="path2" />
			</g>
		</g>
		<g
   opacity="0.2"
   id="g12">
			<g
   id="g10">
				<path
   d="M 243.709,96.229 H 124.428 l -59.747,59.742 178.423,309.031 c 4.396,7.621 14.243,10.26 21.844,5.856 l 118.868,-68.637 71.643,-71.635 c 6.215,-6.215 6.215,-16.397 0,-22.613 z"
   id="path8" />
			</g>
		</g>
		<g
   opacity="0.15"
   id="g18">
			<g
   id="g16">
				<path
   d="M 455.459,307.975 243.709,96.229 H 124.428 L 8.796,211.857 c -6.215,6.23 -6.223,16.405 0,22.629 l 260.072,260.079 c 6.216,6.216 16.413,6.216 22.629,-0.016 L 455.459,330.587 c 6.215,-6.214 6.215,-16.397 0,-22.612 z"
   id="path14" />
			</g>
		</g>
		<g
   id="g24">
			<g
   id="g22">
				<path
   fill="#e6e9ed"
   d="M 479.618,333.071 316.039,49.754 H 202.73 L 73.052,124.621 c -7.613,4.404 -10.252,14.234 -5.856,21.855 L 251.1,465.003 c 4.396,7.621 14.239,10.26 21.845,5.856 l 200.817,-115.94 c 7.605,-4.403 10.244,-14.242 5.856,-21.848 z"
   id="path20" />
			</g>
		</g>
		<g
   opacity="0.2"
   id="g30">
			<g
   id="g28">
				<path
   d="M 479.618,333.071 316.039,49.754 H 202.73 l -61.843,35.708 92.64,345.746 c 2.272,8.495 11.096,13.587 19.591,11.307 l 128.598,-34.451 92.046,-53.145 c 7.605,-4.403 10.244,-14.242 5.856,-21.848 z"
   id="path26" />
			</g>
		</g>
		<g
   opacity="0.1"
   id="g36">
			<g
   id="g34">
				<path
   d="M 479.618,333.071 316.039,49.754 H 202.73 L 73.052,124.621 c -7.613,4.404 -10.252,14.234 -5.856,21.855 L 251.1,465.003 c 4.396,7.621 14.239,10.26 21.845,5.856 l 200.817,-115.94 c 7.605,-4.403 10.244,-14.242 5.856,-21.848 z"
   id="path32" />
			</g>
		</g>
		<g
   id="g42">
			<g
   id="g40">
				<path
   fill="#e6e9ed"
   d="M 496.398,362.915 402.58,12.781 h -82.363 l -162.58,43.563 c -8.496,2.28 -13.587,11.096 -11.307,19.592 l 95.193,355.272 c 2.272,8.495 11.096,13.587 19.591,11.307 l 223.978,-60.017 c 8.487,-2.279 13.578,-11.088 11.306,-19.583 z"
   id="path38" />
			</g>
		</g>
		<g
   opacity="0.05"
   id="g48">
			<g
   id="g46">
				<path
   d="M 496.398,362.915 402.58,12.781 h -82.363 l -162.58,43.563 c -8.496,2.28 -13.587,11.096 -11.307,19.592 l 95.193,355.272 c 2.272,8.495 11.096,13.587 19.591,11.307 l 223.978,-60.017 c 8.487,-2.279 13.578,-11.088 11.306,-19.583 z"
   id="path44" />
			</g>
		</g>
		<g
   opacity="0.2"
   id="g54">
			<g
   id="g52">
				<path
   d="m 236.01,396.585 c 0,8.792 7.2,15.991 15.992,15.991 h 120.867 l 112.223,-30.078 c 8.487,-2.279 13.578,-11.088 11.307,-19.583 L 402.58,12.781 H 320.217 L 236.01,35.34 Z"
   id="path50" />
			</g>
		</g>
		<g
   id="g60">
			<g
   id="g58">
				<path
   fill="#e6e9ed"
   d="m 507.869,396.585 c 0,8.792 -7.199,15.991 -15.992,15.991 H 259.998 c -8.793,0 -15.992,-7.199 -15.992,-15.991 V 28.772 c 0,-8.792 7.199,-15.991 15.992,-15.991 h 231.879 c 8.793,0 15.992,7.199 15.992,15.991 z"
   id="path56" />
			</g>
		</g>
		<g
   opacity="0.2"
   id="g66">
			<g
   id="g64">
				<path
   d="m 491.877,12.781 h -7.996 c 8.793,0 15.992,7.199 15.992,15.991 v 367.813 c 0,8.792 -7.199,15.991 -15.992,15.991 h 7.996 c 8.793,0 15.992,-7.199 15.992,-15.991 V 28.772 c 0,-8.792 -7.199,-15.991 -15.992,-15.991 z"
   id="path62" />
			</g>
		</g>
		<g
   id="g72">
			<g
   id="g70">
				<path
   fill="#ffffff"
   d="m 259.99,12.781 h 7.995 c -8.792,0 -15.991,7.199 -15.991,15.991 v 367.813 c 0,8.792 7.199,15.991 15.991,15.991 h -7.995 c -8.793,0 -15.992,-7.199 -15.992,-15.991 V 28.772 c 0,-8.792 7.199,-15.991 15.992,-15.991 z"
   id="path68" />
			</g>
		</g>
		<g
   id="g78">
			<g
   id="g76">
				<path
   fill="#656d78"
   d="m 85.12,248.65 c 3.119,3.115 3.119,8.152 0,11.275 -3.116,3.115 -8.156,3.115 -11.271,0 -3.12,-3.123 -3.12,-8.16 0,-11.275 3.115,-3.115 8.155,-3.201 11.271,0 z"
   id="path74" />
			</g>
		</g>
		<g
   id="g84">
			<g
   id="g82">
				<path
   fill="#656d78"
   d="m 489.152,361.869 c 3.678,3.686 3.678,9.604 0,13.273 -3.678,3.593 -9.597,3.593 -13.274,0 -3.679,3.593 -9.597,3.593 -13.274,0 -3.6,-3.67 -3.6,-9.666 0,-13.273 l 13.274,-13.274 z"
   id="path80" />
			</g>
		</g>
		<g
   id="g90">
			<g
   id="g88">
				<path
   fill="#656d78"
   d="m 419.024,192.68 c 11.838,11.915 11.838,31.187 0,43.095 -11.916,11.838 -31.179,11.838 -43.095,0 -11.916,11.838 -31.18,11.838 -43.017,0 -11.916,-11.908 -11.916,-31.18 0,-43.095 l 43.017,-43.017 z m -11.353,31.741 c 5.685,-5.599 5.685,-14.789 0,-20.388 l -31.741,-31.819 -31.741,31.819 c -5.599,5.599 -5.599,14.789 0,20.388 5.435,5.442 14.945,5.521 20.466,0 3.115,-3.115 7.199,-4.639 11.275,-4.639 4.076,0 8.238,1.523 11.354,4.639 5.442,5.52 14.952,5.442 20.387,0 z"
   id="path86" />
			</g>
		</g>
		<g
   opacity="0.1"
   id="g96">
			<g
   id="g94">
				<path
   d="m 419.024,192.68 c 11.838,11.915 11.838,31.187 0,43.095 -11.916,11.838 -31.179,11.838 -43.095,0 -11.916,11.838 -31.18,11.838 -43.017,0 -11.916,-11.908 -11.916,-31.18 0,-43.095 l 43.017,-43.017 z m -11.353,31.741 c 5.685,-5.599 5.685,-14.789 0,-20.388 l -31.741,-31.819 -31.741,31.819 c -5.599,5.599 -5.599,14.789 0,20.388 5.435,5.442 14.945,5.521 20.466,0 3.115,-3.115 7.199,-4.639 11.275,-4.639 4.076,0 8.238,1.523 11.354,4.639 5.442,5.52 14.952,5.442 20.387,0 z"
   id="path92" />
			</g>
		</g>
		<g
   opacity="0.1"
   id="g102">
			<g
   id="g100">
				<path
   d="m 419.024,192.68 c 11.838,11.915 11.838,31.187 0,43.095 -11.916,11.838 -31.179,11.838 -43.095,0 -11.916,11.838 -31.18,11.838 -43.017,0 -11.916,-11.908 -11.916,-31.18 0,-43.095 l 43.017,-43.017 z m -11.353,31.741 c 5.685,-5.599 5.685,-14.789 0,-20.388 l -31.741,-31.819 -31.741,31.819 c -5.599,5.599 -5.599,14.789 0,20.388 5.435,5.442 14.945,5.521 20.466,0 3.115,-3.115 7.199,-4.639 11.275,-4.639 4.076,0 8.238,1.523 11.354,4.639 5.442,5.52 14.952,5.442 20.387,0 z"
   id="path98" />
			</g>
		</g>
		<g
   id="g108">
			<g
   id="g106">
				<path
   fill="#656d78"
   d="m 407.671,204.033 c 5.685,5.599 5.685,14.789 0,20.388 -5.435,5.442 -14.945,5.521 -20.388,0 -3.115,-3.115 -7.277,-4.639 -11.354,-4.639 -4.077,0 -8.16,1.523 -11.275,4.639 -5.521,5.521 -15.031,5.442 -20.466,0 -5.599,-5.599 -5.599,-14.789 0,-20.388 l 31.741,-31.819 z"
   id="path104" />
			</g>
		</g>
		<g
   opacity="0.2"
   id="g116">
			<g
   id="g114">
				<g
   id="g112">
					<path
   fill="#ffffff"
   d="m 352.184,224.421 c -6.238,-5.919 -8.573,-11.744 0,-20.388 l 27.744,-27.813 -3.998,-4.006 -31.741,31.819 c -5.599,5.599 -5.599,14.789 0,20.388 3.701,3.709 9.292,4.864 14.234,3.514 -2.319,-0.641 -4.45,-1.812 -6.239,-3.514 z"
   id="path110" />
				</g>
			</g>
		</g>
		<g
   opacity="0.2"
   id="g124">
			<g
   opacity="0.2"
   id="g122">
				<g
   id="g120">
					<path
   d="m 399.745,224.421 c 6.239,-5.919 8.566,-11.744 0,-20.388 l -23.792,-23.848 3.998,-4.005 27.79,27.853 c 5.599,5.599 5.599,14.789 0,20.388 -3.709,3.709 -9.3,4.864 -14.235,3.514 2.311,-0.641 4.451,-1.812 6.239,-3.514 z"
   id="path118" />
				</g>
			</g>
		</g>
		<g
   id="g130">
			<g
   id="g128">
				<path
   fill="#656d78"
   d="m 289.256,98.01 c 3.678,3.678 3.678,9.597 0,13.274 -3.678,3.592 -9.597,3.592 -13.274,0 -3.678,3.592 -9.597,3.592 -13.274,0 -3.596,-3.678 -3.596,-9.597 0,-13.274 l 13.274,-13.274 z"
   id="path126" />
			</g>
		</g>
		<g
   id="g136">
			<g
   id="g134">
				<path
   fill="#ed5565"
   d="m 205.62,121.037 c 4.474,2.562 5.997,8.316 3.436,12.79 l -9.354,16.233 -16.23,-9.354 c -4.478,-2.639 -6.079,-8.394 -3.439,-12.876 2.558,-4.474 8.316,-5.996 12.794,-3.357 2.556,-4.475 8.315,-6.076 12.793,-3.436 z"
   id="path132" />
			</g>
		</g>
		<g
   id="g142">
			<g
   id="g140">
				<polygon
   fill="#ed5565"
   points="119.184,203.955 123.022,178.608 146.85,187.963 143.012,213.231 "
   id="polygon138" />
			</g>
		</g>
		<g
   id="g148">
			<g
   id="g146">
				<path
   fill="#656d78"
   d="m 104.949,251.446 c 3.12,3.123 3.12,8.159 0,11.274 -3.197,3.12 -8.234,3.12 -11.354,0 -3.119,-3.115 -3.119,-8.151 0,-11.274 3.12,-3.116 8.157,-3.116 11.354,0 z"
   id="path144" />
			</g>
		</g>
		<g
   id="g154">
			<g
   id="g152">
				<path
   fill="#656d78"
   d="m 88.001,268.401 c 3.116,3.124 3.038,8.152 -0.082,11.275 -3.119,3.108 -8.156,3.108 -11.275,0 -3.115,-3.123 -3.115,-8.151 0,-11.275 3.119,-3.123 8.156,-3.123 11.357,0 z"
   id="path150" />
			</g>
		</g>
		<g
   opacity="0.2"
   id="g160">
			<g
   id="g158">
				<path
   fill="#ffffff"
   d="m 340.908,235.829 c -11.915,-11.908 -11.915,-31.18 0,-43.095 l 39.027,-39.026 -4.006,-3.99 -43.017,43.017 c -11.916,11.915 -11.916,31.187 0,43.095 6.934,6.934 16.413,9.69 25.479,8.495 -6.395,-0.844 -12.578,-3.593 -17.483,-8.496 z"
   id="path156" />
			</g>
		</g>
		<g
   opacity="0.2"
   id="g166">
			<g
   id="g164">
				<path
   d="m 410.974,235.829 c 11.916,-11.908 11.916,-31.18 0,-43.095 l -35.028,-35.029 4.021,-3.974 39.003,39.003 c 11.915,11.915 11.915,31.187 0,43.095 -6.934,6.934 -16.413,9.69 -25.479,8.495 6.403,-0.843 12.587,-3.592 17.483,-8.495 z"
   id="path162" />
			</g>
		</g>
	</g>
	<g
   id="_x32_2._cards_x2C__casino_x2C__game_x2C__party_x2C__fun">
		<g
   id="g300">
			<g
   id="g298">
				<g
   id="g174">
					<g
   id="g172">
						<path
   fill="#3a3847"
   d="M 491.877,416.574 H 259.998 c -11.022,0 -19.99,-8.964 -19.99,-19.989 V 28.772 c 0,-11.025 8.968,-19.989 19.99,-19.989 h 231.879 c 11.025,0 19.99,8.964 19.99,19.989 v 367.813 c 0,11.025 -8.965,19.989 -19.99,19.989 z M 259.998,16.778 c -6.614,0 -11.994,5.381 -11.994,11.994 v 367.813 c 0,6.606 5.38,11.994 11.994,11.994 h 231.879 c 6.614,0 11.994,-5.388 11.994,-11.994 V 28.772 c 0,-6.613 -5.38,-11.994 -11.994,-11.994 z"
   id="path170" />
					</g>
				</g>
				<g
   id="g180">
					<g
   id="g178">
						<path
   fill="#3a3847"
   d="m 267.993,72.75 c -2.21,0 -3.997,-1.788 -3.997,-3.998 V 44.765 c 0,-2.21 1.787,-3.998 3.997,-3.998 2.21,0 3.998,1.788 3.998,3.998 v 23.987 c 0,2.21 -1.788,3.998 -3.998,3.998 z"
   id="path176" />
					</g>
				</g>
				<g
   id="g186">
					<g
   id="g184">
						<path
   fill="#3a3847"
   d="m 283.985,72.75 c -2.21,0 -3.998,-1.788 -3.998,-3.998 V 44.765 c 0,-2.21 1.788,-3.998 3.998,-3.998 2.21,0 3.998,1.788 3.998,3.998 v 23.987 c 0,2.21 -1.788,3.998 -3.998,3.998 z"
   id="path182" />
					</g>
				</g>
				<g
   id="g192">
					<g
   id="g190">
						<path
   fill="#3a3847"
   d="m 281.33,64.754 h -10.666 c -2.21,0 -3.998,-1.788 -3.998,-3.998 0,-2.21 1.788,-3.998 3.998,-3.998 h 10.666 c 2.21,0 3.998,1.788 3.998,3.998 0,2.21 -1.788,3.998 -3.998,3.998 z"
   id="path188" />
					</g>
				</g>
				<g
   id="g198">
					<g
   id="g196">
						<path
   fill="#3a3847"
   d="m 267.993,48.762 c -1.022,0 -2.046,-0.39 -2.826,-1.171 -1.562,-1.562 -1.562,-4.092 0,-5.653 l 7.995,-7.996 c 1.563,-1.562 4.092,-1.562 5.654,0 1.562,1.562 1.562,4.092 0,5.653 l -7.996,7.996 c -0.781,0.781 -1.803,1.171 -2.827,1.171 z"
   id="path194" />
					</g>
				</g>
				<g
   id="g204">
					<g
   id="g202">
						<path
   fill="#3a3847"
   d="m 283.985,48.762 c -1.023,0 -2.046,-0.39 -2.827,-1.171 l -7.996,-7.996 c -1.561,-1.562 -1.561,-4.092 0,-5.653 1.563,-1.562 4.092,-1.562 5.654,0 l 7.995,7.996 c 1.562,1.562 1.562,4.092 0,5.653 -0.78,0.781 -1.803,1.171 -2.826,1.171 z"
   id="path200" />
					</g>
				</g>
				<g
   id="g210">
					<g
   id="g208">
						<path
   fill="#3a3847"
   d="m 282.619,117.984 c -2.358,0 -4.631,-0.609 -6.63,-1.75 -5.013,2.858 -11.884,2.022 -16.069,-2.162 -5.201,-5.225 -5.201,-13.704 -0.004,-18.912 l 13.246,-13.243 c 1.563,-1.562 4.092,-1.562 5.654,0 l 13.258,13.243 c 5.201,5.216 5.201,13.695 0.008,18.904 -2.537,2.53 -5.894,3.92 -9.463,3.92 z m -6.63,-10.737 c 1.015,0 2.046,0.391 2.827,1.164 2.029,2.03 5.574,2.03 7.605,0 2.084,-2.085 2.084,-5.505 -0.008,-7.605 l -10.425,-10.409 -10.417,10.417 c -2.088,2.093 -2.088,5.513 0.008,7.613 2.008,2.015 5.561,2.022 7.582,-0.008 0.782,-0.781 1.806,-1.172 2.828,-1.172 z"
   id="path206" />
					</g>
				</g>
				<g
   id="g216">
					<g
   id="g214">
						<path
   fill="#3a3847"
   d="m 283.985,128.721 h -15.992 c -2.21,0 -3.997,-1.788 -3.997,-3.998 0,-2.21 1.787,-3.998 3.997,-3.998 h 15.992 c 2.21,0 3.998,1.788 3.998,3.998 0,2.21 -1.788,3.998 -3.998,3.998 z"
   id="path212" />
					</g>
				</g>
				<g
   id="g222">
					<g
   id="g220">
						<path
   fill="#3a3847"
   d="m 275.989,128.721 c -2.21,0 -3.998,-1.788 -3.998,-3.998 v -3.998 c 0,-2.21 1.788,-3.998 3.998,-3.998 2.21,0 3.998,1.788 3.998,3.998 v 3.998 c 0,2.21 -1.788,3.998 -3.998,3.998 z"
   id="path218" />
					</g>
				</g>
				<g
   id="g228">
					<g
   id="g226">
						<path
   fill="#3a3847"
   d="m 467.89,336.616 c -2.21,0 -3.998,-1.796 -3.998,-3.998 v -23.987 c 0,-2.218 1.788,-3.998 3.998,-3.998 2.21,0 3.998,1.78 3.998,3.998 v 23.987 c 0,2.202 -1.788,3.998 -3.998,3.998 z"
   id="path224" />
					</g>
				</g>
				<g
   id="g234">
					<g
   id="g232">
						<path
   fill="#3a3847"
   d="m 483.881,336.616 c -2.209,0 -3.998,-1.796 -3.998,-3.998 v -23.987 c 0,-2.218 1.789,-3.998 3.998,-3.998 2.21,0 3.998,1.78 3.998,3.998 v 23.987 c 0,2.202 -1.788,3.998 -3.998,3.998 z"
   id="path230" />
					</g>
				</g>
				<g
   id="g240">
					<g
   id="g238">
						<path
   fill="#3a3847"
   d="m 481.219,328.62 h -10.658 c -2.21,0 -3.998,-1.796 -3.998,-3.997 0,-2.219 1.788,-3.998 3.998,-3.998 h 10.658 c 2.21,0 3.998,1.779 3.998,3.998 0,2.201 -1.788,3.997 -3.998,3.997 z"
   id="path236" />
					</g>
				</g>
				<g
   id="g246">
					<g
   id="g244">
						<path
   fill="#3a3847"
   d="m 467.89,312.629 c -1.022,0 -2.046,-0.391 -2.827,-1.172 -1.562,-1.562 -1.562,-4.092 0,-5.652 l 7.996,-7.996 c 1.562,-1.563 4.092,-1.563 5.653,0 1.562,1.562 1.562,4.092 0,5.653 l -7.995,7.995 c -0.781,0.781 -1.805,1.172 -2.827,1.172 z"
   id="path242" />
					</g>
				</g>
				<g
   id="g252">
					<g
   id="g250">
						<path
   fill="#3a3847"
   d="m 483.881,312.629 c -1.022,0 -2.045,-0.391 -2.826,-1.172 l -7.996,-7.995 c -1.562,-1.562 -1.562,-4.092 0,-5.653 1.562,-1.563 4.092,-1.563 5.653,0 l 7.996,7.996 c 1.562,1.561 1.562,4.091 0,5.652 -0.781,0.781 -1.804,1.172 -2.827,1.172 z"
   id="path248" />
					</g>
				</g>
				<g
   id="g258">
					<g
   id="g256">
						<path
   fill="#3a3847"
   d="m 482.507,381.843 c -2.358,0 -4.622,-0.609 -6.621,-1.749 -5.006,2.873 -11.869,2.03 -16.07,-2.155 -5.216,-5.231 -5.216,-13.712 -0.008,-18.912 l 13.251,-13.243 c 1.562,-1.562 4.092,-1.562 5.653,0 l 13.251,13.243 c 5.192,5.216 5.192,13.696 0.008,18.896 -2.537,2.53 -5.888,3.92 -9.464,3.92 z m -6.621,-10.729 c 1.022,0 2.046,0.39 2.826,1.171 2.03,2.015 5.56,2.015 7.605,0 2.077,-2.093 2.077,-5.513 -0.016,-7.621 l -10.416,-10.4 -10.425,10.416 c -2.093,2.093 -2.085,5.497 0.008,7.605 2.015,1.999 5.56,2.015 7.59,0 0.782,-0.781 1.804,-1.171 2.828,-1.171 z"
   id="path254" />
					</g>
				</g>
				<g
   id="g264">
					<g
   id="g262">
						<path
   fill="#3a3847"
   d="M 483.881,392.587 H 467.89 c -2.21,0 -3.998,-1.796 -3.998,-3.997 0,-2.219 1.788,-3.998 3.998,-3.998 h 15.991 c 2.21,0 3.998,1.779 3.998,3.998 0,2.201 -1.788,3.997 -3.998,3.997 z"
   id="path260" />
					</g>
				</g>
				<g
   id="g270">
					<g
   id="g268">
						<path
   fill="#3a3847"
   d="m 475.886,392.587 c -2.21,0 -3.998,-1.796 -3.998,-3.997 v -3.998 c 0,-2.218 1.788,-3.998 3.998,-3.998 2.21,0 3.997,1.78 3.997,3.998 v 3.998 c 0,2.201 -1.787,3.997 -3.997,3.997 z"
   id="path266" />
					</g>
				</g>
				<g
   id="g276">
					<g
   id="g274">
						<path
   fill="#3a3847"
   d="m 397.473,248.658 c -7.918,0 -15.43,-2.663 -21.52,-7.551 -6.091,4.888 -13.61,7.551 -21.536,7.551 -9.198,0 -17.85,-3.584 -24.362,-10.089 -13.414,-13.43 -13.414,-35.278 0,-48.709 l 43.071,-43.056 c 1.562,-1.562 4.092,-1.562 5.653,0 l 43.057,43.056 c 13.422,13.431 13.422,35.279 0,48.709 -6.513,6.505 -15.164,10.089 -24.363,10.089 z m -21.52,-16.913 c 1.022,0 2.046,0.391 2.826,1.171 9.987,9.972 27.408,9.987 37.402,0 10.308,-10.314 10.308,-27.087 0,-37.402 l -40.229,-40.229 -40.245,40.229 c -10.291,10.315 -10.291,27.088 0,37.402 9.995,9.979 27.424,9.979 37.418,0 0.782,-0.78 1.805,-1.171 2.828,-1.171 z"
   id="path272" />
					</g>
				</g>
				<g
   id="g284">
					<g
   id="g282">
						<g
   id="g280">
							<path
   fill="#3a3847"
   d="m 397.473,232.526 c -4.942,0 -9.697,-1.913 -13.048,-5.264 -4.536,-4.528 -12.423,-4.528 -16.952,0 -3.357,3.343 -8.104,5.264 -13.048,5.264 v 0 c -4.95,-0.008 -9.706,-1.921 -13.048,-5.264 -7.184,-7.191 -7.199,-18.896 -0.016,-26.096 l 31.765,-31.749 c 1.562,-1.562 4.092,-1.562 5.653,0 l 31.742,31.749 c 7.191,7.191 7.199,18.896 0.023,26.088 -3.373,3.351 -8.128,5.272 -13.071,5.272 z m -21.52,-16.772 c 5.333,0 10.354,2.076 14.125,5.855 3.725,3.717 11.072,3.717 14.813,-0.016 4.061,-4.067 4.053,-10.697 -0.023,-14.773 l -28.914,-28.922 -28.938,28.922 c -4.06,4.076 -4.06,10.714 0.016,14.789 1.858,1.851 4.545,2.913 7.395,2.921 v 0 c 2.835,0 5.536,-1.07 7.396,-2.929 3.776,-3.771 8.789,-5.847 14.13,-5.847 z"
   id="path278" />
						</g>
					</g>
				</g>
				<g
   id="g290">
					<g
   id="g288">
						<path
   fill="#3a3847"
   d="m 403.923,272.649 h -55.971 c -2.21,0 -3.998,-1.796 -3.998,-3.998 0,-2.218 1.788,-3.998 3.998,-3.998 h 55.971 c 2.21,0 3.998,1.78 3.998,3.998 0,2.203 -1.788,3.998 -3.998,3.998 z"
   id="path286" />
					</g>
				</g>
				<g
   id="g296">
					<g
   id="g294">
						<path
   fill="#3a3847"
   d="m 375.938,272.649 c -2.21,0 -3.998,-1.796 -3.998,-3.998 v -15.995 c 0,-2.21 1.788,-3.998 3.998,-3.998 2.21,0 3.998,1.788 3.998,3.998 v 15.995 c 0,2.203 -1.789,3.998 -3.998,3.998 z"
   id="path292" />
					</g>
				</g>
			</g>
		</g>
		<g
   id="g340">
			<g
   id="g338">
				<g
   id="g306">
					<g
   id="g304">
						<path
   fill="#3a3847"
   d="m 257.347,447.121 c -3.463,0 -6.891,-0.905 -9.983,-2.701 -4.634,-2.671 -7.945,-6.98 -9.319,-12.119 l -95.2,-355.265 c -2.846,-10.65 3.494,-21.629 14.141,-24.487 l 73.633,-19.731 c 2.136,-0.516 4.33,0.695 4.896,2.826 0.57,2.14 -0.695,4.326 -2.827,4.904 l -73.634,19.731 c -6.387,1.71 -10.193,8.301 -8.487,14.688 l 95.2,355.257 c 0.824,3.093 2.812,5.669 5.595,7.277 2.792,1.608 6.013,2.062 9.093,1.203 l 67.212,-18.007 c 2.139,-0.516 4.333,0.703 4.903,2.843 0.563,2.124 -0.703,4.31 -2.827,4.888 l -67.219,18.006 c -1.711,0.453 -3.448,0.687 -5.177,0.687 z"
   id="path302" />
					</g>
				</g>
				<g
   id="g312">
					<g
   id="g310">
						<path
   fill="#3a3847"
   d="m 180.223,112.401 c -1.765,0 -3.381,-1.18 -3.857,-2.96 l -8.277,-30.89 c -0.57,-2.14 0.695,-4.326 2.827,-4.904 2.136,-0.523 4.33,0.703 4.896,2.827 l 8.277,30.89 c 0.57,2.14 -0.695,4.326 -2.827,4.904 -0.348,0.086 -0.696,0.133 -1.039,0.133 z"
   id="path308" />
					</g>
				</g>
				<g
   id="g318">
					<g
   id="g316">
						<path
   fill="#3a3847"
   d="m 176.084,96.956 c -1.765,0 -3.377,-1.18 -3.857,-2.96 -0.574,-2.132 0.691,-4.325 2.823,-4.896 l 7.73,-2.077 c 2.131,-0.578 4.326,0.695 4.899,2.819 0.574,2.131 -0.691,4.325 -2.823,4.896 l -7.73,2.077 c -0.347,0.094 -0.698,0.141 -1.042,0.141 z"
   id="path314" />
					</g>
				</g>
				<g
   id="g324">
					<g
   id="g322">
						<path
   fill="#3a3847"
   d="m 199.662,154.035 c -0.695,0 -1.386,-0.18 -1.999,-0.538 l -16.226,-9.37 c -6.379,-3.693 -8.57,-11.885 -4.892,-18.265 2.963,-5.122 9.312,-7.738 14.977,-6.238 4.1,-4.045 10.955,-5.053 16.082,-2.077 3.096,1.788 5.306,4.669 6.231,8.12 0.926,3.452 0.449,7.052 -1.343,10.144 l -9.366,16.226 c -0.531,0.922 -1.406,1.586 -2.429,1.866 -0.341,0.085 -0.688,0.132 -1.035,0.132 z m -11.541,-26.86 c -1.909,0 -3.693,1.03 -4.654,2.686 -1.476,2.562 -0.593,5.864 1.972,7.348 l 12.759,7.371 7.371,-12.774 c 0.722,-1.241 0.91,-2.686 0.539,-4.068 -0.371,-1.39 -1.261,-2.553 -2.506,-3.271 -2.491,-1.437 -5.903,-0.508 -7.336,1.976 -1.101,1.905 -3.545,2.569 -5.462,1.46 -0.821,-0.47 -1.746,-0.728 -2.683,-0.728 z"
   id="path320" />
					</g>
				</g>
				<g
   id="g330">
					<g
   id="g328">
						<path
   fill="#3a3847"
   d="m 183.822,94.879 c -0.266,0 -0.535,-0.023 -0.804,-0.078 -2.163,-0.445 -3.557,-2.554 -3.116,-4.717 l 3.576,-17.506 c 0.441,-2.163 2.558,-3.576 4.717,-3.124 2.163,0.445 3.557,2.554 3.115,4.717 l -3.576,17.507 c -0.386,1.897 -2.053,3.201 -3.912,3.201 z"
   id="path326" />
					</g>
				</g>
				<g
   id="g336">
					<g
   id="g334">
						<path
   fill="#3a3847"
   d="m 195.672,108.263 c -1.105,0 -2.202,-0.453 -2.995,-1.352 L 180.824,93.528 c -1.464,-1.648 -1.308,-4.178 0.343,-5.638 1.652,-1.469 4.173,-1.32 5.646,0.343 l 11.853,13.384 c 1.464,1.647 1.308,4.178 -0.343,5.638 -0.761,0.68 -1.707,1.008 -2.651,1.008 z"
   id="path332" />
					</g>
				</g>
			</g>
		</g>
		<g
   id="g386">
			<g
   id="g384">
				<g
   id="g346">
					<g
   id="g344">
						<path
   fill="#3a3847"
   d="m 265.12,476.668 c -6.923,0 -13.665,-3.576 -17.362,-9.979 L 63.861,148.147 c -2.663,-4.599 -3.365,-9.979 -1.983,-15.147 1.386,-5.178 4.689,-9.487 9.3,-12.15 l 64.135,-37.02 c 1.905,-1.125 4.35,-0.453 5.462,1.46 1.105,1.913 0.449,4.357 -1.464,5.458 l -64.139,37.027 c -2.76,1.593 -4.736,4.178 -5.567,7.293 -0.832,3.101 -0.414,6.325 1.179,9.074 l 183.901,318.549 c 3.303,5.716 10.655,7.684 16.41,4.389 l 60.609,-34.998 c 1.904,-1.108 4.349,-0.453 5.457,1.469 1.109,1.904 0.453,4.356 -1.46,5.449 l -60.616,34.998 c -3.141,1.812 -6.576,2.67 -9.965,2.67 z"
   id="path342" />
					</g>
				</g>
				<g
   id="g352">
					<g
   id="g350">
						<path
   fill="#3a3847"
   d="m 108.088,172.791 c -1.382,0 -2.725,-0.718 -3.467,-1.999 L 88.63,143.088 c -1.105,-1.913 -0.449,-4.356 1.464,-5.458 1.901,-1.124 4.357,-0.453 5.462,1.46 l 15.992,27.705 c 1.105,1.913 0.449,4.356 -1.464,5.458 -0.629,0.366 -1.316,0.538 -1.996,0.538 z"
   id="path348" />
					</g>
				</g>
				<g
   id="g358">
					<g
   id="g356">
						<path
   fill="#3a3847"
   d="m 92.097,145.087 c -1.382,0 -2.725,-0.718 -3.467,-1.999 -1.105,-1.913 -0.449,-4.356 1.464,-5.458 l 13.853,-7.996 c 1.897,-1.124 4.353,-0.452 5.462,1.461 1.104,1.913 0.449,4.356 -1.464,5.458 l -13.852,7.995 c -0.63,0.367 -1.317,0.539 -1.996,0.539 z"
   id="path354" />
					</g>
				</g>
				<g
   id="g364">
					<g
   id="g362">
						<path
   fill="#3a3847"
   d="m 121.94,164.796 c -1.382,0 -2.725,-0.719 -3.467,-1.999 l -15.992,-27.705 c -1.105,-1.913 -0.449,-4.356 1.464,-5.458 1.897,-1.124 4.353,-0.452 5.462,1.461 l 15.991,27.704 c 1.105,1.913 0.449,4.357 -1.464,5.458 -0.627,0.367 -1.314,0.539 -1.994,0.539 z"
   id="path360" />
					</g>
				</g>
				<g
   id="g370">
					<g
   id="g368">
						<path
   fill="#3a3847"
   d="m 108.088,172.791 c -1.382,0 -2.725,-0.718 -3.467,-1.999 -1.104,-1.913 -0.449,-4.356 1.464,-5.458 l 13.852,-7.995 c 1.901,-1.117 4.35,-0.453 5.462,1.46 1.105,1.913 0.449,4.357 -1.464,5.458 l -13.852,7.996 c -0.628,0.366 -1.315,0.538 -1.995,0.538 z"
   id="path366" />
					</g>
				</g>
				<g
   id="g376">
					<g
   id="g374">
						<path
   fill="#3a3847"
   d="m 128.867,160.798 c -0.344,0 -0.691,-0.047 -1.039,-0.133 l -21.856,-5.856 c -2.131,-0.578 -3.396,-2.765 -2.827,-4.903 0.57,-2.124 2.784,-3.343 4.896,-2.827 l 21.856,5.856 c 2.132,0.578 3.396,2.764 2.826,4.903 -0.475,1.78 -2.092,2.96 -3.856,2.96 z"
   id="path372" />
					</g>
				</g>
				<g
   id="g382">
					<g
   id="g380">
						<path
   fill="#3a3847"
   d="m 143.004,217.261 c -0.492,0 -0.984,-0.094 -1.456,-0.273 L 117.7,207.673 c -1.741,-0.68 -2.779,-2.476 -2.494,-4.326 l 3.865,-25.314 c 0.184,-1.203 0.902,-2.257 1.952,-2.858 1.062,-0.609 2.319,-0.688 3.456,-0.266 l 23.831,9.308 c 1.741,0.68 2.776,2.476 2.495,4.326 l -3.85,25.323 c -0.18,1.202 -0.898,2.256 -1.952,2.857 -0.613,0.358 -1.304,0.538 -1.999,0.538 z m -19.412,-15.875 16.21,6.333 2.62,-17.218 -16.202,-6.325 z"
   id="path378" />
					</g>
				</g>
			</g>
		</g>
		<g
   id="g454">
			<g
   id="g452">
				<g
   id="g394">
					<g
   id="g392">
						<g
   id="g390">
							<path
   fill="#3a3847"
   d="m 280.19,503.217 c -5.13,0 -10.245,-1.951 -14.134,-5.84 L 5.974,237.297 c -3.764,-3.756 -5.837,-8.776 -5.841,-14.125 0,-5.357 2.069,-10.37 5.833,-14.134 l 52.379,-52.379 c 1.562,-1.562 4.092,-1.562 5.653,0 1.561,1.562 1.562,4.092 0,5.653 l -52.379,52.379 c -2.253,2.249 -3.49,5.263 -3.49,8.473 0,3.217 1.241,6.23 3.498,8.479 l 260.083,260.08 c 4.67,4.686 12.275,4.67 16.968,0 l 49.584,-49.583 c 1.562,-1.562 4.092,-1.562 5.653,0 1.561,1.562 1.562,4.092 0,5.653 l -49.592,49.6 c -3.903,3.888 -9.026,5.824 -14.133,5.824 z"
   id="path388" />
						</g>
					</g>
				</g>
				<g
   id="g420">
					<g
   id="g400">
						<g
   id="g398">
							<path
   fill="#3a3847"
   d="m 59.688,232.822 c -1.022,0 -2.046,-0.39 -2.826,-1.171 L 40.253,215.035 c -1.562,-1.562 -1.562,-4.092 0,-5.653 1.562,-1.562 4.092,-1.562 5.653,0 l 16.609,16.616 c 1.562,1.562 1.562,4.092 0,5.653 -0.782,0.782 -1.804,1.171 -2.827,1.171 z"
   id="path396" />
						</g>
					</g>
					<g
   id="g406">
						<g
   id="g404">
							<path
   fill="#3a3847"
   d="m 59.688,244.129 c -2.209,0 -3.998,-1.788 -3.998,-3.997 v -11.307 c 0,-2.21 1.789,-3.998 3.998,-3.998 2.21,0 3.998,1.788 3.998,3.998 v 11.307 c 0,2.209 -1.789,3.997 -3.998,3.997 z"
   id="path402" />
						</g>
					</g>
					<g
   id="g412">
						<g
   id="g410">
							<path
   fill="#3a3847"
   d="M 59.688,244.129 H 48.373 c -2.209,0 -3.998,-1.788 -3.998,-3.997 0,-2.21 1.789,-3.998 3.998,-3.998 h 11.314 c 2.21,0 3.998,1.788 3.998,3.998 10e-4,2.209 -1.788,3.997 -3.997,3.997 z"
   id="path408" />
						</g>
					</g>
					<g
   id="g418">
						<g
   id="g416">
							<path
   fill="#3a3847"
   d="m 37.066,221.516 c -1.022,0 -2.046,-0.39 -2.826,-1.171 -1.562,-1.562 -1.562,-4.092 0,-5.653 l 11.314,-11.314 c 1.562,-1.562 4.091,-1.562 5.653,0 1.562,1.562 1.562,4.092 0,5.653 l -11.314,11.314 c -0.781,0.781 -1.803,1.171 -2.827,1.171 z"
   id="path414" />
						</g>
					</g>
				</g>
				<g
   id="g426">
					<g
   id="g424">
						<path
   fill="#3a3847"
   d="m 82.297,286.049 c -3.201,0 -6.211,-1.249 -8.476,-3.514 -2.269,-2.28 -3.518,-5.294 -3.518,-8.496 0.004,-3.201 1.253,-6.215 3.522,-8.464 4.544,-4.533 12.431,-4.533 16.96,0 4.669,4.669 4.665,12.274 0,16.96 -2.276,2.265 -5.286,3.514 -8.488,3.514 z m 0.012,-15.992 c -1.073,0 -2.081,0.422 -2.842,1.172 -0.75,0.75 -1.168,1.749 -1.168,2.811 0,1.078 0.418,2.077 1.176,2.843 1.519,1.515 4.138,1.515 5.657,0 1.55,-1.562 1.554,-4.107 0,-5.653 -0.75,-0.751 -1.754,-1.173 -2.823,-1.173 z"
   id="path422" />
					</g>
				</g>
				<g
   id="g432">
					<g
   id="g430">
						<path
   fill="#3a3847"
   d="m 99.253,269.089 c -3.201,0 -6.211,-1.249 -8.472,-3.514 -2.269,-2.269 -3.514,-5.282 -3.518,-8.483 0,-3.202 1.25,-6.216 3.522,-8.48 4.521,-4.529 12.427,-4.529 16.956,0 4.677,4.678 4.677,12.282 0,16.964 -2.272,2.264 -5.286,3.513 -8.488,3.513 z m 0.008,-15.995 c -1.065,0 -2.069,0.413 -2.826,1.171 -0.758,0.758 -1.176,1.757 -1.176,2.827 0,1.069 0.422,2.076 1.18,2.834 1.495,1.499 4.134,1.507 5.653,-0.008 1.554,-1.562 1.554,-4.092 -0.004,-5.653 -0.758,-0.758 -1.761,-1.171 -2.827,-1.171 z"
   id="path428" />
					</g>
				</g>
				<g
   id="g438">
					<g
   id="g436">
						<path
   fill="#3a3847"
   d="m 79.471,266.262 c -3.206,0 -6.22,-1.249 -8.48,-3.518 -2.26,-2.264 -3.51,-5.278 -3.514,-8.472 0,-3.209 1.25,-6.216 3.518,-8.487 4.557,-4.529 12.447,-4.529 16.964,0 4.666,4.669 4.67,12.274 0,16.959 -2.277,2.269 -5.291,3.518 -8.488,3.518 z m 0.015,-15.988 c -1.074,0 -2.085,0.414 -2.847,1.172 -0.75,0.749 -1.167,1.757 -1.167,2.818 0,1.069 0.417,2.069 1.175,2.827 1.507,1.514 4.135,1.514 5.657,0 1.55,-1.563 1.554,-4.1 -0.004,-5.653 -0.749,-0.75 -1.748,-1.164 -2.814,-1.164 z"
   id="path434" />
					</g>
				</g>
				<g
   id="g444">
					<g
   id="g442">
						<path
   fill="#3a3847"
   d="m 96.435,292.187 c -1.023,0 -2.046,-0.391 -2.827,-1.172 -1.562,-1.562 -1.562,-4.091 0,-5.653 l 16.96,-16.96 c 1.562,-1.562 4.092,-1.562 5.653,0 1.561,1.562 1.562,4.092 0,5.653 l -16.96,16.96 c -0.781,0.781 -1.804,1.172 -2.826,1.172 z"
   id="path440" />
					</g>
				</g>
				<g
   id="g450">
					<g
   id="g448">
						<path
   fill="#3a3847"
   d="m 104.914,283.706 c -1.022,0 -2.046,-0.39 -2.826,-1.171 l -8.48,-8.48 c -1.562,-1.562 -1.562,-4.092 0,-5.653 1.562,-1.561 4.092,-1.562 5.653,0 l 8.48,8.48 c 1.562,1.562 1.562,4.092 0,5.653 -0.781,0.781 -1.804,1.171 -2.827,1.171 z"
   id="path446" />
					</g>
				</g>
			</g>
		</g>
	</g>
</g>
</svg>
