<?xml version="1.0" encoding="UTF-8" standalone="no"?>
<!-- Generator: Adobe Illustrator 18.0.0, SVG Export Plug-In . SVG Version: 6.00 Build 0)  -->

<svg
   version="1.1"
   id="Icon_Set"
   x="0px"
   y="0px"
   viewBox="0 0 207 207"
   xml:space="preserve"
   sodipodi:docname="reshot-icon-choice-HKLP8697TS.svg"
   width="207"
   height="207"
   inkscape:version="1.2.2 (b0a8486, 2022-12-01)"
   xmlns:inkscape="http://www.inkscape.org/namespaces/inkscape"
   xmlns:sodipodi="http://sodipodi.sourceforge.net/DTD/sodipodi-0.dtd"
   xmlns="http://www.w3.org/2000/svg"
   xmlns:svg="http://www.w3.org/2000/svg"><defs
   id="defs96" /><sodipodi:namedview
   id="namedview94"
   pagecolor="#ffffff"
   bordercolor="#666666"
   borderopacity="1.0"
   inkscape:showpageshadow="2"
   inkscape:pageopacity="0.0"
   inkscape:pagecheckerboard="0"
   inkscape:deskcolor="#d1d1d1"
   showgrid="false"
   inkscape:zoom="3.4257812"
   inkscape:cx="104.35576"
   inkscape:cy="104.35576"
   inkscape:window-width="1251"
   inkscape:window-height="881"
   inkscape:window-x="0"
   inkscape:window-y="25"
   inkscape:window-maximized="0"
   inkscape:current-layer="Icon_Set" />
<style
   type="text/css"
   id="style9">
	.st0{fill:#4C4372;}
	.st1{fill:#F0C48A;}
	.st2{fill:#FD919E;}
	.st3{fill:#D3E6F8;}
	.st4{fill:#A4CFF2;}
	.st5{fill:#FFFFFF;}
	.st6{fill:#7BABF1;}
	.st7{fill:#E8677D;}
</style>
<g
   id="g91"
   transform="translate(-24.5,-24.5)">
	<g
   id="g15">
		<g
   id="g13">
			<circle
   class="st1"
   cx="128"
   cy="128"
   r="103.5"
   id="circle11" />
		</g>
	</g>
	<g
   id="g19">
		<path
   class="st4"
   d="M 108.25,104.875 H 73.996 c -4.163,0 -7.539,-3.376 -7.539,-7.539 V 63.082 c 0,-4.164 3.376,-7.539 7.539,-7.539 h 34.254 c 4.164,0 7.54,3.375 7.54,7.539 v 34.254 c 0,4.163 -3.376,7.539 -7.54,7.539 z"
   id="path17" />
	</g>
	<g
   id="g23">
		<path
   class="st6"
   d="m 108.251,55.542 h -9.204 c 4.164,0 7.539,3.375 7.539,7.54 v 34.254 c 0,4.164 -3.375,7.539 -7.539,7.539 h 9.204 c 4.163,0 7.539,-3.376 7.539,-7.539 V 63.082 c 0,-4.164 -3.376,-7.54 -7.539,-7.54 z"
   id="path21" />
	</g>
	<g
   id="g27">
		<path
   class="st2"
   d="m 182.003,104.875 h -34.254 c -4.163,0 -7.539,-3.376 -7.539,-7.539 V 63.082 c 0,-4.164 3.376,-7.539 7.539,-7.539 h 34.254 c 4.164,0 7.539,3.375 7.539,7.539 v 34.254 c 0,4.163 -3.375,7.539 -7.539,7.539 z"
   id="path25" />
	</g>
	<g
   id="g31">
		<path
   class="st0"
   d="M 108.251,107.875 H 73.997 c -5.812,0 -10.54,-4.728 -10.54,-10.539 V 63.082 c 0,-5.811 4.729,-10.539 10.54,-10.539 h 34.254 c 5.812,0 10.539,4.728 10.539,10.539 v 34.254 c 0,5.811 -4.727,10.539 -10.539,10.539 z M 73.997,58.543 c -2.503,0 -4.54,2.036 -4.54,4.539 v 34.254 c 0,2.503 2.037,4.539 4.54,4.539 h 34.254 c 2.503,0 4.539,-2.036 4.539,-4.539 V 63.082 c 0,-2.503 -2.036,-4.539 -4.539,-4.539 z"
   id="path29" />
	</g>
	<g
   id="g35">
		<path
   class="st0"
   d="m 96.514,86.686 h -9.485 l -1.912,5.074 c -0.352,0.859 -1.171,1.366 -2.03,1.366 -0.272,0 -0.507,-0.039 -0.741,-0.117 -1.132,-0.429 -1.679,-1.678 -1.288,-2.81 l 8.626,-22.99 c 0.352,-0.859 1.21,-1.405 2.068,-1.366 0.898,-0.039 1.718,0.507 2.069,1.366 l 8.626,22.99 c 0.391,1.132 -0.156,2.381 -1.288,2.81 -0.195,0.078 -0.469,0.117 -0.742,0.117 -0.858,0 -1.678,-0.507 -1.99,-1.366 z M 94.913,82.392 91.751,74 88.59,82.392 Z"
   id="path33" />
	</g>
	<g
   id="g39">
		<path
   class="st7"
   d="M 182.003,55.542 H 172.8 c 4.164,0 7.539,3.375 7.539,7.54 v 34.254 c 0,4.164 -3.375,7.539 -7.539,7.539 h 9.203 c 4.164,0 7.539,-3.376 7.539,-7.539 V 63.082 c 0,-4.164 -3.375,-7.54 -7.539,-7.54 z"
   id="path37" />
	</g>
	<g
   id="g43">
		<path
   class="st0"
   d="m 182.003,107.875 h -34.254 c -5.812,0 -10.539,-4.728 -10.539,-10.539 V 63.082 c 0,-5.811 4.728,-10.539 10.539,-10.539 h 34.254 c 5.812,0 10.539,4.728 10.539,10.539 v 34.254 c 0,5.811 -4.728,10.539 -10.539,10.539 z M 147.749,58.543 c -2.503,0 -4.539,2.036 -4.539,4.539 v 34.254 c 0,2.503 2.036,4.539 4.539,4.539 h 34.254 c 2.503,0 4.539,-2.036 4.539,-4.539 V 63.082 c 0,-2.503 -2.036,-4.539 -4.539,-4.539 z"
   id="path41" />
	</g>
	<g
   id="g47">
		<path
   class="st0"
   d="M 157.347,90.979 V 67.95 c 0,-1.21 0.976,-2.146 2.146,-2.146 0.039,0 0.039,0 0.117,0 0,0 0,0 0.039,0 h 5.387 c 4.098,0 7.416,3.317 7.416,7.416 0,1.678 -0.547,3.201 -1.483,4.45 2.342,1.483 3.942,4.098 3.942,7.064 0,4.645 -3.747,8.392 -8.354,8.392 h -6.908 c -0.039,0 -0.039,-0.039 -0.039,-0.039 -0.078,0 -0.078,0.039 -0.117,0.039 -1.171,0 -2.146,-0.976 -2.146,-2.147 z m 4.332,-14.598 h 3.357 c 1.717,0 3.083,-1.444 3.083,-3.162 0,-1.718 -1.366,-3.083 -3.083,-3.083 h -3.357 z m 0,12.412 h 4.879 c 2.226,-0.039 4.021,-1.795 4.021,-4.06 0,-2.225 -1.795,-3.981 -4.021,-4.02 h -4.879 z"
   id="path45" />
	</g>
	<g
   id="g51">
		<path
   class="st5"
   d="m 133.317,118.002 c -3.807,0 -6.893,3.086 -6.893,6.893 0,-3.807 -3.086,-6.893 -6.893,-6.893 -3.808,0 -6.894,3.086 -6.894,6.893 0,-3.807 -3.086,-6.893 -6.893,-6.893 -3.807,0 -6.893,3.086 -6.893,6.893 v -22.387 c 0,-3.807 -3.086,-6.893 -6.893,-6.893 -3.807,0 -6.893,3.086 -6.893,6.893 v 37.881 3.923 9.399 c 0,-3.807 -3.086,-6.893 -6.893,-6.893 -3.808,0 -6.894,3.086 -6.894,6.893 v 24.559 c 0,3.807 3.086,6.893 6.894,6.893 h 6.893 v 6.886 c 0,4.211 3.413,7.624 7.624,7.624 h 2.787 v 16.784 h 34.319 v -16.784 h 2.787 c 4.211,0 7.624,-3.413 7.624,-7.624 v -47.738 -3.923 -15.494 c 0.004,-3.806 -3.082,-6.892 -6.889,-6.892 z"
   id="path49" />
	</g>
	<g
   id="g55">
		<path
   class="st3"
   d="m 129.799,199.673 h 2.787 c 4.211,0 7.624,-3.413 7.624,-7.624 v -47.738 -3.923 -15.261 c 0,-3.49 -2.496,-6.605 -5.956,-7.063 -1.98,-0.263 -3.817,0.322 -5.218,1.434 v 67.91 c 0,1.997 -1.619,3.616 -3.616,3.616 v 0 c -1.998,0 -3.617,1.62 -3.617,3.617 v 21.816 h 7.996 z"
   id="path53" />
	</g>
	<g
   id="g69">
		<g
   id="g59">
			<path
   class="st3"
   d="m 78.521,146.835 c 0.028,0.253 0.046,0.51 0.046,0.771 v -0.769 c -0.014,0 -0.03,-10e-4 -0.046,-0.002 z"
   id="path57" />
		</g>
		<g
   id="g63">
			<path
   class="st3"
   d="m 106.139,118.79 c 0,-0.152 0.013,-0.301 0.022,-0.451 -0.014,0.16 -0.022,0.313 -0.022,0.451 z"
   id="path61" />
		</g>
		<g
   id="g67">
			<path
   class="st3"
   d="m 119.879,118.019 c 0.027,0.254 0.045,0.51 0.045,0.771 0,-0.259 0.018,-0.515 0.046,-0.767 -0.031,-10e-4 -0.061,-0.002 -0.091,-0.004 z"
   id="path65" />
		</g>
	</g>
	<g
   id="g73">
		<path
   class="st0"
   d="m 129.799,219.458 h -34.32 c -1.657,0 -3,-1.343 -3,-3 v -13.786 c -5.76,-0.114 -10.411,-4.835 -10.411,-10.622 v -3.886 h -3.893 c -5.455,0 -9.894,-4.438 -9.894,-9.893 v -24.559 c 0,-5.455 4.438,-9.893 9.894,-9.893 1.381,0 2.697,0.285 3.893,0.798 v -42.109 c 0,-5.455 4.438,-9.893 9.893,-9.893 5.455,0 9.893,4.438 9.893,9.893 V 115.8 c 1.195,-0.514 2.512,-0.798 3.893,-0.798 2.678,0 5.109,1.069 6.893,2.803 1.783,-1.734 4.216,-2.803 6.894,-2.803 2.678,0 5.109,1.069 6.893,2.803 1.783,-1.734 4.215,-2.803 6.893,-2.803 5.455,0 9.893,4.438 9.893,9.893 v 67.155 c 0,5.787 -4.651,10.508 -10.411,10.622 v 13.786 c -0.003,1.656 -1.346,3 -3.003,3 z m -31.32,-6 h 28.319 v -13.784 c 0,-1.657 1.343,-3 3,-3 h 2.787 c 2.55,0 4.624,-2.074 4.624,-4.624 v -67.155 c 0,-2.146 -1.746,-3.893 -3.893,-3.893 -2.147,0 -3.893,1.747 -3.893,3.893 0,1.657 -1.343,3 -3,3 -1.657,0 -3,-1.343 -3,-3 0,-2.146 -1.746,-3.893 -3.893,-3.893 -2.147,0 -3.894,1.747 -3.894,3.893 0,1.657 -1.343,3 -3,3 -1.657,0 -3,-1.343 -3,-3 0,-2.146 -1.746,-3.893 -3.893,-3.893 -2.147,0 -3.893,1.747 -3.893,3.893 0,1.657 -1.343,3 -3,3 -1.657,0 -3,-1.343 -3,-3 v -22.387 c 0,-2.146 -1.746,-3.893 -3.893,-3.893 -2.147,0 -3.893,1.747 -3.893,3.893 v 51.204 c 0,1.657 -1.343,3 -3,3 -1.657,0 -3,-1.343 -3,-3 0,-2.146 -1.746,-3.893 -3.893,-3.893 -2.147,0 -3.894,1.747 -3.894,3.893 v 24.559 c 0,2.146 1.747,3.893 3.894,3.893 h 6.893 c 1.657,0 3,1.343 3,3 v 6.886 c 0,2.55 2.074,4.624 4.624,4.624 h 2.787 c 1.657,0 3,1.343 3,3 v 13.784 z"
   id="path71" />
	</g>
	<g
   id="g77">
		<path
   class="st0"
   d="m 85.068,175.391 c -1.657,0 -3,-1.343 -3,-3 v -18.68 c 0,-1.657 1.343,-3 3,-3 1.657,0 3,1.343 3,3 v 18.68 c 0,1.657 -1.342,3 -3,3 z"
   id="path75" />
	</g>
	<g
   id="g81">
		<path
   class="st0"
   d="m 98.854,143.389 c -1.657,0 -3,-1.343 -3,-3 v -15.494 c 0,-1.657 1.343,-3 3,-3 1.657,0 3,1.343 3,3 v 15.494 c 0,1.656 -1.343,3 -3,3 z"
   id="path79" />
	</g>
	<g
   id="g85">
		<path
   class="st0"
   d="m 112.639,143.389 c -1.657,0 -3,-1.343 -3,-3 v -15.494 c 0,-1.657 1.343,-3 3,-3 1.657,0 3,1.343 3,3 v 15.494 c 0,1.656 -1.343,3 -3,3 z"
   id="path83" />
	</g>
	<g
   id="g89">
		<path
   class="st0"
   d="m 126.425,143.389 c -1.657,0 -3,-1.343 -3,-3 v -15.494 c 0,-1.657 1.343,-3 3,-3 1.657,0 3,1.343 3,3 v 15.494 c 0,1.656 -1.343,3 -3,3 z"
   id="path87" />
	</g>
</g>
</svg>
