<?xml version="1.0" encoding="UTF-8" standalone="no"?>
<!-- Creator: CorelDRAW -->

<svg
   xml:space="preserve"
   width="1536.0016"
   height="1258.2571"
   style="clip-rule:evenodd;fill-rule:evenodd;image-rendering:optimizeQuality;shape-rendering:geometricPrecision;text-rendering:geometricPrecision"
   viewBox="0 0 1536.0016 1258.2571"
   version="1.1"
   id="svg28"
   sodipodi:docname="reshot-icon-drawer-ZV5MS7N6PT.svg"
   inkscape:version="1.2.2 (b0a8486, 2022-12-01)"
   xmlns:inkscape="http://www.inkscape.org/namespaces/inkscape"
   xmlns:sodipodi="http://sodipodi.sourceforge.net/DTD/sodipodi-0.dtd"
   xmlns="http://www.w3.org/2000/svg"
   xmlns:svg="http://www.w3.org/2000/svg"><sodipodi:namedview
   id="namedview30"
   pagecolor="#ffffff"
   bordercolor="#666666"
   borderopacity="1.0"
   inkscape:showpageshadow="2"
   inkscape:pageopacity="0.0"
   inkscape:pagecheckerboard="0"
   inkscape:deskcolor="#d1d1d1"
   showgrid="false"
   inkscape:zoom="0.42822266"
   inkscape:cx="776.46522"
   inkscape:cy="449.5325"
   inkscape:window-width="1559"
   inkscape:window-height="787"
   inkscape:window-x="0"
   inkscape:window-y="25"
   inkscape:window-maximized="0"
   inkscape:current-layer="Layer_x0020_1" />
 <defs
   id="defs11">
  <style
   type="text/css"
   id="style9">
   <![CDATA[
    .fil0 {fill:none}
    .fil5 {fill:#3E2723}
    .fil2 {fill:#4E342E}
    .fil6 {fill:#8D6E63}
    .fil3 {fill:#E0E0E0}
    .fil1 {fill:#6D4C41;fill-rule:nonzero}
    .fil4 {fill:#757575;fill-rule:nonzero}
   ]]>
  </style>
 </defs>
 <g
   id="Layer_x0020_1"
   inkscape:label="Layer 1"
   inkscape:groupmode="layer"
   transform="translate(-255.99501,-394.872)">
  <metadata
   id="CorelCorpID_0Corel-Layer" />
  <rect
   class="fil0"
   x="255.99899"
   y="256"
   width="1536"
   height="1536"
   id="rect14" />
  <rect
   class="fil0"
   width="2048"
   height="2048"
   id="rect16"
   x="0"
   y="0" />
  <g
   id="_520303760">
   <path
   id="_520275824"
   class="fil1"
   d="m 597.513,394.872 h 846.911 c 15.3343,0 26.7921,6.43465 35.5004,16.4032 6.2764,7.18465 10.2827,15.6921 13.0158,24.1973 l 200.927,625.886 12.8669,40.0807 h -42.0272 -100.566 -22.2543 l -6.9071,-21.2398 -142.947,-439.574 H 650.21651 l -139.978,439.333 -6.84449,21.4807 h -22.3169 -100.475 -41.8926 l 12.613,-39.9603 197.555,-625.887 c 2.68229,-8.50512 6.73111,-17.041 13.1173,-24.3295 8.73662,-9.96969 20.2205,-16.3902 35.5181,-16.3902 z" />
   <path
   id="_520288976"
   class="fil2"
   d="m 384.044,1038.72 h 1279.79 c 7.2744,0 14.5606,0.5787 21.7559,1.6807 27.3284,4.1906 53.0433,16.2402 72.1193,33.3036 20.9941,18.7819 34.2874,43.6146 34.2874,71.4473 0,4.2803 -0.3343,8.6658 -1.0193,13.141 l -65.5276,426.531 c -2.9256,19.0677 -12.3201,36.6048 -26.7107,49.1327 -13.5898,11.8335 -31.3559,19.1728 -52.0524,19.1728 H 394.07661 c -20.7366,0 -38.6563,-7.363 -52.3028,-19.252 -14.4201,-12.5599 -23.7992,-30.2103 -26.4378,-49.5343 l -58.441,-426.531 c -0.60354,-4.4256 -0.9,-8.4094 -0.9,-11.9587 0,-28.402 13.4894,-53.6717 34.8024,-72.6178 19.3819,-17.2288 45.704,-29.2559 73.8319,-33.1051 6.77953,-0.9272 13.2803,-1.4102 19.4103,-1.4102 z" />
   <polygon
   id="_520295216"
   class="fil3"
   points="523.379,1038.72 1521.49,1038.72 1392.03,640.626 650.217,640.626 " />
   <polygon
   id="_520282568"
   class="fil4"
   points="1357.08,801.927 685.688,801.927 685.688,740.484 1357.08,740.484 " />
   <polygon
   id="_520296632"
   class="fil4"
   points="1392.65,950.41 650.128,950.41 650.128,888.968 1392.65,888.968 " />
   <circle
   id="_520278152"
   class="fil5"
   cx="752.00098"
   cy="1278.72"
   r="48" />
   <circle
   id="_520291424"
   class="fil5"
   cx="1297.84"
   cy="1278.72"
   r="48" />
   <path
   id="_520298744"
   class="fil6"
   d="m 1331.21,1284.48 v 38.9292 c 0,30.2433 -10.5224,57.9 -27.5351,78.1631 -18.2882,21.7854 -43.9394,35.2571 -72.6201,35.2571 h -414.108 c -28.6807,0 -54.3319,-13.4728 -72.6201,-35.2559 -17.0138,-20.2642 -27.5339,-47.9209 -27.5339,-78.1642 v -38.9292 h 61.441 v 38.9292 c 0,15.4382 5.01851,29.139 13.1327,38.8028 6.83386,8.1402 15.9012,13.1764 25.5803,13.1764 h 414.108 c 9.6791,0 18.7465,-5.0362 25.5803,-13.1776 8.1142,-9.6638 13.1327,-23.3622 13.1327,-38.8016 v -38.9292 h 61.4422 z" />
  </g>
 </g>
</svg>
