<?xml version="1.0" encoding="UTF-8" standalone="no"?>
<svg
   viewBox="0 0 46.016022 38.000004"
   version="1.1"
   id="svg34"
   sodipodi:docname="fashion-alt.svg"
   width="46.016022"
   height="38.000004"
   inkscape:version="1.2.2 (b0a8486, 2022-12-01)"
   xmlns:inkscape="http://www.inkscape.org/namespaces/inkscape"
   xmlns:sodipodi="http://sodipodi.sourceforge.net/DTD/sodipodi-0.dtd"
   xmlns="http://www.w3.org/2000/svg"
   xmlns:svg="http://www.w3.org/2000/svg"
   xmlns:rdf="http://www.w3.org/1999/02/22-rdf-syntax-ns#"
   xmlns:cc="http://creativecommons.org/ns#"
   xmlns:dc="http://purl.org/dc/elements/1.1/">
  <sodipodi:namedview
     id="namedview36"
     pagecolor="#ffffff"
     bordercolor="#666666"
     borderopacity="1.0"
     inkscape:showpageshadow="2"
     inkscape:pageopacity="0.0"
     inkscape:pagecheckerboard="0"
     inkscape:deskcolor="#d1d1d1"
     showgrid="false"
     inkscape:zoom="18.270833"
     inkscape:cx="23.151653"
     inkscape:cy="19.265678"
     inkscape:window-width="1910"
     inkscape:window-height="856"
     inkscape:window-x="0"
     inkscape:window-y="25"
     inkscape:window-maximized="0"
     inkscape:current-layer="svg34" />
  <defs
     id="defs11">
    <style
       id="style9">.cls-1{fill:#f26674;}.cls-2{fill:#db5669;}.cls-3{fill:#374f68;}.cls-4{fill:#425b72;}.cls-5{fill:#c4455e;}</style>
  </defs>
  <title
     id="title13">High Heels</title>
  <g
     id="High_Heels"
     data-name="High Heels"
     transform="translate(-0.99999085,-5)">
    <path
       class="cls-1"
       d="M 41.84,39 H 26.21 C 22.36,39 21.1,36.15 19,33 11.15,21.24 12.85,23.79 10.78,20.67 A 6,6 0 0 0 5.78,18 H 1 A 13,13 0 0 1 14,5 2,2 0 0 1 16,7 c 0,6.52 2.82,9.61 9.47,20.5 2.29,3.74 8.32,3.22 9.72,-1.07 a 2,2 0 0 1 3,-1.05 l 6.45,4.1 A 5.17,5.17 0 0 1 41.84,39 Z"
       id="path15" />
    <path
       class="cls-2"
       d="m 29.21,37 a 6,6 0 0 1 -5,-2.67 L 15.33,21 C 13.67,18.51 12.43,16 8.8,16 A 3.91,3.91 0 0 1 5.24,10.45 12.69,12.69 0 0 1 8.38,6.3 12.94,12.94 0 0 0 1,18 h 4.8 a 6,6 0 0 1 5,2.67 L 19,33 c 2.1,3.15 3.36,6 7.21,6 H 41.84 A 5.13,5.13 0 0 0 46,36.85 C 45.12,37.06 46.21,37 29.21,37 Z"
       id="path17" />
    <path
       class="cls-3"
       d="M 47,33.84 V 37 a 6,6 0 0 1 -6,6 H 27.56 a 8,8 0 0 1 -7.85,-6.43 c -0.19,-1 -0.06,-0.3 -0.71,-3.57 2.1,3.15 3.36,6 7.21,6 H 41.84 A 5.16,5.16 0 0 0 47,33.84 Z"
       id="path19" />
    <path
       class="cls-4"
       d="M 47,35.84 V 37 a 6,6 0 0 1 -6,6 H 27.56 a 8,8 0 0 1 -7.85,-6.43 c -0.19,-1 -0.57,-1.37 1.51,1.76 a 6,6 0 0 0 5,2.67 H 41.84 A 5.16,5.16 0 0 0 47,35.84 Z"
       id="path21" />
    <path
       class="cls-2"
       d="M 12.33,23 A 3.18,3.18 0 0 0 8.85,26 C 8.12,40.53 8.17,39.58 8,43 H 4 C 3.14,25.88 3.64,23.28 1,18 c 7.32,0 7.56,-0.66 11.33,5 z"
       id="path23" />
    <path
       class="cls-5"
       d="M 6.85,27 6.05,43 H 8 C 8.93,24.36 8.63,25.18 9.68,24 a 3.14,3.14 0 0 0 -2.83,3 z"
       id="path25" />
    <path
       class="cls-5"
       d="M 10.78,20.67 A 6,6 0 0 0 5.78,18 H 1 c 0.16,0.33 0.32,0.66 0.47,1 4.65,0 5.39,-0.22 8.63,4.65 2.13,-1.65 3.3,0.95 0.68,-2.98 z"
       id="path27" />
    <path
       class="cls-3"
       d="M 8.15,40 C 8.07,41.56 8.08,41.49 8,43 H 4 C 3.88,40.62 3.91,41.28 3.85,40 Z"
       id="path29" />
    <path
       class="cls-4"
       d="m 8.15,40 -0.1,2 H 6.93 a 2,2 0 0 1 -2,-2 z"
       id="path31" />
  </g>
  <metadata
     id="metadata142">
    <rdf:RDF>
      <cc:Work
         rdf:about="">
        <dc:title>High Heels</dc:title>
      </cc:Work>
    </rdf:RDF>
  </metadata>
</svg>
