<?xml version="1.0" encoding="UTF-8" standalone="no"?>
<!-- Generator: Adobe Illustrator 21.1.0, SVG Export Plug-In . SVG Version: 6.00 Build 0)  -->

<svg
   version="1.1"
   id="Layer_1"
   x="0px"
   y="0px"
   viewBox="0 0 56 63.708096"
   xml:space="preserve"
   sodipodi:docname="fashion.svg"
   width="56"
   height="63.708096"
   inkscape:version="1.2.2 (b0a8486, 2022-12-01)"
   xmlns:inkscape="http://www.inkscape.org/namespaces/inkscape"
   xmlns:sodipodi="http://sodipodi.sourceforge.net/DTD/sodipodi-0.dtd"
   xmlns="http://www.w3.org/2000/svg"
   xmlns:svg="http://www.w3.org/2000/svg"><defs
   id="defs25" /><sodipodi:namedview
   id="namedview23"
   pagecolor="#ffffff"
   bordercolor="#666666"
   borderopacity="1.0"
   inkscape:showpageshadow="2"
   inkscape:pageopacity="0.0"
   inkscape:pagecheckerboard="0"
   inkscape:deskcolor="#d1d1d1"
   showgrid="false"
   inkscape:zoom="6.8515625"
   inkscape:cx="28.533637"
   inkscape:cy="32.036488"
   inkscape:window-width="1511"
   inkscape:window-height="881"
   inkscape:window-x="0"
   inkscape:window-y="25"
   inkscape:window-maximized="0"
   inkscape:current-layer="Layer_1" />
<style
   type="text/css"
   id="style9">
	.st0{fill:#FFFFFF;}
	.st1{fill:#314A52;}
	.st2{fill:#FF6C58;}
	.st3{fill:#ACBDC5;}
	.st4{fill:#D7385E;}
</style>
<g
   id="Shirt__x26__Tie"
   transform="matrix(1,0,0,0.99543899,-4,0)">
	<polygon
   class="st0"
   points="57,61 7,61 7,11 16,11 20,2 44,2 48,11 57,11 "
   id="polygon11" />
	<path
   class="st1"
   d="M 46,4 H 18 V 0 H 46 Z M 56,16.8 V 56 c 0,2.2 -1.8,4 -4,4 H 40 v 4 h 12 c 4.4,0 8,-3.6 8,-8 V 16.8 C 60,13.1 57.4,9.8 53.8,9 l -8.3,-1.9 -0.9,3.9 8.3,1.9 c 1.8,0.4 3.1,2 3.1,3.9 z"
   id="path13" />
	<polygon
   class="st2"
   points="44,8 20,8 28,20 22,64 42,64 36,20 "
   id="polygon15" />
	<path
   class="st3"
   d="m 18,0 14,8 -8,12 -7.1,-8.5 -5.8,1.3 C 9.3,13.2 8,14.8 8,16.7 V 44 c 0,4.4 7.2,8 16,8 17.7,0 32,-9 32,-20 v 24 c 0,2.2 -1.8,4 -4,4 H 40 v 1 h -8 v 3 H 12 C 7.6,64 4,60.4 4,56 V 16.8 C 4,13.1 6.6,9.8 10.2,9 L 14.1,8.1 14,8 Z M 32,8 40,20 50,8 46,0 Z M 56,32 V 28 H 44 v 4 z"
   id="path17" />
	<path
   class="st4"
   d="m 22,64 1.6,-12 c 0.1,0 0.2,0 0.4,0 5.8,0 11.3,-1 16,-2.7 L 42,64 Z m 10,-56 -6,9 2,3 c 0,0 1.5,1 4,1 2.5,0 4,-1 4,-1 l 2,-3 z M 38.9,41.5 24.6,45 24,49.3 39.5,45.4 Z m -1.3,-9.4 -11.7,3.3 -0.6,4.3 12.9,-3.6 z m -1.2,-9.2 -9.1,2.6 -0.6,4.3 10.3,-2.9 z"
   id="path19" />
</g>
</svg>
