<?xml version="1.0" encoding="UTF-8" standalone="no"?>
<!-- Creator: CorelDRAW -->

<svg
   xml:space="preserve"
   width="1253.64"
   height="1536"
   style="clip-rule:evenodd;fill-rule:evenodd;image-rendering:optimizeQuality;shape-rendering:geometricPrecision;text-rendering:geometricPrecision"
   viewBox="0 0 1253.64 1536"
   version="1.1"
   id="svg384"
   sodipodi:docname="reshot-icon-list-view-3KEQNAZHW9.svg"
   inkscape:version="1.2.2 (b0a8486, 2022-12-01)"
   xmlns:inkscape="http://www.inkscape.org/namespaces/inkscape"
   xmlns:sodipodi="http://sodipodi.sourceforge.net/DTD/sodipodi-0.dtd"
   xmlns="http://www.w3.org/2000/svg"
   xmlns:svg="http://www.w3.org/2000/svg"><sodipodi:namedview
   id="namedview386"
   pagecolor="#ffffff"
   bordercolor="#666666"
   borderopacity="1.0"
   inkscape:showpageshadow="2"
   inkscape:pageopacity="0.0"
   inkscape:pagecheckerboard="0"
   inkscape:deskcolor="#d1d1d1"
   showgrid="false"
   inkscape:zoom="0.42822266"
   inkscape:cx="628.17788"
   inkscape:cy="769.45952"
   inkscape:window-width="2560"
   inkscape:window-height="999"
   inkscape:window-x="0"
   inkscape:window-y="25"
   inkscape:window-maximized="1"
   inkscape:current-layer="Layer_x0020_1" />
 <defs
   id="defs368">
  <style
   type="text/css"
   id="style366">
   <![CDATA[
    .fil2 {fill:none}
    .fil0 {fill:#212121;fill-rule:nonzero}
    .fil1 {fill:#66BB6A;fill-rule:nonzero}
   ]]>
  </style>
 </defs>
 <g
   id="Layer_x0020_1"
   inkscape:label="Layer 1"
   inkscape:groupmode="layer"
   transform="translate(-397.179,-255.999)">
  <metadata
   id="CorelCorpID_0Corel-Layer" />
  <path
   class="fil0"
   d="m 421.179,255.999 h 1205.64 c 13.2543,0 24,10.7457 24,24 v 1488 c 0,13.2543 -10.7457,24 -24,24 H 421.179 c -13.2543,0 -24,-10.7457 -24,-24 v -1488 c 0,-13.2543 10.7457,-24 24,-24 z m 1181.64,48 H 445.179 v 1440 h 1157.64 z"
   id="path371" />
  <path
   class="fil0"
   d="m 533.696,366.975 h 980.61 c 13.2543,0 24,10.7457 24,24 v 1266.05 c 0,13.2543 -10.7457,24 -24,24 h -980.61 c -13.2543,0 -24,-10.7457 -24,-24 V 390.975 c 0,-13.2543 10.7457,-24 24,-24 z m 956.61,48 h -932.61 v 1218.05 h 932.61 z"
   id="path373" />
  <g
   id="_475132704">
   <polygon
   id="_475133760"
   class="fil1"
   points="639.997,1017.96 1408,1017.96 1408,1065.96 639.997,1065.96 " />
   <polygon
   id="_475132968"
   class="fil1"
   points="639.997,1246.02 1408,1246.02 1408,1294.02 639.997,1294.02 " />
   <polygon
   id="_475133184"
   class="fil1"
   points="639.997,1474.07 1408,1474.07 1408,1522.07 639.997,1522.07 " />
   <polygon
   id="_475133160"
   class="fil1"
   points="639.997,771.942 1408,771.942 1408,819.942 639.997,819.942 " />
   <polygon
   id="_475133280"
   class="fil1"
   points="639.997,525.925 1408,525.925 1408,573.925 639.997,573.925 " />
  </g>
 </g>
 <rect
   class="fil2"
   width="2048"
   height="2048"
   id="rect382"
   x="-397.17899"
   y="-255.99899" />
</svg>
