<?xml version="1.0" encoding="UTF-8" standalone="no"?>
<!-- Creator: CorelDRAW -->

<svg
   xml:space="preserve"
   width="5.1199999in"
   height="5.1199999in"
   style="clip-rule:evenodd;fill-rule:evenodd;image-rendering:optimizeQuality;shape-rendering:geometricPrecision;text-rendering:geometricPrecision"
   viewBox="0 0 5.1199998 5.1199998"
   version="1.1"
   id="svg207"
   sodipodi:docname="reshot-icon-number-theory-V9P8Y6NDZ4.svg"
   inkscape:version="1.2.2 (b0a8486, 2022-12-01)"
   xmlns:inkscape="http://www.inkscape.org/namespaces/inkscape"
   xmlns:sodipodi="http://sodipodi.sourceforge.net/DTD/sodipodi-0.dtd"
   xmlns="http://www.w3.org/2000/svg"
   xmlns:svg="http://www.w3.org/2000/svg"><sodipodi:namedview
   id="namedview209"
   pagecolor="#ffffff"
   bordercolor="#666666"
   borderopacity="1.0"
   inkscape:showpageshadow="2"
   inkscape:pageopacity="0.0"
   inkscape:pagecheckerboard="0"
   inkscape:deskcolor="#d1d1d1"
   inkscape:document-units="in"
   showgrid="false"
   inkscape:zoom="1.3381971"
   inkscape:cx="247.72136"
   inkscape:cy="245.85317"
   inkscape:window-width="1627"
   inkscape:window-height="928"
   inkscape:window-x="0"
   inkscape:window-y="25"
   inkscape:window-maximized="0"
   inkscape:current-layer="Layer_x0020_1" />
 <defs
   id="defs197">
  <style
   type="text/css"
   id="style195">
   <![CDATA[
    .fil2 {fill:none}
    .fil1 {fill:#424242}
    .fil0 {fill:#64B5F6}
   ]]>
  </style>
 </defs>
 <g
   id="Layer_x0020_1"
   inkscape:label="Layer 1"
   inkscape:groupmode="layer"
   transform="translate(-0.853325,-0.853331)">
  <metadata
   id="CorelCorpID_0Corel-Layer" />
  <path
   class="fil0"
   d="m 1.54898,0.853331 h 3.72105 c 0.386811,0 0.703295,0.316484 0.703295,0.703295 v 3.71341 c 0,0.386811 -0.316484,0.703295 -0.703295,0.703295 H 1.55662 c -0.386811,0 -0.703295,-0.316484 -0.703295,-0.703295 v -3.72105 c 0,-0.38261 0.313043,-0.695654 0.695654,-0.695654 z M 2.260972,1.71217 V 1.569225 H 1.643259 V 1.747993 H 2.01942 C 1.942093,1.843946 1.885696,1.934036 1.850046,2.018103 1.814223,2.102343 1.788156,2.206627 1.771483,2.330949 H 1.982534 C 1.989444,2.241563 2.002928,2.16424 2.022971,2.098618 2.048325,2.014551 2.082735,1.938114 2.126361,1.869484 2.162365,1.813082 2.207239,1.76059 2.260971,1.712169 Z M 3.357302,1.850863 3.346479,2.001965 C 3.375562,1.993805 3.39844,1.989552 3.41494,1.989552 c 0.031209,0 0.055858,0.00975 0.07413,0.029083 0.018091,0.019508 0.027315,0.046823 0.027315,0.082114 0,0.034583 -0.00958,0.062421 -0.028382,0.083177 C 3.469204,2.204674 3.445444,2.215139 3.417062,2.215139 3.390105,2.215139 3.367763,2.206809 3.350385,2.190486 3.332826,2.173994 3.319881,2.144372 3.311542,2.101813 L 3.100136,2.129833 C 3.113975,2.177361 3.133833,2.216738 3.159549,2.248124 3.185443,2.279341 3.218254,2.303285 3.258336,2.3196 3.298419,2.335738 3.353041,2.343895 3.42221,2.343895 c 0.071118,0 0.128402,-0.010996 0.172028,-0.032984 C 3.637864,2.288919 3.671388,2.257529 3.69462,2.216915 3.717675,2.17612 3.72938,2.133738 3.72938,2.089399 3.72938,2.053931 3.72229,2.023604 3.70827,1.998242 3.694266,1.972699 3.674581,1.952132 3.649392,1.936521 3.63379,1.926941 3.611266,1.918434 3.581825,1.911159 3.618183,1.89112 3.645317,1.867706 3.663408,1.840931 3.681317,1.814325 3.690365,1.784533 3.690365,1.751545 3.690365,1.695506 3.668192,1.648856 3.623857,1.611793 3.579518,1.57473 3.507692,1.556281 3.4082,1.556281 3.321653,1.556281 3.254787,1.573309 3.20744,1.607179 3.160086,1.641057 3.12816,1.690006 3.111487,1.753671 L 3.311542,1.789498 C 3.317222,1.751722 3.327684,1.725293 3.34329,1.710222 3.358896,1.695328 3.379113,1.687694 3.404117,1.687694 c 0.024299,0 0.043272,0.00692 0.05711,0.020756 0.013831,0.013831 0.020744,0.032449 0.020744,0.055685 0,0.024118 -0.00922,0.045228 -0.027661,0.062783 -0.018622,0.017732 -0.041677,0.026598 -0.06952,0.026598 -0.00657,0 -0.015606,-8.819e-4 -0.027488,-0.00265 z M 4.633262,1.86221 C 4.648514,1.884029 4.672636,1.903887 4.705978,1.921446 4.662702,1.93847 4.6306,1.962414 4.609852,1.993454 4.589104,2.024489 4.578639,2.062261 4.578639,2.10695 c 0,0.045764 0.011173,0.087264 0.033335,0.124154 0.022177,0.037059 0.054453,0.065264 0.097016,0.08424 0.042748,0.01915 0.104283,0.028551 0.184976,0.028551 0.043098,0 0.083531,-0.00426 0.121492,-0.012768 C 5.05323,2.322797 5.084974,2.309489 5.110517,2.291403 5.135871,2.27349 5.157332,2.24795 5.174891,2.214785 5.192454,2.181793 5.201143,2.146151 5.201143,2.108021 5.201143,2.06847 5.191033,2.03247 5.170635,2.000013 5.150415,1.967383 5.119733,1.941308 5.078411,1.921446 5.109628,1.900694 5.132505,1.879233 5.147045,1.857068 5.166561,1.827269 5.176132,1.795174 5.176132,1.760942 5.176132,1.70206 5.151837,1.653288 5.103246,1.61445 5.054474,1.575611 4.979277,1.556281 4.877474,1.556281 c -0.076969,0 -0.138866,0.01561 -0.185508,0.046642 -0.059945,0.040618 -0.089917,0.09276 -0.089917,0.156421 0,0.038847 0.010465,0.073075 0.031213,0.102866 z m 0.156425,0.237472 c 0,-0.035291 0.00975,-0.063315 0.02926,-0.084063 0.019512,-0.020929 0.042567,-0.031216 0.068815,-0.031216 0.026784,0 0.050189,0.010646 0.070406,0.032283 0.02022,0.021457 0.030504,0.048949 0.030504,0.082469 0,0.033339 -0.010106,0.060831 -0.03015,0.082465 C 4.938305,2.203258 4.915605,2.214077 4.89042,2.214077 4.863995,2.214077 4.840762,2.203431 4.820192,2.182156 4.799794,2.160872 4.789688,2.133384 4.789688,2.099683 Z m 0.036,-0.264071 C 4.809195,1.819469 4.801037,1.79819 4.801037,1.771942 c 0,-0.025717 0.00798,-0.04665 0.024122,-0.06261 0.016134,-0.016138 0.037063,-0.024295 0.062602,-0.024295 0.025366,0 0.04611,0.00833 0.062425,0.024831 0.016323,0.016319 0.024476,0.037776 0.024476,0.06402 0,0.025366 -0.0078,0.045937 -0.023409,0.061898 -0.01561,0.015961 -0.03565,0.023945 -0.059764,0.023945 -0.027496,0 -0.049307,-0.00816 -0.065803,-0.024118 z m 0.226386,1.22371 C 5.005963,3.03325 4.944782,3.020132 4.868514,3.020132 4.805203,3.020132 4.75253,3.030766 4.710671,3.052049 4.66864,3.073336 4.635832,3.104726 4.611884,3.146403 4.587947,3.187903 4.576065,3.234013 4.576065,3.28456 c 0,0.07413 0.023409,0.135496 0.070413,0.183909 0.046992,0.048595 0.104453,0.072716 0.172732,0.072716 0.034941,0 0.065799,-0.00603 0.092579,-0.018091 C 4.938391,3.510858 4.964285,3.491881 4.989647,3.46581 4.982727,3.547566 4.972269,3.601133 4.95843,3.626487 4.939454,3.660715 4.912855,3.67792 4.878977,3.67792 4.860001,3.67792 4.843867,3.67189 4.830737,3.659652 4.817438,3.647593 4.808213,3.626841 4.80254,3.597404 L 4.592201,3.623829 c 0.012413,0.04061 0.030327,0.074307 0.053559,0.101272 0.023055,0.02713 0.052319,0.047528 0.087264,0.061713 0.034933,0.014012 0.082815,0.020925 0.143291,0.020925 0.102689,0 0.18285,-0.031921 0.240665,-0.095768 C 5.174795,3.647947 5.203708,3.547211 5.203708,3.409766 5.203708,3.316301 5.189877,3.240923 5.162385,3.183998 5.134897,3.127065 5.098003,3.085388 5.05207,3.059317 Z M 4.950632,3.187195 c 0.020925,0.023405 0.031209,0.055689 0.031209,0.096827 0,0.040614 -0.00993,0.071658 -0.029614,0.093469 C 4.932538,3.399479 4.907711,3.410302 4.877916,3.410302 4.849184,3.410302 4.825247,3.399129 4.805912,3.376605 4.786759,3.354081 4.77718,3.321448 4.77718,3.278884 4.77718,3.236671 4.7864,3.204923 4.80503,3.183825 4.823467,3.162719 4.846707,3.152081 4.8749,3.152081 c 0.029795,0 0.05498,0.011705 0.075732,0.035114 z M 3.633002,3.801274 V 3.0266005 H 3.457959 c -0.022524,0.047709 -0.053744,0.087969 -0.093465,0.120598 -0.039905,0.032457 -0.095776,0.060303 -0.167953,0.083531 v 0.173626 C 3.24549,3.3894615 3.2861,3.3738515 3.318384,3.3575405 3.350833,3.3412255 3.384356,3.3199425 3.418939,3.2936905 v 0.507583 z M 2.265942,3.543849 c 0,-0.074488 -0.023409,-0.136031 -0.070409,-0.184445 -0.047,-0.048595 -0.10428,-0.072716 -0.172209,-0.072716 -0.034941,0 -0.065795,0.00603 -0.092579,0.018445 C 1.904147,3.317365 1.878076,3.336349 1.852891,3.362058 1.859451,3.280306 1.869741,3.22692 1.883572,3.201912 1.902552,3.167329 1.929328,3.149951 1.96356,3.149951 c 0.018976,0 0.03511,0.00603 0.048059,0.018268 0.012945,0.012055 0.022173,0.032811 0.027846,0.062248 L 2.249804,3.204573 C 2.237741,3.163608 2.220009,3.129734 2.196776,3.10277 2.173721,3.07564 2.144457,3.055242 2.109343,3.041057 2.074048,3.027045 2.026158,3.020132 1.965682,3.020132 1.863174,3.020132 1.782836,3.052049 1.725021,3.1159 1.667202,3.179924 1.638297,3.28066 1.638297,3.418101 c 0,0.093823 0.013835,0.169374 0.041327,0.226307 0.027488,0.056925 0.064374,0.098425 0.110307,0.124496 0.04611,0.025894 0.107299,0.038839 0.183563,0.038839 0.063311,0 0.11598,-0.010634 0.158197,-0.031921 C 2.173722,3.754538 2.206707,3.723149 2.230297,3.681472 2.254061,3.639972 2.265943,3.594039 2.265943,3.54385 Z M 2.036269,3.4512658 c 0.019335,0.022528 0.029091,0.055339 0.029091,0.098256 0,0.042031 -0.0094,0.073425 -0.028028,0.094528 -0.018795,0.021284 -0.04185,0.031744 -0.069693,0.031744 -0.03015,0 -0.055516,-0.011705 -0.07626,-0.035114 -0.020756,-0.023232 -0.031221,-0.055689 -0.031221,-0.096831 0,-0.040614 0.00994,-0.071654 0.029799,-0.093465 0.020043,-0.021815 0.044693,-0.032811 0.07413,-0.032811 0.028732,0 0.052854,0.01135 0.072182,0.033693 z m 0.153059,1.04444 H 2.004883 L 1.61932,4.9539818 v 0.17398 h 0.385563 v 0.142417 H 2.189328 V 5.1279618 H 2.284919 V 4.9637338 H 2.189328 Z m -0.184445,0.468028 h -0.20378 l 0.20378,-0.239421 z m 1.18784,-0.468028 -0.067039,0.409504 0.180189,0.025894 c 0.017028,-0.018976 0.032634,-0.032102 0.046823,-0.039551 0.018976,-0.00993 0.038839,-0.014894 0.059232,-0.014894 0.032102,0 0.057996,0.010461 0.077327,0.031567 0.019508,0.021102 0.029083,0.054445 0.029083,0.09985 0,0.044339 -0.00957,0.077681 -0.028728,0.100024 -0.019327,0.02235 -0.04363,0.033524 -0.073071,0.033524 -0.026244,0 -0.048949,-0.00905 -0.068102,-0.026787 C 3.329461,5.0969318 3.317402,5.0708568 3.312083,5.0366318 L 3.09802,5.0600408 c 0.010465,0.035646 0.023409,0.065437 0.039016,0.089386 0.015606,0.02376 0.036004,0.045221 0.061016,0.064016 0.025177,0.018984 0.055681,0.033165 0.091508,0.042744 0.035823,0.00941 0.078921,0.014193 0.12911,0.014193 0.069878,0 0.127339,-0.011882 0.172209,-0.035831 0.044874,-0.023941 0.079457,-0.058524 0.103929,-0.103921 0.024476,-0.045406 0.036709,-0.092579 0.036709,-0.141886 0,-0.069874 -0.02376,-0.127866 -0.071291,-0.173976 -0.04735,-0.04611 -0.109248,-0.069165 -0.185508,-0.069165 -0.022528,0 -0.045228,0.00283 -0.068284,0.00833 -0.023055,0.0055 -0.046291,0.013831 -0.069878,0.025008 l 0.018268,-0.114394 h 0.340339 v -0.168839 z m 1.65354,0.402055 c -0.101449,0.075197 -0.170618,0.140465 -0.2075,0.195618 -0.03689,0.055339 -0.059059,0.114213 -0.066335,0.177 H 5.207341 V 5.0978118 H 4.876943 c 0.019327,-0.018976 0.03635,-0.034406 0.050717,-0.04611 0.01437,-0.011878 0.042748,-0.032453 0.085488,-0.061898 0.071646,-0.050543 0.12113,-0.097004 0.14826,-0.13922 0.027138,-0.042209 0.040795,-0.086547 0.040795,-0.133012 0,-0.043626 -0.011882,-0.083 -0.035646,-0.118291 C 5.142966,4.5641708 5.110336,4.5380918 5.06901,4.5210678 5.027514,4.5042218 4.969514,4.4957058 4.895211,4.4957058 c -0.071472,0 -0.127343,0.00887 -0.167602,0.026779 -0.040437,0.017736 -0.07165,0.043453 -0.093819,0.076795 -0.022165,0.03352 -0.037421,0.079984 -0.045756,0.139575 l 0.211933,0.017201 c 0.00604,-0.043094 0.017563,-0.073067 0.034591,-0.089917 0.017197,-0.01702 0.039193,-0.025531 0.066327,-0.025531 0.025894,0 0.047531,0.00833 0.064732,0.024646 0.017024,0.016496 0.025713,0.036358 0.025713,0.059591 0,0.021461 -0.00869,0.044161 -0.026071,0.068102 -0.017378,0.023764 -0.056925,0.058882 -0.118996,0.104814 z"
   id="path200" />
  <path
   class="fil1"
   d="m 1.54898,1.17333 c -0.20598,0 -0.375657,0.169677 -0.375657,0.375657 v 3.72105 c 0,0.210181 0.173118,0.383299 0.383299,0.383299 h 3.71341 c 0.210181,0 0.383299,-0.173118 0.383299,-0.383299 v -3.71341 c 0,-0.210181 -0.173118,-0.383299 -0.383299,-0.383299 H 1.548982 Z M 2.260972,1.712173 V 1.569228 H 1.643259 V 1.747996 H 2.01942 C 1.942093,1.843949 1.885696,1.934039 1.850046,2.018106 1.814223,2.102346 1.788156,2.20663 1.771483,2.330952 H 1.982534 C 1.989444,2.241566 2.002928,2.164243 2.022971,2.098621 2.048325,2.014554 2.082735,1.938117 2.126361,1.869487 2.162365,1.813085 2.207239,1.760593 2.260971,1.712172 Z M 3.357302,1.850866 3.346479,2.001968 C 3.375562,1.993808 3.39844,1.989555 3.41494,1.989555 c 0.031209,0 0.055858,0.00975 0.07413,0.029083 0.018091,0.019508 0.027315,0.046823 0.027315,0.082114 0,0.034583 -0.00958,0.062421 -0.028382,0.083177 C 3.469204,2.204677 3.445444,2.215142 3.417062,2.215142 3.390105,2.215142 3.367763,2.206812 3.350385,2.190489 3.332826,2.173997 3.319881,2.144375 3.311542,2.101816 l -0.211406,0.02802 c 0.013839,0.047528 0.033697,0.086905 0.059413,0.118291 0.025894,0.031217 0.058705,0.055161 0.098787,0.071476 0.040083,0.016138 0.094705,0.024295 0.163874,0.024295 0.071118,0 0.128402,-0.010996 0.172028,-0.032984 C 3.637864,2.288922 3.671388,2.257532 3.69462,2.216918 3.717675,2.176123 3.72938,2.133741 3.72938,2.089402 3.72938,2.053934 3.72229,2.023607 3.70827,1.998245 3.694266,1.972702 3.674581,1.952135 3.649392,1.936524 3.63379,1.926944 3.611266,1.918437 3.581825,1.911162 3.618183,1.891123 3.645317,1.867709 3.663408,1.840934 3.681317,1.814328 3.690365,1.784536 3.690365,1.751548 3.690365,1.695509 3.668192,1.648859 3.623857,1.611796 3.579518,1.574733 3.507692,1.556284 3.4082,1.556284 3.321653,1.556284 3.254787,1.573312 3.20744,1.607182 3.160086,1.64106 3.12816,1.690009 3.111487,1.753674 L 3.311542,1.789501 C 3.317222,1.751725 3.327684,1.725296 3.34329,1.710225 3.358896,1.695331 3.379113,1.687697 3.404117,1.687697 c 0.024299,0 0.043272,0.00692 0.05711,0.020756 0.013831,0.013831 0.020744,0.032449 0.020744,0.055685 0,0.024118 -0.00922,0.045228 -0.027661,0.062783 -0.018622,0.017732 -0.041677,0.026598 -0.06952,0.026598 -0.00657,0 -0.015606,-8.819e-4 -0.027488,-0.00265 z m 1.27596,0.011347 C 4.648514,1.884032 4.672636,1.90389 4.705978,1.921449 4.662702,1.938473 4.6306,1.962417 4.609852,1.993457 4.589104,2.024492 4.578639,2.062264 4.578639,2.106953 c 0,0.045764 0.011173,0.087264 0.033335,0.124154 0.022177,0.037059 0.054453,0.065264 0.097016,0.08424 0.042748,0.01915 0.104283,0.028551 0.184976,0.028551 0.043098,0 0.083531,-0.00426 0.121492,-0.012768 C 5.05323,2.3228 5.084974,2.309492 5.110517,2.291406 5.135871,2.273493 5.157332,2.247953 5.174891,2.214788 5.192454,2.181796 5.201143,2.146154 5.201143,2.108024 5.201143,2.068473 5.191033,2.032473 5.170635,2.000016 5.150415,1.967386 5.119733,1.941311 5.078411,1.921449 5.109628,1.900697 5.132505,1.879236 5.147045,1.857071 5.166561,1.827272 5.176132,1.795177 5.176132,1.760945 5.176132,1.702063 5.151837,1.653291 5.103246,1.614453 5.054474,1.575614 4.979277,1.556284 4.877474,1.556284 c -0.076969,0 -0.138866,0.01561 -0.185508,0.046642 -0.059945,0.040618 -0.089917,0.09276 -0.089917,0.156421 0,0.038847 0.010465,0.073075 0.031213,0.102866 z m 0.156425,0.237472 c 0,-0.035291 0.00975,-0.063315 0.02926,-0.084063 0.019512,-0.020929 0.042567,-0.031216 0.068815,-0.031216 0.026784,0 0.050189,0.010646 0.070406,0.032283 0.02022,0.021457 0.030504,0.048949 0.030504,0.082469 0,0.033339 -0.010106,0.060831 -0.03015,0.082465 C 4.938305,2.203261 4.915605,2.21408 4.89042,2.21408 4.863995,2.21408 4.840762,2.203434 4.820192,2.182159 4.799794,2.160875 4.789688,2.133387 4.789688,2.099686 Z m 0.036,-0.264071 C 4.809195,1.819472 4.801037,1.798193 4.801037,1.771945 c 0,-0.025717 0.00798,-0.04665 0.024122,-0.06261 C 4.841293,1.693197 4.862222,1.68504 4.887761,1.68504 c 0.025366,0 0.04611,0.00833 0.062425,0.024831 0.016323,0.016319 0.024476,0.037776 0.024476,0.06402 0,0.025366 -0.0078,0.045937 -0.023409,0.061898 -0.01561,0.015961 -0.03565,0.023945 -0.059764,0.023945 -0.027496,0 -0.049307,-0.00816 -0.065803,-0.024118 z m 0.226386,1.22371 C 5.005963,3.033253 4.944782,3.020135 4.868514,3.020135 4.805203,3.020135 4.75253,3.030769 4.710671,3.052052 4.66864,3.073339 4.635832,3.104729 4.611884,3.146406 c -0.023937,0.0415 -0.035819,0.08761 -0.035819,0.138157 0,0.07413 0.023409,0.135496 0.070413,0.183909 0.046992,0.048595 0.104453,0.072716 0.172732,0.072716 0.034941,0 0.065799,-0.00603 0.092579,-0.018091 C 4.938391,3.510861 4.964285,3.491884 4.989647,3.465813 4.982727,3.547569 4.972269,3.601136 4.95843,3.62649 4.939454,3.660718 4.912855,3.677923 4.878977,3.677923 c -0.018976,0 -0.03511,-0.00603 -0.04824,-0.018268 C 4.817438,3.647596 4.808213,3.626844 4.80254,3.597407 L 4.592201,3.623832 c 0.012413,0.04061 0.030327,0.074307 0.053559,0.101272 0.023055,0.02713 0.052319,0.047528 0.087264,0.061713 0.034933,0.014012 0.082815,0.020925 0.143291,0.020925 0.102689,0 0.18285,-0.031921 0.240665,-0.095768 C 5.174795,3.64795 5.203708,3.547214 5.203708,3.409769 5.203708,3.316304 5.189877,3.240926 5.162385,3.184001 5.134897,3.127068 5.098003,3.085391 5.05207,3.05932 Z M 4.950632,3.187198 c 0.020925,0.023405 0.031209,0.055689 0.031209,0.096827 0,0.040614 -0.00993,0.071658 -0.029614,0.093469 C 4.932538,3.399482 4.907711,3.410305 4.877916,3.410305 4.849184,3.410305 4.825247,3.399132 4.805912,3.376608 4.786759,3.354084 4.77718,3.321451 4.77718,3.278888 4.77718,3.236675 4.7864,3.204927 4.80503,3.183829 4.823467,3.162723 4.846707,3.152085 4.8749,3.152085 c 0.029795,0 0.05498,0.011705 0.075732,0.035113 z M 3.633002,3.801277 V 3.0266035 H 3.457959 c -0.022524,0.047709 -0.053744,0.087969 -0.093465,0.120598 -0.039905,0.032457 -0.095776,0.060303 -0.167953,0.083531 v 0.173626 C 3.24549,3.3894645 3.2861,3.3738545 3.318384,3.3575435 3.350833,3.3412285 3.384356,3.3199455 3.418939,3.2936935 v 0.507583 z M 2.265942,3.543852 c 0,-0.074488 -0.023409,-0.136031 -0.070409,-0.184445 -0.047,-0.048595 -0.10428,-0.072716 -0.172209,-0.072716 -0.034941,0 -0.065795,0.00603 -0.092579,0.018445 C 1.904147,3.317368 1.878076,3.336352 1.852891,3.362061 1.859451,3.280309 1.869741,3.226923 1.883572,3.201915 1.902552,3.167332 1.929328,3.149954 1.96356,3.149954 c 0.018976,0 0.03511,0.00603 0.048059,0.018268 0.012945,0.012055 0.022173,0.032811 0.027846,0.062248 L 2.249804,3.204576 C 2.237741,3.163611 2.220009,3.129737 2.196776,3.102773 2.173721,3.075643 2.144457,3.055245 2.109343,3.04106 2.074048,3.027048 2.026158,3.020135 1.965682,3.020135 c -0.102508,0 -0.182846,0.031917 -0.240661,0.095768 -0.057819,0.064024 -0.086724,0.16476 -0.086724,0.302201 0,0.093823 0.013835,0.169374 0.041327,0.226307 0.027488,0.056925 0.064374,0.098425 0.110307,0.124496 0.04611,0.025894 0.107299,0.038839 0.183563,0.038839 0.063311,0 0.11598,-0.010634 0.158197,-0.031921 C 2.173722,3.754541 2.206707,3.723152 2.230297,3.681475 2.254061,3.639975 2.265943,3.594042 2.265943,3.543853 Z M 2.036269,3.4512688 c 0.019335,0.022528 0.029091,0.055339 0.029091,0.098256 0,0.042031 -0.0094,0.073425 -0.028028,0.094528 -0.018795,0.021284 -0.04185,0.031744 -0.069693,0.031744 -0.03015,0 -0.055516,-0.011705 -0.07626,-0.035114 -0.020756,-0.023232 -0.031221,-0.055689 -0.031221,-0.096831 0,-0.040614 0.00994,-0.071654 0.029799,-0.093465 0.020043,-0.021815 0.044693,-0.032811 0.07413,-0.032811 0.028732,0 0.052854,0.01135 0.072182,0.033693 z m 0.153059,1.04444 H 2.004883 L 1.61932,4.9539848 v 0.17398 h 0.385563 v 0.142417 H 2.189328 V 5.1279648 H 2.284919 V 4.9637368 H 2.189328 Z m -0.184445,0.468028 h -0.20378 l 0.20378,-0.239421 z m 1.18784,-0.468028 -0.067039,0.409504 0.180189,0.025894 c 0.017028,-0.018976 0.032634,-0.032102 0.046823,-0.039551 0.018976,-0.00993 0.038839,-0.014894 0.059232,-0.014894 0.032102,0 0.057996,0.010461 0.077327,0.031567 0.019508,0.021102 0.029083,0.054445 0.029083,0.09985 0,0.044339 -0.00957,0.077681 -0.028728,0.100024 -0.019327,0.02235 -0.04363,0.033524 -0.073071,0.033524 -0.026244,0 -0.048949,-0.00905 -0.068102,-0.026787 C 3.329461,5.0969338 3.317402,5.0708598 3.312083,5.0366348 L 3.09802,5.0600438 c 0.010465,0.035646 0.023409,0.065437 0.039016,0.089386 0.015606,0.02376 0.036004,0.04522 0.061016,0.064016 0.025177,0.018984 0.055681,0.033165 0.091508,0.042744 0.035823,0.00941 0.078921,0.014193 0.12911,0.014193 0.069878,0 0.127339,-0.011882 0.172209,-0.035831 0.044874,-0.023941 0.079457,-0.058524 0.103929,-0.103921 0.024476,-0.045406 0.036709,-0.092579 0.036709,-0.141886 0,-0.069874 -0.02376,-0.127866 -0.071291,-0.173976 -0.04735,-0.04611 -0.109248,-0.069165 -0.185508,-0.069165 -0.022528,0 -0.045228,0.00283 -0.068284,0.00833 -0.023055,0.0055 -0.046291,0.013831 -0.069878,0.025008 l 0.018268,-0.114394 h 0.340339 v -0.168839 z m 1.65354,0.402055 c -0.101449,0.075197 -0.170618,0.140465 -0.2075,0.195618 -0.03689,0.055339 -0.059059,0.114213 -0.066335,0.177 H 5.207341 V 5.0978148 H 4.876943 c 0.019327,-0.018976 0.03635,-0.034406 0.050717,-0.04611 0.01437,-0.011878 0.042748,-0.032453 0.085488,-0.061898 0.071646,-0.050543 0.12113,-0.097004 0.14826,-0.13922 0.027138,-0.042209 0.040795,-0.086547 0.040795,-0.133012 0,-0.043626 -0.011882,-0.083 -0.035646,-0.118291 C 5.142966,4.5641738 5.110336,4.5380948 5.06901,4.5210708 5.027514,4.5042238 4.969514,4.4957088 4.895211,4.4957088 c -0.071472,0 -0.127343,0.00887 -0.167602,0.026779 -0.040437,0.017736 -0.07165,0.043453 -0.093819,0.076795 -0.022165,0.03352 -0.037421,0.079984 -0.045756,0.139575 l 0.211933,0.017201 c 0.00604,-0.043095 0.017563,-0.073067 0.034591,-0.089917 0.017197,-0.01702 0.039193,-0.025532 0.066327,-0.025532 0.025894,0 0.047531,0.00833 0.064732,0.024646 0.017024,0.016496 0.025713,0.036358 0.025713,0.059591 0,0.021461 -0.00869,0.044161 -0.026071,0.068102 -0.017378,0.023764 -0.056925,0.058882 -0.118996,0.104815 z"
   id="path202" />
 </g>
 <rect
   class="fil2"
   width="6.8266602"
   height="6.8266602"
   id="rect205"
   x="-0.85332501"
   y="-0.85333103" />
</svg>
