<?xml version="1.0" encoding="UTF-8" standalone="no"?>
<!-- Creator: CorelDRAW -->

<svg
   xml:space="preserve"
   width="6.82666in"
   height="6.82666in"
   style="shape-rendering:geometricPrecision; text-rendering:geometricPrecision; image-rendering:optimizeQuality; fill-rule:evenodd; clip-rule:evenodd"
   viewBox="0 0 6.82666 6.82666"
   version="1.1"
   id="svg34"
   sodipodi:docname="plant.svg"
   inkscape:version="1.3 (0e150ed, 2023-07-21)"
   xmlns:inkscape="http://www.inkscape.org/namespaces/inkscape"
   xmlns:sodipodi="http://sodipodi.sourceforge.net/DTD/sodipodi-0.dtd"
   xmlns="http://www.w3.org/2000/svg"
   xmlns:svg="http://www.w3.org/2000/svg"><sodipodi:namedview
   id="namedview34"
   pagecolor="#ffffff"
   bordercolor="#000000"
   borderopacity="0.25"
   inkscape:showpageshadow="2"
   inkscape:pageopacity="0.0"
   inkscape:pagecheckerboard="0"
   inkscape:deskcolor="#d1d1d1"
   inkscape:document-units="in"
   inkscape:zoom="1.185609"
   inkscape:cx="327.67969"
   inkscape:cy="327.67969"
   inkscape:window-width="2560"
   inkscape:window-height="942"
   inkscape:window-x="0"
   inkscape:window-y="25"
   inkscape:window-maximized="1"
   inkscape:current-layer="Layer_x0020_1" />&#10; <defs
   id="defs1">&#10;  <style
   type="text/css"
   id="style1">&#10;   <![CDATA[
    .fil2 {fill:none}
    .fil4 {fill:#558B2F}
    .fil3 {fill:#689F38}
    .fil1 {fill:#D4E157}
    .fil0 {fill:#DCE775}
    .fil5 {fill:#33691E;fill-rule:nonzero}
   ]]>&#10;  </style>&#10;   <clipPath
   id="id0">&#10;    <path
   d="M3.41333 -3.93701e-006c1.88513,0 3.41333,1.5282 3.41333,3.41333 0,1.88513 -1.5282,3.41333 -3.41333,3.41333 -1.88513,0 -3.41333,-1.5282 -3.41333,-3.41333 0,-1.88513 1.5282,-3.41333 3.41333,-3.41333z"
   id="path1" />&#10;   </clipPath>&#10; </defs>&#10; <g
   id="Layer_x0020_1"
   inkscape:label="Layer 1">&#10;  <metadata
   id="CorelCorpID_0Corel-Layer" />&#10;  <path
   class="fil0"
   d="M3.41333 -3.93701e-006c1.88513,0 3.41333,1.5282 3.41333,3.41333 0,1.88513 -1.5282,3.41333 -3.41333,3.41333 -1.88513,0 -3.41333,-1.5282 -3.41333,-3.41333 0,-1.88513 1.5282,-3.41333 3.41333,-3.41333z"
   id="path2" />&#10;  <g
   style="clip-path:url(#id0)"
   clip-path="url(#id0)"
   id="g3">&#10;   <g
   id="_457168808">&#10;    <g
   id="g2">&#10;     <polygon
   id="_4546225121"
   class="fil1"
   points="3.31573,1.56948 7.102,5.35575 7.10702,5.36128 7.11151,5.36728 7.11541,5.3737 7.11869,5.38052 7.12131,5.38767 7.12323,5.39514 7.12441,5.40288 7.12481,5.41084 3.33855,1.62457 3.33815,1.61661 3.33696,1.60887 3.33504,1.6014 3.33243,1.59424 3.32915,1.58743 3.32524,1.58101 3.32076,1.57501 " />&#10;     <polygon
   id="_454622920"
   class="fil1"
   points="3.03962,2.88077 6.82589,6.66704 6.81752,6.68169 6.80835,6.69584 6.7984,6.70945 6.78766,6.72248 6.77614,6.73489 6.76386,6.74664 6.75082,6.75769 6.73703,6.768 6.7225,6.77754 6.70723,6.78625 6.69124,6.7941 6.67454,6.80106 6.65712,6.80707 6.63901,6.81211 6.6202,6.81613 6.60071,6.81909 6.58055,6.82095 6.55972,6.82167 6.53824,6.82121 6.5161,6.81954 6.49332,6.8166 6.46991,6.81236 6.44587,6.80679 6.42122,6.79983 6.39596,6.79146 6.37011,6.78163 6.34365,6.7703 6.31662,6.75743 6.28902,6.74298 6.26084,6.72691 6.23211,6.70918 6.20283,6.68976 2.41656,2.90348 2.44584,2.92291 2.47457,2.94064 2.50275,2.9567 2.53035,2.97115 2.55739,2.98402 2.58384,2.99535 2.6097,3.00519 2.63496,3.01356 2.65961,3.02052 2.68364,3.02609 2.70706,3.03033 2.72983,3.03326 2.75197,3.03494 2.77346,3.0354 2.79428,3.03468 2.81444,3.03282 2.83393,3.02986 2.85274,3.02584 2.87085,3.0208 2.88827,3.01479 2.90497,3.00783 2.92096,2.99998 2.93623,2.99126 2.95076,2.98173 2.96455,2.97142 2.97759,2.96037 2.98987,2.94861 3.00139,2.9362 3.01213,2.92318 3.02209,2.90957 3.03125,2.89542 " />&#10;     <polygon
   id="_454590712"
   class="fil1"
   points="3.18274,3.01039 6.969,6.79666 6.96431,6.79262 6.95964,6.78857 6.95499,6.78453 6.95035,6.78048 6.94574,6.77642 6.94115,6.77237 6.93657,6.76831 6.932,6.76424 6.92746,6.76018 6.92293,6.75611 6.91841,6.75205 6.91391,6.74798 6.90942,6.74391 6.90494,6.73984 6.90048,6.73577 6.89603,6.7317 6.89159,6.72764 6.88716,6.72357 6.88274,6.71951 6.87833,6.71545 6.87393,6.71139 6.86953,6.70734 6.86515,6.70329 6.86076,6.69924 6.85639,6.6952 6.85202,6.69116 6.84766,6.68713 6.8433,6.6831 6.83894,6.67907 6.83459,6.67506 6.83024,6.67105 6.82589,6.66704 3.03962,2.88077 3.04397,2.88478 3.04832,2.88878 3.05267,2.8928 3.05703,2.89683 3.06139,2.90085 3.06575,2.90489 3.07012,2.90893 3.0745,2.91297 3.07888,2.91702 3.08326,2.92107 3.08766,2.92512 3.09206,2.92918 3.09647,2.93324 3.10089,2.9373 3.10532,2.94137 3.10976,2.94543 3.11421,2.9495 3.11868,2.95357 3.12315,2.95764 3.12764,2.9617 3.13214,2.96578 3.13666,2.96984 3.14119,2.97391 3.14574,2.97797 3.1503,2.98204 3.15488,2.98609 3.15947,2.99015 3.16409,2.9942 3.16872,2.99826 3.17337,3.0023 3.17804,3.00635 " />&#10;     <polygon
   id="_454590952"
   class="fil1"
   points="3.18274,4.24094 6.969,8.02721 6.96387,8.02276 6.95876,8.01831 6.95366,8.01385 6.94859,8.00939 6.94353,8.00493 6.93849,8.00046 6.93347,7.996 6.92847,7.99153 6.92348,7.98706 6.91852,7.98258 6.91356,7.97811 6.90862,7.97363 6.90369,7.96916 6.89878,7.96468 6.89388,7.96021 6.88899,7.95574 6.88411,7.95126 6.87924,7.94679 6.87439,7.94233 6.86954,7.93786 6.8647,7.9334 6.85987,7.92894 6.85505,7.92448 6.85023,7.92003 6.84542,7.91559 6.84061,7.91115 6.83581,7.90671 6.83102,7.90228 6.82623,7.89785 6.82144,7.89344 6.81665,7.88903 6.81187,7.88462 3.0256,4.09835 3.03039,4.10276 3.03517,4.10717 3.03996,4.11158 3.04475,4.11601 3.04955,4.12044 3.05435,4.12487 3.05915,4.12931 3.06396,4.13376 3.06878,4.13821 3.0736,4.14267 3.07843,4.14713 3.08327,4.15159 3.08812,4.15606 3.09298,4.16052 3.09784,4.16499 3.10272,4.16946 3.10761,4.17394 3.11251,4.17841 3.11743,4.18289 3.12235,4.18736 3.12729,4.19183 3.13225,4.19631 3.13722,4.20078 3.1422,4.20526 3.1472,4.20972 3.15222,4.21419 3.15726,4.21866 3.16232,4.22312 3.16739,4.22758 3.17249,4.23204 3.1776,4.23649 " />&#10;     <polygon
   id="_454591336"
   class="fil1"
   points="2.9718,2.47641 6.75806,6.26268 6.78105,6.28752 6.80113,6.31367 6.81835,6.34094 6.83274,6.36913 6.84436,6.39804 6.85324,6.42746 6.85941,6.45721 6.86294,6.48709 6.86385,6.51689 6.86218,6.54641 6.85798,6.57547 6.8513,6.60385 6.84217,6.63137 3.0559,2.8451 3.06503,2.81758 3.07172,2.7892 3.07591,2.76014 3.07758,2.73061 3.07667,2.70081 3.07315,2.67094 3.06697,2.64119 3.05809,2.61176 3.04647,2.58286 3.03208,2.55467 3.01486,2.5274 2.99478,2.50124 " />&#10;     <polygon
   id="_454591648"
   class="fil1"
   points="3.0256,4.09835 6.81187,7.88462 6.80231,7.90136 6.79184,7.91752 6.78046,7.93307 6.76819,7.94796 6.75504,7.96213 6.741,7.97556 6.72611,7.98819 6.71035,7.99997 6.69375,8.01086 6.67631,8.02082 6.65804,8.02979 6.63895,8.03774 6.61906,8.04461 6.59836,8.05037 6.57688,8.05496 6.55461,8.05834 6.53157,8.06046 6.50778,8.06129 6.48323,8.06076 6.45794,8.05885 6.43191,8.05549 6.40517,8.05065 6.3777,8.04428 6.34954,8.03634 6.32068,8.02677 6.29114,8.01554 6.26092,8.00259 6.23003,7.98789 6.19849,7.97138 6.1663,7.95302 6.13348,7.93277 6.10002,7.91057 2.31376,4.1243 2.34721,4.1465 2.38004,4.16675 2.41222,4.18511 2.44376,4.20162 2.47465,4.21632 2.50487,4.22927 2.53441,4.2405 2.56327,4.25007 2.59144,4.25801 2.6189,4.26438 2.64565,4.26922 2.67167,4.27257 2.69696,4.27449 2.72151,4.27502 2.74531,4.27419 2.76834,4.27207 2.79061,4.26869 2.81209,4.26409 2.83279,4.25834 2.85269,4.25147 2.87177,4.24352 2.89004,4.23455 2.90748,4.22459 2.92408,4.2137 2.93984,4.20192 2.95474,4.18929 2.96877,4.17586 2.98193,4.16169 2.9942,4.1468 3.00557,4.13125 3.01604,4.11509 " />&#10;     <polygon
   id="_454591720"
   class="fil1"
   points="2.94811,3.63636 6.73438,7.42263 6.76064,7.45101 6.78358,7.48089 6.80325,7.51205 6.8197,7.54425 6.83297,7.57728 6.84311,7.6109 6.85017,7.64489 6.8542,7.67902 6.85524,7.71307 6.85334,7.7468 6.84854,7.78 6.84091,7.81243 6.83047,7.84387 3.0442,4.05759 3.05464,4.02615 3.06228,3.99372 3.06707,3.96053 3.06897,3.9268 3.06793,3.89275 3.06391,3.85862 3.05685,3.82463 3.0467,3.79101 3.03343,3.75798 3.01698,3.72578 2.99731,3.69462 2.97437,3.66474 " />&#10;     <polygon
   id="_454591600"
   class="fil1"
   points="2.31376,4.1243 6.10002,7.91057 6.08522,7.90011 6.07039,7.88902 6.05551,7.87737 6.04056,7.86518 6.02554,7.8525 6.01043,7.83936 5.99522,7.82581 2.20895,4.03954 2.22416,4.05309 2.23928,4.06622 2.2543,4.07891 2.26924,4.09109 2.28413,4.10275 2.29896,4.11383 " />&#10;     <polygon
   id="_454592152"
   class="fil1"
   points="2.04817,3.89018 5.83443,7.67645 5.8172,7.66101 5.79969,7.64563 5.78191,7.63036 5.76384,7.61524 5.74546,7.6003 5.72677,7.58559 5.70774,7.57116 5.68837,7.55702 5.66864,7.54324 5.64854,7.52985 5.62805,7.51688 5.60716,7.50438 5.58586,7.49239 5.56414,7.48094 5.54197,7.47009 1.7557,3.68382 1.77787,3.69467 1.79959,3.70612 1.82089,3.71811 1.84178,3.73061 1.86227,3.74357 1.88237,3.75697 1.9021,3.77075 1.92148,3.78489 1.9405,3.79932 1.9592,3.81403 1.97757,3.82896 1.99565,3.84409 2.01343,3.85936 2.03093,3.87474 " />&#10;     <polygon
   id="_454591624"
   class="fil1"
   points="3.26064,5.28 7.04691,9.06627 7.03894,9.06587 7.03121,9.06469 7.02374,9.06276 7.01659,9.06015 7.00978,9.05687 7.00335,9.05296 6.99735,9.04848 3.21109,5.2622 3.21709,5.26669 3.22351,5.27059 3.23032,5.27387 3.23748,5.27649 3.24494,5.27841 3.25268,5.27959 " />&#10;     <polygon
   id="_454591792"
   class="fil1"
   points="2.41656,2.90348 6.20283,6.68976 6.18988,6.68059 6.17689,6.67089 6.16387,6.66069 6.15079,6.65002 6.13764,6.63892 6.12441,6.62743 6.11109,6.61557 6.09768,6.60339 6.08414,6.59091 6.07048,6.57818 6.05669,6.56523 6.04274,6.55209 6.02864,6.5388 6.01436,6.5254 5.9999,6.51191 5.98524,6.49838 5.97037,6.48483 5.95528,6.47131 5.93996,6.45786 5.9244,6.44449 5.90858,6.43126 5.8925,6.41819 5.87614,6.40531 5.85948,6.39267 5.84253,6.38031 5.82526,6.36824 5.80767,6.35652 5.78973,6.34517 5.77145,6.33423 5.75281,6.32373 5.73379,6.31372 5.71439,6.30422 1.92812,2.51794 1.94752,2.52744 1.96654,2.53746 1.98518,2.54796 2.00346,2.5589 2.0214,2.57025 2.03899,2.58197 2.05626,2.59404 2.07322,2.6064 2.08987,2.61904 2.10623,2.63191 2.12231,2.64498 2.13813,2.65822 2.1537,2.67159 2.16902,2.68504 2.1841,2.69856 2.19897,2.71211 2.21363,2.72564 2.22809,2.73913 2.24237,2.75253 2.25648,2.76582 2.27042,2.77896 2.28422,2.79191 2.29787,2.80464 2.31141,2.81711 2.32483,2.8293 2.33815,2.84115 2.35137,2.85265 2.36452,2.86375 2.3776,2.87442 2.39063,2.88462 2.40361,2.89432 " />&#10;     <polygon
   id="_454591816"
   class="fil1"
   points="3.33855,3.54207 7.12481,7.32834 7.12481,8.33137 3.33855,4.5451 " />&#10;     <polygon
   id="_454592080"
   class="fil1"
   points="3.33855,4.61836 7.12481,8.40463 7.12481,8.98836 3.33855,5.20209 " />&#10;     <polygon
   id="_454592056"
   class="fil1"
   points="3.33855,5.20209 7.12481,8.98836 7.12441,8.99633 7.12323,9.00406 7.12131,9.01153 7.11869,9.01869 7.11541,9.0255 7.11151,9.03192 7.10702,9.03792 7.102,9.04345 7.09646,9.04848 7.09046,9.05296 7.08404,9.05687 7.07723,9.06015 7.07007,9.06276 7.06261,9.06469 7.05487,9.06587 7.04691,9.06627 3.26064,5.28 3.26861,5.27959 3.27634,5.27841 3.28381,5.27649 3.29096,5.27387 3.29778,5.27059 3.3042,5.26669 3.3102,5.2622 3.31573,5.25718 3.32076,5.25165 3.32524,5.24565 3.32915,5.23922 3.33243,5.23241 3.33504,5.22526 3.33696,5.21779 3.33815,5.21006 " />&#10;     <polygon
   id="_454591864"
   class="fil1"
   points="3.54613,4.43095 7.33239,8.21722 7.3261,8.22301 7.31981,8.22881 7.31351,8.23462 7.30721,8.24044 7.30091,8.24627 7.29459,8.25211 7.28827,8.25795 7.28194,8.2638 7.2756,8.26966 7.26925,8.27552 7.26289,8.28139 7.25651,8.28726 7.25013,8.29313 7.24372,8.29901 7.2373,8.30489 7.23087,8.31078 7.22441,8.31666 7.21794,8.32254 7.21145,8.32843 7.20494,8.33431 7.19841,8.34019 7.19185,8.34607 7.18527,8.35194 7.17867,8.35782 7.17204,8.36369 7.16538,8.36956 7.15869,8.37542 7.15198,8.38128 7.14523,8.38713 7.13846,8.39297 7.13165,8.39881 7.12481,8.40463 3.33855,4.61836 3.34539,4.61254 3.35219,4.6067 3.35896,4.60085 3.36571,4.595 3.37243,4.58915 3.37911,4.58329 3.38577,4.57742 3.3924,4.57155 3.399,4.56567 3.40558,4.5598 3.41214,4.55392 3.41867,4.54804 3.42519,4.54215 3.43168,4.53627 3.43815,4.53039 3.4446,4.5245 3.45104,4.51862 3.45745,4.51274 3.46386,4.50686 3.47024,4.50099 3.47662,4.49512 3.48298,4.48925 3.48933,4.48339 3.49567,4.47753 3.502,4.47168 3.50832,4.46584 3.51464,4.46 3.52094,4.45417 3.52724,4.44835 3.53354,4.44254 3.53983,4.43674 " />&#10;     <polygon
   id="_454591912"
   class="fil1"
   points="3.33855,2.46578 7.12481,6.25205 7.12481,7.26119 3.33855,3.47492 " />&#10;     <polygon
   id="_454592896"
   class="fil1"
   points="3.33855,1.62457 7.12481,5.41084 7.12481,6.19101 3.33855,2.40474 " />&#10;     <polygon
   id="_454592656"
   class="fil1"
   points="3.52752,3.37139 7.31378,7.15767 7.30806,7.16294 7.30232,7.16822 7.29659,7.17351 7.29085,7.17881 7.28511,7.18412 7.27936,7.18943 7.2736,7.19476 7.26784,7.20008 7.26206,7.20542 7.25628,7.21076 7.25049,7.2161 7.24469,7.22144 7.23887,7.22679 7.23304,7.23215 7.22719,7.2375 7.22133,7.24286 7.21546,7.24821 7.20957,7.25357 7.20366,7.25893 7.19773,7.26429 7.19178,7.26965 7.18581,7.275 7.17983,7.28035 7.17381,7.2857 7.16778,7.29105 7.16172,7.29639 7.15564,7.30173 7.14953,7.30707 7.14339,7.31239 7.13723,7.31772 7.13104,7.32303 7.12481,7.32834 3.33855,3.54207 3.34477,3.53676 3.35096,3.53144 3.35713,3.52612 3.36326,3.5208 3.36937,3.51546 3.37545,3.51012 3.38151,3.50478 3.38755,3.49943 3.39356,3.49408 3.39955,3.48873 3.40552,3.48337 3.41146,3.47802 3.41739,3.47266 3.4233,3.4673 3.42919,3.46194 3.43507,3.45659 3.44093,3.45123 3.44677,3.44587 3.4526,3.44052 3.45842,3.43517 3.46422,3.42983 3.47001,3.42448 3.4758,3.41915 3.48157,3.41381 3.48733,3.40848 3.49309,3.40316 3.49884,3.39785 3.50458,3.39254 3.51032,3.38724 3.51606,3.38195 3.52179,3.37667 " />&#10;     <polygon
   id="_454592608"
   class="fil1"
   points="3.5089,2.31184 7.29517,6.09811 7.29,6.10287 7.28483,6.10763 7.27966,6.11241 7.27448,6.11719 7.2693,6.12197 7.26412,6.12676 7.25893,6.13156 7.25373,6.13637 7.24852,6.14118 7.24331,6.14599 7.23809,6.15081 7.23285,6.15563 7.22761,6.16046 7.22235,6.16528 7.21708,6.17011 7.2118,6.17494 7.2065,6.17978 7.20119,6.18461 7.19587,6.18944 7.19052,6.19427 7.18516,6.1991 7.17978,6.20393 7.17439,6.20876 7.16896,6.21359 7.16353,6.21841 7.15807,6.22323 7.15259,6.22804 7.14708,6.23285 7.14155,6.23766 7.136,6.24246 7.13042,6.24726 7.12481,6.25205 3.33855,2.46578 3.34415,2.46099 3.34973,2.45619 3.35528,2.45139 3.36081,2.44658 3.36632,2.44177 3.3718,2.43696 3.37726,2.43214 3.3827,2.42731 3.38812,2.42249 3.39352,2.41766 3.39889,2.41283 3.40426,2.408 3.4096,2.40317 3.41493,2.39833 3.42024,2.3935 3.42553,2.38867 3.43081,2.38384 3.43608,2.37901 3.44134,2.37419 3.44658,2.36936 3.45182,2.36454 3.45704,2.35972 3.46226,2.35491 3.46746,2.3501 3.47266,2.34529 3.47785,2.34049 3.48304,2.3357 3.48822,2.33091 3.49339,2.32613 3.49856,2.32136 3.50373,2.3166 " />&#10;     <polygon
   id="_454592872"
   class="fil1"
   points="4.7788,1.89731 8.56507,5.68358 8.5429,5.69444 8.52118,5.70588 8.49987,5.71787 8.47899,5.73037 8.4585,5.74334 8.4384,5.75674 8.41867,5.77052 8.3993,5.78465 8.38027,5.79909 8.36157,5.8138 8.3432,5.82873 8.32512,5.84385 8.30734,5.85912 8.28984,5.8745 8.2726,5.88994 8.25562,5.90542 8.23887,5.92088 8.22234,5.93629 8.20603,5.9516 8.18991,5.96679 8.17398,5.9818 8.15822,5.99659 8.14261,6.01114 8.12715,6.02539 8.11182,6.03931 8.09661,6.05286 8.0815,6.06599 8.06647,6.07867 8.05153,6.09086 8.03665,6.10252 8.02181,6.1136 8.00702,6.12407 4.22075,2.3378 4.23554,2.32733 4.25038,2.31624 4.26526,2.30459 4.2802,2.2924 4.29523,2.27972 4.31034,2.26659 4.32556,2.25304 4.34089,2.23912 4.35635,2.22487 4.37195,2.21032 4.38771,2.19552 4.40365,2.18052 4.41976,2.16533 4.43607,2.15002 4.4526,2.13461 4.46935,2.11915 4.48633,2.10367 4.50357,2.08823 4.52107,2.07285 4.53885,2.05758 4.55693,2.04246 4.5753,2.02752 4.594,2.01282 4.61303,1.99838 4.6324,1.98425 4.65213,1.97046 4.67223,1.95707 4.69272,1.9441 4.71361,1.9316 4.73491,1.91961 4.75663,1.90817 " />&#10;     <polygon
   id="_454592704"
   class="fil1"
   points="4.22075,2.3378 8.00702,6.12407 7.97356,6.14626 7.94074,6.16652 7.90855,6.18487 7.87701,6.20138 7.84612,6.21609 7.8159,6.22903 7.78636,6.24026 7.7575,6.24983 7.72933,6.25778 7.70187,6.26415 7.67513,6.26898 7.6491,6.27234 7.62381,6.27426 7.59926,6.27478 7.57546,6.27396 7.55243,6.27183 7.53016,6.26845 7.50868,6.26386 7.48798,6.25811 7.46809,6.25123 7.449,6.24328 7.43073,6.23431 7.41329,6.22435 7.39669,6.21346 7.38093,6.20168 7.36604,6.18905 7.352,6.17563 3.56573,2.38935 3.57977,2.40278 3.59467,2.41541 3.61042,2.42719 3.62702,2.43808 3.64446,2.44804 3.66273,2.45701 3.68182,2.46496 3.70171,2.47183 3.72241,2.47759 3.74389,2.48218 3.76616,2.48556 3.7892,2.48769 3.81299,2.48851 3.83754,2.48798 3.86283,2.48607 3.88886,2.48271 3.91561,2.47787 3.94307,2.4715 3.97123,2.46356 4.00009,2.45399 4.02963,2.44276 4.05985,2.42981 4.09074,2.41511 4.12228,2.3986 4.15447,2.38024 4.1873,2.35999 " />&#10;     <polygon
   id="_454592776"
   class="fil1"
   points="4.92488,2.91526 8.71115,6.70153 8.68676,6.71347 8.66285,6.72606 8.63941,6.73926 8.61643,6.75301 8.59388,6.76728 8.57176,6.78202 8.55005,6.79719 8.52874,6.81274 8.5078,6.82863 8.48723,6.84481 8.46701,6.86124 8.44712,6.87788 8.42756,6.89469 8.4083,6.91161 8.38933,6.9286 8.37064,6.94563 8.35221,6.96264 8.33403,6.97959 8.31607,6.99645 8.29834,7.01315 8.28081,7.02967 8.26346,7.04595 8.2463,7.06196 8.22928,7.07764 8.21241,7.09296 8.19567,7.10787 8.17904,7.12232 8.16251,7.13627 8.14606,7.14969 8.12969,7.16251 8.11337,7.1747 8.09708,7.18622 4.31081,3.39995 4.3271,3.38843 4.34342,3.37624 4.3598,3.36341 4.37624,3.35 4.39277,3.33605 4.4094,3.32159 4.42614,3.30669 4.44301,3.29137 4.46003,3.27569 4.4772,3.25968 4.49454,3.2434 4.51207,3.22688 4.52981,3.21018 4.54776,3.19332 4.56594,3.17637 4.58437,3.15936 4.60306,3.14233 4.62203,3.12533 4.64129,3.10841 4.66085,3.09161 4.68074,3.07497 4.70096,3.05854 4.72153,3.04235 4.74247,3.02647 4.76378,3.01092 4.7855,2.99575 4.80761,2.98101 4.83016,2.96674 4.85314,2.95299 4.87658,2.93979 4.90049,2.9272 " />&#10;     <polygon
   id="_454592320"
   class="fil1"
   points="4.31081,3.39995 8.09708,7.18622 8.06027,7.21065 8.02415,7.23293 7.98873,7.25313 7.95402,7.2713 7.92004,7.28748 7.88679,7.30172 7.85428,7.31409 7.82252,7.32461 7.79153,7.33335 7.76131,7.34036 7.73188,7.34569 7.70324,7.34938 7.67541,7.35149 7.6484,7.35207 7.62221,7.35116 7.59687,7.34882 7.57237,7.3451 7.54872,7.34005 7.52595,7.33372 7.50406,7.32615 7.48306,7.31741 7.46295,7.30753 7.44376,7.29658 7.42549,7.28459 7.40816,7.27163 7.39176,7.25773 7.37632,7.24296 3.59006,3.45669 3.6055,3.47146 3.62189,3.48535 3.63922,3.49832 3.6575,3.51031 3.67669,3.52126 3.69679,3.53114 3.71779,3.53988 3.73968,3.54744 3.76246,3.55378 3.7861,3.55883 3.8106,3.56255 3.83594,3.56489 3.86213,3.5658 3.88915,3.56522 3.91698,3.56311 3.94561,3.55942 3.97504,3.55409 4.00526,3.54708 4.03625,3.53834 4.06801,3.52781 4.10052,3.51545 4.13377,3.50121 4.16776,3.48503 4.20246,3.46686 4.23788,3.44666 4.274,3.42437 " />&#10;     <polygon
   id="_454592968"
   class="fil1"
   points="5.07096,3.9332 8.85723,7.71947 8.83061,7.73251 8.80453,7.74625 8.77895,7.76065 8.75387,7.77565 8.72927,7.79122 8.70513,7.80731 8.68144,7.82386 8.65818,7.84083 8.63533,7.85817 8.61288,7.87582 8.59082,7.89376 8.56912,7.91191 8.54777,7.93025 8.52675,7.94871 8.50606,7.96726 8.48566,7.98584 8.46555,8.0044 8.4457,8.02291 8.42612,8.0413 8.40676,8.05952 8.38763,8.07755 8.36871,8.09532 8.34997,8.11278 8.33141,8.12989 8.313,8.14661 8.29472,8.16287 8.27658,8.17865 8.25854,8.19387 8.24059,8.20851 8.22272,8.2225 8.20491,8.23581 8.18715,8.24838 4.40088,4.46211 4.41865,4.44954 4.43646,4.43623 4.45433,4.42224 4.47228,4.4076 4.49031,4.39237 4.50846,4.3766 4.52673,4.36034 4.54514,4.34362 4.5637,4.32651 4.58244,4.30905 4.60137,4.29128 4.6205,4.27325 4.63985,4.25502 4.65944,4.23663 4.67928,4.21813 4.69939,4.19957 4.71979,4.18099 4.74048,4.16244 4.7615,4.14398 4.78285,4.12564 4.80455,4.10748 4.82661,4.08955 4.84906,4.07189 4.87191,4.05456 4.89517,4.03759 4.91886,4.02104 4.943,4.00495 4.9676,3.98938 4.99268,3.97437 5.01826,3.95998 5.04435,3.94624 " />&#10;     <polygon
   id="_454592416"
   class="fil1"
   points="4.40088,4.46211 8.18715,8.24838 8.14698,8.27503 8.10756,8.29935 8.06891,8.3214 8.03104,8.34122 7.99395,8.35887 7.95767,8.37442 7.92219,8.38791 7.88754,8.39939 7.85372,8.40894 7.82074,8.41658 7.78863,8.42239 7.75738,8.42643 7.72701,8.42872 7.69754,8.42935 7.66896,8.42837 7.6413,8.42581 7.61456,8.42176 7.58877,8.41624 7.56392,8.40933 7.54003,8.40108 7.51711,8.39154 7.49517,8.38076 7.47423,8.3688 7.4543,8.35573 7.43538,8.34158 7.41749,8.32642 3.63122,4.54015 3.64911,4.55531 3.66803,4.56946 3.68796,4.58253 3.70891,4.59449 3.73084,4.60526 3.75376,4.61481 3.77765,4.62306 3.8025,4.62997 3.8283,4.63548 3.85503,4.63954 3.88269,4.64209 3.91127,4.64308 3.94074,4.64245 3.97111,4.64015 4.00236,4.63612 4.03448,4.63031 4.06745,4.62267 4.10127,4.61312 4.13592,4.60164 4.1714,4.58815 4.20769,4.5726 4.24477,4.55494 4.28264,4.53513 4.3213,4.51308 4.36071,4.48876 " />&#10;    </g>&#10;    <path
   id="_457169024"
   class="fil1"
   d="M3.50705 3.32655c-0.138732,-0.362307 0.239059,-0.95339 1.41783,-0.411291 -0.262791,0.123803 -0.440539,0.365567 -0.614063,0.484697 -0.396299,0.272075 -0.676516,0.171035 -0.783299,-0.0285591 -0.0610984,0.0561969 -0.122441,0.114087 -0.188969,0.170677l0 1.00303c0.0625945,-0.0537874 0.123335,-0.109079 0.185248,-0.163087 -0.151386,-0.395354 0.26087,-1.04036 1.54717,-0.448811 -0.286764,0.135094 -0.480728,0.398913 -0.670083,0.528909 -0.432449,0.296898 -0.738224,0.186642 -0.854752,-0.0311614 -0.0670906,0.0617126 -0.134453,0.125291 -0.207579,0.187413l0 0.583728c0,0.0430236 -0.0348819,0.0779055 -0.0779055,0.0779055 -0.0430236,0 -0.0779055,-0.0348819 -0.0779055,-0.0779055l0 -0.96115c-0.0548898,-0.0474213 -0.106106,-0.0956575 -0.157134,-0.142591 -0.0970433,0.181386 -0.351697,0.273209 -0.711846,0.0259528 -0.157697,-0.108264 -0.319232,-0.327976 -0.558051,-0.440484 1.07124,-0.49265 1.41457,0.0445197 1.2885,0.373776 0.0463583,0.040437 0.0919252,0.0817402 0.138535,0.12222l0 -1.16943c-0.0501614,-0.0430512 -0.0967283,-0.0869488 -0.143118,-0.129614 -0.0849409,0.15876 -0.307831,0.239126 -0.623055,0.0227126 -0.138028,-0.0947598 -0.279409,-0.287067 -0.488441,-0.385539 0.937622,-0.431197 1.23813,0.0389646 1.12778,0.327154 0.0424252,0.0370079 0.0840945,0.0748386 0.126839,0.111811l0 -1.33234c0,-0.0430276 0.0348819,-0.0779094 0.0779055,-0.0779094 0.0430236,0 0.0779055,0.0348819 0.0779055,0.0779094l0 0.780169c0.0512402,-0.0441102 0.101024,-0.0894016 0.151756,-0.133654 -0.126079,-0.329256 0.217252,-0.866425 1.2885,-0.373776 -0.238823,0.112512 -0.400358,0.332224 -0.558051,0.440484 -0.36015,0.247256 -0.614803,0.155433 -0.71185,-0.0259528 -0.0551024,0.0506811 -0.110421,0.102882 -0.17035,0.153933l0 1.00914c0.0569173,-0.0489488 0.112181,-0.0992402 0.168504,-0.14837z" />&#10;   </g>&#10;  </g>&#10;  <path
   class="fil2"
   d="M3.41333 -3.93701e-006c1.88513,0 3.41333,1.5282 3.41333,3.41333 0,1.88513 -1.5282,3.41333 -3.41333,3.41333 -1.88513,0 -3.41333,-1.5282 -3.41333,-3.41333 0,-1.88513 1.5282,-3.41333 3.41333,-3.41333z"
   id="path3" />&#10;  <path
   class="fil3"
   d="M5.07096 3.9332c-0.286764,0.135094 -0.480728,0.398913 -0.670083,0.528913 -1.20132,0.824756 -1.4251,-1.49245 0.670083,-0.528913z"
   id="path4" />&#10;  <path
   class="fil4"
   d="M3.33256 4.55023c0.254937,-0.21824 0.477583,-0.462799 0.871866,-0.546437 0.159768,-0.0338898 0.194835,-0.052626 0.364094,-0.0513622l-0.00183858 0c0.0687559,0.00724803 0.095126,0.019815 0.15774,0.0403031 -0.0533386,-0.0051063 -0.0156811,0.000354331 -0.0786929,-0.0132441 -0.151736,-0.032748 -0.288169,0.0178465 -0.434469,0.0532244 -0.411591,0.0995315 -0.604669,0.361323 -0.887807,0.598374l0.0091063 -0.0808583z"
   id="path5" />&#10;  <path
   class="fil4"
   d="M4.08193 4.03957c0.0260157,0.00273622 0.0525,0.00651969 0.0795315,0.0115039 0.135697,0.0250039 0.169122,0.0216654 0.300909,0.077189l-0.00143701 -0.000590551c0.0513661,0.027811 0.0679134,0.046122 0.110209,0.0822953 -0.0400118,-0.0211693 -0.0123622,-0.00477165 -0.057189,-0.0356969 -0.107957,-0.0744606 -0.230815,-0.0789055 -0.356476,-0.0984094 -0.0276063,-0.00428346 -0.0544882,-0.00736614 -0.0807402,-0.00936614 0.0051063,-0.00797244 0.00694882,-0.0176378 0.00519291,-0.0269252z"
   id="path6" />&#10;  <path
   class="fil4"
   d="M3.79158 4.17256c0.0014685,0.00026378 0.00292913,0.000503937 0.00440157,0.000775591 0.160614,0.0295984 0.200181,0.0256496 0.356165,0.0913661l-0.00170079 -0.000700787c0.0607992,0.0329213 0.0803858,0.0545906 0.130445,0.0974134 -0.0473583,-0.025063 -0.014626,-0.00565354 -0.067689,-0.0422559 -0.12778,-0.0881378 -0.273197,-0.0933937 -0.421937,-0.11648l-0.00320079 -0.000472441c0.0045748,-0.00913386 0.00583465,-0.019685 0.00351575,-0.0296457z"
   id="path7" />&#10;  <path
   class="fil4"
   d="M4.24926 4.01993c0.0130472,-0.0116299 0.0255197,-0.0237717 0.0373386,-0.0365 0.0593504,-0.0638937 0.0816614,-0.0767756 0.114,-0.148224l-0.000362205 0.000771654c0.0076063,-0.0297047 0.00248425,-0.0420866 -0.00200394,-0.0705433 -0.00632283,0.0229921 -0.00338189,0.00657087 -0.00463386,0.0344961 -0.00302362,0.067252 -0.0714961,0.119626 -0.129413,0.177697 -0.0127244,0.0127559 -0.0259961,0.0248543 -0.0397756,0.0363583 0.00945276,0.000275591 0.0183583,0.00242126 0.0248504,0.00594488z"
   id="path8" />&#10;  <path
   class="fil4"
   d="M3.882 4.14819c0.000767717,-0.000826772 0.00154724,-0.0016378 0.00231102,-0.00246457 0.0835433,-0.0905276 0.112575,-0.108051 0.16589,-0.211677l-0.000594488 0.00112205c0.0152835,-0.0434961 0.0118819,-0.0622087 0.0126457,-0.104701 -0.0123425,0.0336339 -0.00538583,0.0095 -0.0127992,0.0508071 -0.0178701,0.0994646 -0.109709,0.172272 -0.190323,0.254268l-0.00175197 0.00175197c0.00988583,0.00166142 0.0186535,0.00553543 0.024622,0.0108937z"
   id="path9" />&#10;  <path
   class="fil3"
   d="M4.92488 2.91526c-0.262791,0.123803 -0.440539,0.365567 -0.614063,0.484697 -1.1009,0.755811 -1.30597,-1.36769 0.614063,-0.484697z"
   id="path10" />&#10;  <path
   class="fil4"
   d="M3.3318 3.48071c0.23363,-0.2 0.437661,-0.424114 0.798984,-0.50076 0.146413,-0.0310551 0.178551,-0.0482283 0.333661,-0.0470669l-0.00168504 0c0.0630079,0.0066378 0.0871732,0.0181575 0.144551,0.0369331 -0.048878,-0.0046811 -0.0143701,0.000322835 -0.0721102,-0.0121378 -0.139055,-0.0300118 -0.264083,0.0163543 -0.398154,0.0487756 -0.377181,0.0912126 -0.554122,0.331118 -0.813591,0.54835l0.00834252 -0.0740945z"
   id="path11" />&#10;  <path
   class="fil4"
   d="M4.01852 3.01274c0.0238386,0.00250394 0.0481102,0.00597244 0.0728819,0.0105394 0.124354,0.0229134 0.154984,0.0198543 0.275756,0.0707362l-0.0013189 -0.00053937c0.0470709,0.0254882 0.0622362,0.0422638 0.100996,0.0754173 -0.0366654,-0.0194055 -0.0113268,-0.00437795 -0.0524055,-0.0327165 -0.0989331,-0.0682362 -0.21152,-0.0723071 -0.326677,-0.0901811 -0.0252992,-0.0039252 -0.049937,-0.00675197 -0.0739921,-0.00858268 0.0046811,-0.00730709 0.00636614,-0.0161654 0.00475984,-0.0246732z"
   id="path12" />&#10;  <path
   class="fil4"
   d="M3.75245 3.13461c0.00134646,0.000240157 0.0026811,0.00046063 0.0040315,0.000708661 0.147189,0.027126 0.183445,0.0235039 0.326394,0.0837283l-0.00155906 -0.000637795c0.0557165,0.0301654 0.0736614,0.0500236 0.119539,0.0892638 -0.0433976,-0.0229646 -0.0134055,-0.00517717 -0.0620276,-0.0387205 -0.117102,-0.0807677 -0.250362,-0.0855866 -0.386669,-0.106744l-0.00293307 -0.000433071c0.00419291,-0.00837008 0.00534646,-0.0180394 0.00322441,-0.0271654z"
   id="path13" />&#10;  <path
   class="fil4"
   d="M4.17187 2.99473c0.0119528,-0.0106535 0.0233819,-0.0217835 0.0342165,-0.0334449 0.0543898,-0.0585551 0.0748346,-0.0703583 0.104472,-0.135839l-0.000334646 0.000712598c0.0069685,-0.0272244 0.00227559,-0.0385709 -0.00183858,-0.0646496 -0.00579134,0.0210709 -0.00309843,0.00602362 -0.00424409,0.0316142 -0.00277165,0.0616299 -0.0655197,0.109626 -0.118594,0.162843 -0.0116614,0.011689 -0.0238228,0.0227756 -0.0364528,0.0333189 0.00866535,0.000251969 0.0168268,0.00221654 0.0227756,0.00544488z"
   id="path14" />&#10;  <path
   class="fil4"
   d="M3.83531 3.11227c0.000704724,-0.000755906 0.00142126,-0.0015 0.00212205,-0.00225984 0.0765551,-0.0829567 0.103161,-0.0990157 0.15202,-0.19398l-0.000543307 0.00102756c0.0140039,-0.0398583 0.0108858,-0.0570079 0.0115866,-0.0959488 -0.011311,0.0308228 -0.00493307,0.00870866 -0.0117283,0.0465591 -0.016378,0.0911535 -0.100539,0.157874 -0.174413,0.233016l-0.0016063 0.0016063c0.00905906,0.00151969 0.0170945,0.00507087 0.022563,0.00998031z"
   id="path15" />&#10;  <path
   class="fil3"
   d="M4.7788 1.89731c-0.238823,0.112508 -0.400358,0.33222 -0.558051,0.440484 -1.00047,0.686866 -1.18684,-1.24293 0.558051,-0.440484z"
   id="path16" />&#10;  <path
   class="fil4"
   d="M3.33104 2.41119c0.212315,-0.181756 0.397736,-0.385429 0.726102,-0.455083 0.133055,-0.0282244 0.16226,-0.0438268 0.30322,-0.0427756l-0.00152756 0c0.0572598,0.00603543 0.0792205,0.0165039 0.131362,0.0335669 -0.0444213,-0.00425197 -0.0130591,0.000295276 -0.0655315,-0.0110315 -0.12637,-0.0272717 -0.239992,0.0148622 -0.361835,0.0443268 -0.342776,0.0828937 -0.503575,0.300913 -0.739374,0.498331l0.00758268 -0.0673346z"
   id="path17" />&#10;  <path
   class="fil4"
   d="M3.95512 1.9859c0.0216654,0.00227559 0.0437244,0.00542913 0.0662362,0.00957874 0.113008,0.0208228 0.140846,0.0180472 0.250598,0.0642835l-0.00119291 -0.000492126c0.0427756,0.0231654 0.0565551,0.0384134 0.0917795,0.0685394 -0.0333228,-0.0176339 -0.0102913,-0.00397638 -0.047626,-0.0297283 -0.0899094,-0.0620157 -0.192224,-0.0657126 -0.296878,-0.0819567 -0.0229921,-0.00356693 -0.0453819,-0.0061378 -0.0672441,-0.00779921 0.00425591,-0.00664173 0.0057874,-0.014689 0.00432677,-0.0224252z"
   id="path18" />&#10;  <path
   class="fil4"
   d="M3.71331 2.09665c0.00122441,0.000220472 0.00243701,0.000417323 0.00366142,0.000645669 0.133768,0.0246457 0.166717,0.0213583 0.296622,0.0760866l-0.00141339 -0.00057874c0.0506299,0.0274173 0.0669409,0.0454606 0.108634,0.081122 -0.0394409,-0.0208701 -0.012185,-0.00470472 -0.0563701,-0.035189 -0.106421,-0.0734016 -0.227528,-0.0777795 -0.351398,-0.0970039l-0.00266535 -0.000393701c0.00381102,-0.0076063 0.00485827,-0.0163976 0.00292913,-0.024689z"
   id="path19" />&#10;  <path
   class="fil4"
   d="M4.09447 1.96954c0.0108661,-0.00968504 0.021252,-0.0197953 0.0310984,-0.0303976 0.0494252,-0.0532087 0.0680079,-0.063937 0.0949409,-0.123445l-0.00030315 0.000645669c0.00633071,-0.0247402 0.00206693,-0.0350512 -0.00166929,-0.058748 -0.00526772,0.0191457 -0.0028189,0.00547244 -0.00385827,0.0287283 -0.00251969,0.0560079 -0.0595433,0.099626 -0.107776,0.147988 -0.0105984,0.010622 -0.0216535,0.0206969 -0.0331299,0.0302795 0.00787402,0.000228346 0.0152913,0.00201575 0.0206969,0.00494882z"
   id="path20" />&#10;  <path
   class="fil4"
   d="M3.78862 2.07635c0.000641732,-0.000685039 0.00129134,-0.0013622 0.00192913,-0.00205118 0.0695748,-0.0753898 0.093752,-0.0899843 0.138154,-0.176287l-0.000496063 0.000933071c0.0127283,-0.0362205 0.00989764,-0.0518071 0.0105315,-0.0871929 -0.0102795,0.0280079 -0.00448425,0.00791339 -0.0106575,0.042311 -0.0148819,0.0828386 -0.0913661,0.143472 -0.158504,0.211756l-0.00146063 0.00146457c0.00823228,0.00138189 0.0155354,0.0046063 0.0205039,0.00906693z"
   id="path21" />&#10;  <path
   class="fil3"
   d="M1.7557 3.68382c0.238819,0.112508 0.400354,0.33222 0.558051,0.440484 1.00047,0.686866 1.18684,-1.24293 -0.558051,-0.440484z"
   id="path22" />&#10;  <path
   class="fil4"
   d="M3.20346 4.19769c-0.212315,-0.181752 -0.397732,-0.385425 -0.726098,-0.455079 -0.133055,-0.0282244 -0.162264,-0.0438307 -0.303224,-0.0427756l0.0015315 0c-0.0572598,0.00603543 -0.0792244,0.0165 -0.131366,0.0335669 0.0444213,-0.00425591 0.0130591,0.000291339 0.0655354,-0.0110315 0.126366,-0.0272756 0.239992,0.0148622 0.361831,0.0443268 0.342776,0.0828898 0.503575,0.300913 0.739378,0.498331l-0.00758661 -0.0673386z"
   id="path23" />&#10;  <path
   class="fil4"
   d="M2.57938 3.77241c-0.0216614,0.00227559 -0.0437205,0.00542913 -0.0662323,0.00957874 -0.113012,0.0208228 -0.14085,0.0180433 -0.250602,0.0642835l0.00119685 -0.000492126c-0.0427756,0.0231654 -0.0565591,0.0384094 -0.0917835,0.0685394 0.0333228,-0.0176339 0.0102953,-0.00397638 0.0476299,-0.0297323 0.0899055,-0.0620118 0.192224,-0.0657087 0.296878,-0.0819528 0.0229882,-0.00356693 0.045378,-0.0061378 0.0672402,-0.00779921 -0.00425197,-0.00664173 -0.0057874,-0.0146929 -0.00432677,-0.0224252z"
   id="path24" />&#10;  <path
   class="fil4"
   d="M2.82119 3.88316c-0.00122047,0.000220472 -0.00243701,0.00042126 -0.00366142,0.000649606 -0.133764,0.0246457 -0.166713,0.0213583 -0.296622,0.0760866l0.00141732 -0.00057874c-0.0506339,0.0274134 -0.0669449,0.0454606 -0.108638,0.081122 0.0394409,-0.0208701 0.012185,-0.00470472 0.056374,-0.035189 0.106417,-0.0734016 0.227524,-0.0777795 0.351394,-0.0970079l0.00266929 -0.000389764c-0.00381496,-0.00761024 -0.0048622,-0.0163976 -0.00293307,-0.0246929z"
   id="path25" />&#10;  <path
   class="fil4"
   d="M2.44003 3.75604c-0.0108622,-0.00968504 -0.021252,-0.0197953 -0.0310945,-0.0303976 -0.0494291,-0.0532126 -0.0680079,-0.0639409 -0.0949409,-0.123445l0.00030315 0.000645669c-0.00633465,-0.0247402 -0.00207087,-0.0350512 0.00166929,-0.058752 0.00526378,0.0191496 0.00281496,0.00547244 0.00385827,0.0287323 0.00251575,0.0560079 0.0595394,0.099626 0.107776,0.147984 0.0105984,0.010626 0.0216496,0.0207008 0.033126,0.0302835 -0.00787402,0.000228346 -0.0152913,0.00201575 -0.0206969,0.00494882z"
   id="path26" />&#10;  <path
   class="fil4"
   d="M2.74588 3.86286c-0.000637795,-0.000688976 -0.00129134,-0.0013622 -0.0019252,-0.00205118 -0.0695748,-0.0753937 -0.0937559,-0.0899843 -0.138157,-0.176287l0.000496063 0.000933071c-0.0127283,-0.0362205 -0.0098937,-0.0518071 -0.0105315,-0.0871929 0.0102795,0.0280079 0.00448819,0.00791339 0.0106614,0.042311 0.0148819,0.0828346 0.0913661,0.143472 0.1585,0.211756l0.00146457 0.00146063c-0.00823622,0.00138583 -0.0155394,0.00461024 -0.0205079,0.00907087z"
   id="path27" />&#10;  <path
   class="fil3"
   d="M1.92812 2.51794c0.209031,0.0984764 0.350417,0.290783 0.488441,0.385539 0.875681,0.601193 1.0388,-1.08789 -0.488441,-0.385539z"
   id="path28" />&#10;  <path
   class="fil4"
   d="M3.19529 2.96772c-0.185831,-0.159083 -0.348122,-0.33735 -0.635528,-0.398319 -0.116461,-0.0247008 -0.142024,-0.0383583 -0.265402,-0.037437l0.00133858 0c-0.0501181,0.00528346 -0.0693386,0.0144409 -0.114976,0.029378 0.038878,-0.00372441 0.0114291,0.000255906 0.0573583,-0.00965748 0.110606,-0.0238701 0.210055,0.0130118 0.316701,0.0387992 0.30002,0.0725512 0.44076,0.263382 0.64715,0.436173l-0.00664173 -0.058937z"
   id="path29" />&#10;  <path
   class="fil4"
   d="M2.64906 2.59548c-0.0189606,0.00199213 -0.0382677,0.00475197 -0.0579724,0.00838583 -0.0989134,0.0182244 -0.12328,0.0157913 -0.219343,0.0562638l0.00104724 -0.000429134c-0.0374409,0.0202756 -0.0495039,0.0336181 -0.0803346,0.0599882 0.0291654,-0.0154331 0.00901181,-0.00348031 0.041685,-0.0260197 0.0786969,-0.0542795 0.168248,-0.0575157 0.25985,-0.0717362 0.020122,-0.00312205 0.0397165,-0.00537008 0.0588543,-0.00682677 -0.00372441,-0.00581102 -0.00506693,-0.0128543 -0.0037874,-0.019626z"
   id="path30" />&#10;  <path
   class="fil4"
   d="M2.8607 2.69242c-0.00107087,0.000192913 -0.00213386,0.000366142 -0.00320472,0.000566929 -0.117079,0.0215709 -0.145921,0.0186929 -0.259622,0.0665945l0.00124016 -0.000507874c-0.0443189,0.0239961 -0.0585945,0.0397953 -0.0950866,0.0710079 0.0345197,-0.0182677 0.0106614,-0.00412205 0.0493386,-0.0308031 0.0931457,-0.0642441 0.199146,-0.0680748 0.307567,-0.0849055l0.00233071 -0.00034252c-0.00333465,-0.00665748 -0.00425197,-0.0143504 -0.00256299,-0.0216102z"
   id="path31" />&#10;  <path
   class="fil4"
   d="M2.52709 2.58116c-0.00951181,-0.00847638 -0.0186024,-0.0173268 -0.0272165,-0.0266063 -0.0432638,-0.0465748 -0.0595276,-0.0559646 -0.0830984,-0.108047l0.00026378 0.000562992c-0.00554331,-0.0216535 -0.00181102,-0.0306772 0.00146063,-0.0514213 0.00461024,0.0167598 0.0024685,0.00479134 0.00337795,0.0251496 0.00220472,0.0490197 0.0521142,0.0871969 0.0943307,0.129524 0.00927559,0.00929921 0.0189528,0.0181181 0.0289961,0.0265039 -0.00688976,0.000204724 -0.0133819,0.00176772 -0.0181142,0.00433465z"
   id="path32" />&#10;  <path
   class="fil4"
   d="M2.79479 2.67465c-0.000562992,-0.000602362 -0.00112992,-0.00119291 -0.00168898,-0.00179921 -0.0608937,-0.0659843 -0.0820591,-0.0787598 -0.120921,-0.154295l0.000433071 0.000818898c-0.0111417,-0.0317047 -0.00866142,-0.0453465 -0.00921654,-0.0763189 0.00899606,0.0245157 0.0039252,0.0069252 0.00933071,0.0370315 0.0130236,0.0725039 0.0799685,0.125575 0.138732,0.185346l0.00127559 0.00127559c-0.00720472,0.0012126 -0.0135984,0.00403543 -0.0179449,0.00794094z"
   id="path33" />&#10;  <path
   class="fil5"
   d="M3.33855 1.62457c0,-0.0430276 -0.0348819,-0.0779094 -0.0779055,-0.0779094 -0.0430236,0 -0.0779055,0.0348819 -0.0779055,0.0779094l0 3.57752c0,0.0430236 0.0348819,0.0779055 0.0779055,0.0779055 0.0430236,0 0.0779055,-0.0348819 0.0779055,-0.0779055l0 -3.57752z"
   id="path34" />&#10; </g>&#10;</svg>
