<?xml version="1.0" encoding="UTF-8" standalone="no"?>
<!-- Generator: Adobe Illustrator 16.0.0, SVG Export Plug-In . SVG Version: 6.00 Build 0)  -->

<svg
   version="1.1"
   id="Layer_1"
   x="0px"
   y="0px"
   width="126.748"
   height="128"
   viewBox="0 0 126.748 128"
   enable-background="new 0 0 128 128"
   xml:space="preserve"
   sodipodi:docname="reshot-icon-search-MWLFT2H4UN.svg"
   inkscape:version="1.2.2 (b0a8486, 2022-12-01)"
   xmlns:inkscape="http://www.inkscape.org/namespaces/inkscape"
   xmlns:sodipodi="http://sodipodi.sourceforge.net/DTD/sodipodi-0.dtd"
   xmlns="http://www.w3.org/2000/svg"
   xmlns:svg="http://www.w3.org/2000/svg"><defs
   id="defs50" /><sodipodi:namedview
   id="namedview48"
   pagecolor="#ffffff"
   bordercolor="#666666"
   borderopacity="1.0"
   inkscape:showpageshadow="2"
   inkscape:pageopacity="0.0"
   inkscape:pagecheckerboard="0"
   inkscape:deskcolor="#d1d1d1"
   showgrid="false"
   inkscape:zoom="6.8515625"
   inkscape:cx="63.489168"
   inkscape:cy="64.145952"
   inkscape:window-width="2560"
   inkscape:window-height="999"
   inkscape:window-x="0"
   inkscape:window-y="25"
   inkscape:window-maximized="1"
   inkscape:current-layer="Layer_1" />
<g
   id="g45"
   transform="translate(-0.62599933)">
	<g
   id="g13">
		<g
   id="g11">
			<path
   fill="none"
   stroke="#282d33"
   stroke-width="4"
   d="M 69.499,69.553"
   id="path9" />
		</g>
	</g>
	<g
   id="g17">
		<path
   fill="#282d33"
   d="M 43.827,87.275 C 20.015,87.275 0.636,67.703 0.626,43.646 0.624,32.045 5.099,21.111 13.227,12.856 21.398,4.566 32.261,0 43.814,0 55.373,0 66.22,4.542 74.396,12.789 c 8.17,8.243 12.669,19.195 12.669,30.84 0,11.603 -4.472,22.533 -12.592,30.781 C 66.285,82.707 55.41,87.275 43.85,87.275 Z M 43.852,4 C 33.34,4 23.489,8.143 16.076,15.663 8.691,23.164 4.624,33.102 4.626,43.645 4.634,65.496 22.22,83.275 43.827,83.275 v 2 l 0.022,-2 c 10.482,0 20.346,-4.146 27.775,-11.674 7.377,-7.492 11.44,-17.427 11.44,-27.972 0,-10.583 -4.088,-20.536 -11.511,-28.024 C 64.136,8.122 54.298,4 43.852,4 Z"
   id="path15" />
	</g>
	<g
   id="g21">
		<path
   fill="#282d33"
   d="m 43.825,76.264 c -8.62,0 -16.73,-3.398 -22.837,-9.57 -6.101,-6.167 -9.46,-14.354 -9.458,-23.051 0.001,-8.682 3.349,-16.857 9.426,-23.02 6.114,-6.203 14.24,-9.621 22.883,-9.624 8.644,0 16.759,3.4 22.863,9.575 6.105,6.156 9.473,14.343 9.479,23.052 0.002,8.674 -3.344,16.845 -9.422,23.008 -6.121,6.209 -14.256,9.629 -22.907,9.631 H 43.825 Z M 43.85,14.999 c -7.574,0.003 -14.689,2.997 -20.046,8.432 -5.334,5.411 -8.273,12.589 -8.274,20.213 -0.002,7.637 2.946,14.824 8.302,20.236 5.35,5.408 12.45,8.384 19.994,8.384 v 2 l 0.023,-2 C 51.422,72.262 58.546,69.266 63.91,63.825 69.244,58.415 72.182,51.242 72.18,43.627 72.174,35.981 69.22,28.793 63.86,23.388 58.51,17.977 51.405,14.999 43.85,14.999 Z"
   id="path19" />
	</g>
	<g
   id="g25">
		<path
   fill="#282d33"
   d="m 107.059,125.922 -36.446,-36.818 18.24,-18.42 36.438,36.814 z m -30.817,-36.818 30.816,31.133 12.606,-12.738 -30.81,-31.13 z"
   id="path23" />
	</g>
	<g
   id="g29">
		
			<rect
   x="93.952003"
   y="98.574997"
   transform="matrix(0.7034,0.7108,-0.7108,0.7034,101.9458,-43.147)"
   fill="#282d33"
   width="17.437"
   height="4.0009999"
   id="rect27" />
	</g>
	<g
   id="g33">
		
			<rect
   x="88.936996"
   y="81.667"
   transform="matrix(0.711,0.7032,-0.7032,0.711,87.839,-38.6462)"
   fill="#282d33"
   width="4"
   height="11.75"
   id="rect31" />
	</g>
	<g
   id="g37">
		<path
   fill="#282d33"
   d="m 109.157,128 -4.276,-4.324 2.848,-2.809 3.074,3.107 c 6.741,-0.41 12.153,-5.891 12.548,-12.711 -1.03,-1.043 -2.061,-2.082 -3.09,-3.117 l 2.838,-2.82 c 1.231,1.24 2.463,2.484 3.698,3.732 l 0.577,0.586 v 0.82 c 0,9.666 -7.797,17.533 -17.382,17.535 h -0.835 z"
   id="path35" />
	</g>
	<g
   id="g43">
		<g
   id="g41">
			
				<rect
   x="72.331001"
   y="75.345001"
   transform="matrix(0.7035,0.7107,-0.7107,0.7035,77.7789,-31.7329)"
   fill="#282d33"
   width="9.1759996"
   height="4.0009999"
   id="rect39" />
		</g>
	</g>
</g>
</svg>
