<?xml version="1.0" encoding="UTF-8" standalone="no"?>
<svg
   viewBox="0 0 40 62"
   version="1.1"
   id="svg72"
   sodipodi:docname="reshot-icon-water-hourglass-NWYP8ZS3DA.svg"
   width="40"
   height="62"
   inkscape:version="1.2.2 (b0a8486, 2022-12-01)"
   xmlns:inkscape="http://www.inkscape.org/namespaces/inkscape"
   xmlns:sodipodi="http://sodipodi.sourceforge.net/DTD/sodipodi-0.dtd"
   xmlns="http://www.w3.org/2000/svg"
   xmlns:svg="http://www.w3.org/2000/svg">
  <defs
     id="defs76" />
  <sodipodi:namedview
     id="namedview74"
     pagecolor="#ffffff"
     bordercolor="#666666"
     borderopacity="1.0"
     inkscape:showpageshadow="2"
     inkscape:pageopacity="0.0"
     inkscape:pagecheckerboard="0"
     inkscape:deskcolor="#d1d1d1"
     showgrid="false"
     inkscape:zoom="13.703125"
     inkscape:cx="20.177879"
     inkscape:cy="31.087799"
     inkscape:window-width="1593"
     inkscape:window-height="870"
     inkscape:window-x="0"
     inkscape:window-y="25"
     inkscape:window-maximized="0"
     inkscape:current-layer="svg72" />
  <g
     id="_05-water_hourglass"
     data-name="05-water hourglass"
     transform="translate(-12,-1)">
    <polygon
       points="47,59 17,59 17,51 21,51 21,45 25,45 25,55 28,55 28,50 33,50 33,53 36,53 36,47 41,47 41,51 47,51 "
       style="fill:#c9c6bc"
       id="polygon9" />
    <path
       d="m 52,61 v 2 H 12 v -2 a 2.006,2.006 0 0 1 2,-2 h 36 a 2.006,2.006 0 0 1 2,2 z"
       style="fill:#79e78e"
       id="path11" />
    <path
       d="M 52,1 V 3 A 2.006,2.006 0 0 1 50,5 H 14 A 2.006,2.006 0 0 1 12,3 V 1 Z"
       style="fill:#79e78e"
       id="path13" />
    <path
       d="M 38.56,29.75 A 17.97,17.97 0 0 0 50,13 V 5 H 14 v 8 a 17.983,17.983 0 0 0 11.44,16.75 2.4,2.4 0 0 1 0,4.5 A 17.988,17.988 0 0 0 14,51 v 8 h 3 v -8 h 4 v -6 h 4 v 10 h 3 v -5 h 5 v 3 h 3 v -6 h 5 v 4 h 6 v 8 h 3 v -8 a 17.988,17.988 0 0 0 -11.44,-16.75 2.4,2.4 0 0 1 0,-4.5 z M 32,45 a 3.689,3.689 0 0 1 -4,-4 c 0,-2.76 3,-6 4,-6 1,0 4,3.24 4,6 a 3.689,3.689 0 0 1 -4,4 z M 34.14,31.14 V 30.9 A 2.121,2.121 0 0 1 32,33 2.157,2.157 0 0 1 30.49,32.38 2.054,2.054 0 0 1 29.86,30.9 v 0.24 a 4.2,4.2 0 0 0 -3.03,-4 A 13.846,13.846 0 0 1 17.74,18.49 13.307,13.307 0 0 1 17,14.1 V 12 h 2.14 c 3.4,0 2.68,2.1 6.07,2.1 3.39,0 3.4,-2.1 6.79,-2.1 3.39,0 3.39,2.1 6.79,2.1 3.4,0 2.67,-2.1 6.07,-2.1 H 47 v 2.1 a 13.42,13.42 0 0 1 -0.57,3.87 13.815,13.815 0 0 1 -9.26,9.17 4.2,4.2 0 0 0 -3.03,4 z"
       style="fill:#d5d8db"
       id="path15" />
    <path
       d="m 36,41 a 3.689,3.689 0 0 1 -4,4 3.689,3.689 0 0 1 -4,-4 c 0,-2.76 3,-6 4,-6 1,0 4,3.24 4,6 z"
       style="fill:#01cadb"
       id="path17" />
    <path
       d="m 47,12 v 2.1 a 13.42,13.42 0 0 1 -0.57,3.87 13.815,13.815 0 0 1 -9.26,9.17 4.2,4.2 0 0 0 -3.03,4 V 30.9 A 2.121,2.121 0 0 1 32,33 2.157,2.157 0 0 1 30.49,32.38 2.054,2.054 0 0 1 29.86,30.9 v 0.24 a 4.2,4.2 0 0 0 -3.03,-4 A 13.846,13.846 0 0 1 17.74,18.49 13.307,13.307 0 0 1 17,14.1 V 12 h 2.14 c 3.4,0 2.68,2.1 6.07,2.1 3.39,0 3.4,-2.1 6.79,-2.1 3.39,0 3.39,2.1 6.79,2.1 3.4,0 2.67,-2.1 6.07,-2.1 z"
       style="fill:#01cadb"
       id="path19" />
    <path
       d="m 14,5 v 7.511 a 2.457,2.457 0 0 1 3,0 V 12 h 2.14 c 3.4,0 2.68,2.1 6.07,2.1 3.39,0 3.4,-2.1 6.79,-2.1 3.39,0 3.39,2.1 6.79,2.1 3.4,0 2.67,-2.1 6.07,-2.1 H 47 v 0.511 a 2.457,2.457 0 0 1 3,0 V 5 Z"
       style="fill:#d5d8db"
       id="path21" />
    <path
       d="M 47,51 C 47,43.974 43.018,38.718 36.542,37.124 a 2.735,2.735 0 0 1 -0.985,-0.455 v 0 A 2.729,2.729 0 0 1 34.717,35.651 8.51,8.51 0 0 1 34,32 c 0,-0.141 0.007,-0.27 0.01,-0.406 A 2.131,2.131 0 0 1 32,33 2.157,2.157 0 0 1 30.49,32.38 2.082,2.082 0 0 1 29.99,31.592 c 0,0.136 0.011,0.266 0.011,0.408 a 8.51,8.51 0 0 1 -0.717,3.651 2.729,2.729 0 0 1 -0.84,1.018 v 0 a 2.735,2.735 0 0 1 -0.985,0.455 C 20.982,38.718 17,43.974 17,51 h 4 v -6 h 4 v 10 h 3 v -5 h 5 v 3 h 3 v -6 h 5 v 4 z M 32,45 A 3.689,3.689 0 0 1 28,41 7.946,7.946 0 0 1 30.374,36.092 3.145,3.145 0 0 1 32,35 3.145,3.145 0 0 1 33.626,36.092 7.946,7.946 0 0 1 36,41 3.689,3.689 0 0 1 32,45 Z"
       style="fill:#eef2f5"
       id="path23" />
    <path
       d="M 50,61 H 14 a 2.006,2.006 0 0 0 -2,2 h 40 a 2.006,2.006 0 0 0 -2,-2 z"
       style="fill:#1fd8b9"
       id="path25" />
    <path
       d="M 50,3 H 14 A 2,2 0 0 0 12.279,4 2,2 0 0 0 14,5 H 50 A 2,2 0 0 0 51.721,4 2,2 0 0 0 50,3 Z"
       style="fill:#1fd8b9"
       id="path27" />
    <path
       d="m 47,12 h -2.14 c -3.4,0 -2.68,2.1 -6.07,2.1 -3.39,0 -3.4,-2.1 -6.79,-2.1 -3.39,0 -3.39,2.1 -6.79,2.1 -3.4,0 -2.67,-2.1 -6.07,-2.1 H 17 v 2.1 c 0,0.3 0.018,0.6 0.038,0.9 h 2.1 c 3.4,0 2.68,2.1 6.07,2.1 3.39,0 3.402,-2.1 6.792,-2.1 3.39,0 3.39,2.1 6.79,2.1 3.4,0 2.67,-2.1 6.07,-2.1 h 2.107 C 46.987,14.7 47,14.4 47,14.1 Z"
       style="fill:#6bdfed"
       id="path29" />
    <path
       d="M 32.014,41.517 A 4.468,4.468 0 0 1 31.865,35.024 C 30.758,35.269 28,38.351 28,41 a 3.689,3.689 0 0 0 4,4 3.711,3.711 0 0 0 3.618,-2.084 6.818,6.818 0 0 1 -3.604,-1.399 z"
       style="fill:#01a2b0"
       id="path31" />
    <ellipse
       cx="23.684"
       cy="20.695"
       rx="1.642"
       ry="2.286"
       transform="rotate(-45.02,23.683378,20.69481)"
       style="fill:#f6fafd"
       id="ellipse33" />
    <ellipse
       cx="26.681999"
       cy="23.708"
       rx="0.82499999"
       ry="1.148"
       transform="rotate(-45.02,26.681237,23.708568)"
       style="fill:#f6fafd"
       id="ellipse35" />
    <ellipse
       cx="33.681999"
       cy="38.708"
       rx="0.82499999"
       ry="1.148"
       transform="rotate(-45.02,33.680703,38.707891)"
       style="fill:#f6fafd"
       id="ellipse37" />
    <path
       d="M 15.5,55 A 1.962,1.962 0 0 1 14,54.08 V 59 h 3 V 54.08 A 1.962,1.962 0 0 1 15.5,55 Z"
       style="fill:#bec1c4"
       id="path39" />
    <path
       d="m 26.145,28.92 v 0 A 2.485,2.485 0 0 0 26.275,26.936 13.819,13.819 0 0 1 17.74,18.49 13.307,13.307 0 0 1 17,14.1 v -1.589 a 2.457,2.457 0 0 0 -3,0 V 13 a 17.983,17.983 0 0 0 11.44,16.75 2.479,2.479 0 0 0 0.705,-0.83 z"
       style="fill:#eef2f5"
       id="path41" />
    <path
       d="M 47,12.511 V 14.1 a 13.42,13.42 0 0 1 -0.57,3.87 13.791,13.791 0 0 1 -8.86,9.022 2.5,2.5 0 0 0 0.154,1.928 v 0 a 2.477,2.477 0 0 0 0.76,0.867 C 38.51,29.775 38.533,29.76 38.56,29.75 A 17.97,17.97 0 0 0 50,13 v -0.489 a 2.457,2.457 0 0 0 -3,0 z"
       style="fill:#eef2f5"
       id="path43" />
    <path
       d="M 48.5,55 A 1.962,1.962 0 0 1 47,54.08 V 59 h 3 V 54.08 A 1.962,1.962 0 0 1 48.5,55 Z"
       style="fill:#bec1c4"
       id="path45" />
    <rect
       x="17"
       y="5"
       width="30"
       height="3"
       style="fill:#e6eaed"
       id="rect47" />
    <rect
       x="47"
       y="5"
       width="3"
       height="3"
       style="fill:#bec1c4"
       id="rect49" />
    <rect
       x="14"
       y="5"
       width="3"
       height="3"
       style="fill:#bec1c4"
       id="rect51" />
    <path
       d="M 32,27 A 15,15 0 0 1 17,12 v 2.1 a 13.307,13.307 0 0 0 0.74,4.39 13.846,13.846 0 0 0 9.09,8.65 4.2,4.2 0 0 1 3.03,4 V 30.9 A 2.054,2.054 0 0 0 30.49,32.38 2.157,2.157 0 0 0 32,33 2.121,2.121 0 0 0 34.14,30.9 v 0.24 a 4.2,4.2 0 0 1 3.03,-4 13.815,13.815 0 0 0 9.26,-9.17 A 13.42,13.42 0 0 0 47,14.1 V 12 A 15,15 0 0 1 32,27 Z"
       style="fill:#01a2b0"
       id="path53" />
    <rect
       x="17"
       y="57"
       width="30"
       height="2"
       style="fill:#a9a599"
       id="rect55" />
    <rect
       x="19.5"
       y="3"
       width="18"
       height="2"
       rx="1"
       ry="1"
       style="fill:#35c4ba"
       id="rect57" />
    <rect
       x="40.5"
       y="3"
       width="4"
       height="2"
       rx="0.977"
       ry="0.977"
       style="fill:#35c4ba"
       id="rect59" />
    <rect
       x="20"
       y="61"
       width="18"
       height="2"
       rx="1"
       ry="1"
       style="fill:#35c4ba"
       id="rect61" />
    <rect
       x="41"
       y="61"
       width="4"
       height="2"
       rx="0.977"
       ry="0.977"
       style="fill:#35c4ba"
       id="rect63" />
    <path
       d="M 47,12 V 8 H 17 v 4 h 2.14 c 2.955,0 2.8,1.585 4.935,2 h 2.308 c 2.283,-0.415 2.671,-2 5.617,-2 2.946,0 3.334,1.585 5.617,2 h 2.308 c 2.134,-0.415 1.98,-2 4.935,-2 z"
       style="fill:#eef2f5"
       id="path65" />
    <path
       d="m 45.546,15 a 1.99,1.99 0 0 0 -3.428,0.58 c -0.04,0.112 -0.086,0.227 -0.131,0.341 C 40.881,18.774 38.612,22 34,22 a 2,2 0 0 0 0,4 c 5.474,0 9.805,-3.3 11.882,-9.063 A 2,2 0 0 0 45.546,15 Z"
       style="fill:#f6fafd"
       id="path67" />
    <path
       d="m 45.1,9.007 a 2,2 0 0 0 -2.153,1.834 c -0.022,0.273 -0.054,0.56 -0.1,0.859 a 2.03,2.03 0 0 0 1.677,2.278 2.079,2.079 0 0 0 0.3,0.022 2,2 0 0 0 1.976,-1.7 c 0.015,-0.105 0.021,-0.2 0.034,-0.3 0.038,-0.286 0.077,-0.573 0.1,-0.84 A 2,2 0 0 0 45.1,9.007 Z"
       style="fill:#f6fafd"
       id="path69" />
  </g>
</svg>
