<?xml version="1.0" encoding="UTF-8" standalone="no"?>
<!-- Creator: CorelDRAW -->

<svg
   xml:space="preserve"
   width="4.9066582in"
   height="3.019547in"
   style="clip-rule:evenodd;fill-rule:evenodd;image-rendering:optimizeQuality;shape-rendering:geometricPrecision;text-rendering:geometricPrecision"
   viewBox="0 0 4.9066581 3.0195469"
   version="1.1"
   id="svg22"
   sodipodi:docname="reshot-icon-text-G9SCYRXM52.svg"
   inkscape:version="1.2.2 (b0a8486, 2022-12-01)"
   xmlns:inkscape="http://www.inkscape.org/namespaces/inkscape"
   xmlns:sodipodi="http://sodipodi.sourceforge.net/DTD/sodipodi-0.dtd"
   xmlns="http://www.w3.org/2000/svg"
   xmlns:svg="http://www.w3.org/2000/svg"><sodipodi:namedview
   id="namedview24"
   pagecolor="#ffffff"
   bordercolor="#666666"
   borderopacity="1.0"
   inkscape:showpageshadow="2"
   inkscape:pageopacity="0.0"
   inkscape:pagecheckerboard="0"
   inkscape:deskcolor="#d1d1d1"
   inkscape:document-units="in"
   showgrid="false"
   inkscape:zoom="1.3381971"
   inkscape:cx="239.50135"
   inkscape:cy="149.08118"
   inkscape:window-width="1593"
   inkscape:window-height="881"
   inkscape:window-x="0"
   inkscape:window-y="25"
   inkscape:window-maximized="0"
   inkscape:current-layer="Layer_x0020_1" />
 <defs
   id="defs11">
  <style
   type="text/css"
   id="style9">
   <![CDATA[
    .fil0 {fill:none}
    .fil1 {fill:#5F5F5F;fill-rule:nonzero}
    .fil2 {fill:#727272;fill-rule:nonzero}
   ]]>
  </style>
 </defs>
 <g
   id="Layer_x0020_1"
   inkscape:label="Layer 1"
   inkscape:groupmode="layer"
   transform="translate(-0.959999,-1.90356)">
  <metadata
   id="CorelCorpID_0Corel-Layer" />
  <g
   id="_494673176">
   <rect
   id="_494673440"
   class="fil0"
   width="6.8266602"
   height="6.8266602"
   x="0"
   y="0" />
   <rect
   id="_494673128"
   class="fil0"
   x="0.85333103"
   y="0.85333103"
   width="5.1199999"
   height="5.1199999" />
  </g>
  <path
   class="fil1"
   d="M 5.38243,3.79415 C 5.249611,3.8488 5.051076,3.894453 4.786824,3.9325 4.636714,3.953945 4.530182,3.978157 4.468615,4.005138 4.406355,4.032114 4.35793,4.071547 4.324725,4.124118 4.290831,4.176 4.273536,4.233417 4.273536,4.297059 c 0,0.097539 0.037354,0.178476 0.110681,0.2435 0.073327,0.064335 0.181244,0.096846 0.323055,0.096846 0.140425,0 0.265634,-0.030437 0.374933,-0.092004 C 5.191504,4.483834 5.272441,4.39944 5.32363,4.292909 5.363059,4.21059 5.382429,4.088838 5.382429,3.92835 V 3.7941494 Z M 5.412867,4.609044 C 5.277284,4.723879 5.147233,4.804816 5.022713,4.852544 4.897504,4.8995834 4.763304,4.923107 4.620111,4.923107 4.383528,4.923107 4.202284,4.8656897 4.075001,4.750166 3.94841,4.634638 3.884769,4.486603 3.884769,4.307438 3.884769,4.201599 3.908289,4.105442 3.95671,4.018281 4.004442,3.93112 4.067391,3.861253 4.144871,3.808679 4.223036,3.756104 4.310202,3.715982 4.407737,3.689002 4.478989,3.670325 4.586906,3.651648 4.731485,3.634352 5.026174,3.599072 5.243387,3.557569 5.38243,3.508454 5.38382,3.458647 5.3845,3.426824 5.3845,3.413682 5.3845,3.264954 5.349913,3.159804 5.280736,3.099623 5.188039,3.016611 5.048996,2.975796 4.865681,2.975796 4.694122,2.975796 4.567531,3.00554 4.485212,3.065725 4.403582,3.125906 4.343401,3.232438 4.303968,3.385319 L 3.947712,3.336205 C 3.980224,3.184016 4.033492,3.060189 4.107507,2.966803 4.181527,2.872724 4.28944,2.800086 4.429869,2.74959 4.570298,2.69909 4.732861,2.673496 4.918255,2.673496 c 0.184008,0 0.332736,0.022134 0.447567,0.065024 0.114835,0.043583 0.199228,0.097539 0.253878,0.163256 0.053957,0.065717 0.091311,0.148039 0.113449,0.248343 0.01176,0.06226 0.017984,0.174327 0.017984,0.336197 v 0.486307 c 0,0.339657 0.00761,0.554102 0.02352,0.643339 0.015221,0.089929 0.04635,0.176402 0.092004,0.25872 H 5.4855046 C 5.4481463,4.7992801 5.4232448,4.7107327 5.412867,4.609044 Z"
   id="path17" />
  <path
   class="fil2"
   d="m 1.81709,3.65441 h 1.0079 L 2.514388,2.831906 C 2.4203093,2.582178 2.34975,2.376725 2.304093,2.215544 2.2660458,2.406473 2.212782,2.595324 2.143605,2.783481 L 1.817093,3.65441 Z M 0.959999,4.87468 2.101409,1.90356 h 0.423358 l 1.21612,2.97112 H 3.292623 L 2.946052,3.9747 H 1.703642 L 1.377823,4.87468 H 0.96 Z"
   id="path19" />
 </g>
</svg>
