<?xml version="1.0" encoding="UTF-8" standalone="no"?>
<svg
   viewBox="0 0 48 48"
   version="1.1"
   id="svg829"
   sodipodi:docname="typography.svg"
   width="48"
   height="48"
   inkscape:version="1.2.2 (b0a8486, 2022-12-01)"
   xmlns:inkscape="http://www.inkscape.org/namespaces/inkscape"
   xmlns:sodipodi="http://sodipodi.sourceforge.net/DTD/sodipodi-0.dtd"
   xmlns="http://www.w3.org/2000/svg"
   xmlns:svg="http://www.w3.org/2000/svg"
   xmlns:rdf="http://www.w3.org/1999/02/22-rdf-syntax-ns#"
   xmlns:cc="http://creativecommons.org/ns#"
   xmlns:dc="http://purl.org/dc/elements/1.1/">
  <sodipodi:namedview
     id="namedview831"
     pagecolor="#ffffff"
     bordercolor="#666666"
     borderopacity="1.0"
     inkscape:showpageshadow="2"
     inkscape:pageopacity="0.0"
     inkscape:pagecheckerboard="0"
     inkscape:deskcolor="#d1d1d1"
     showgrid="false"
     inkscape:zoom="18.270833"
     inkscape:cx="24.027366"
     inkscape:cy="24.054732"
     inkscape:window-width="2560"
     inkscape:window-height="999"
     inkscape:window-x="0"
     inkscape:window-y="25"
     inkscape:window-maximized="1"
     inkscape:current-layer="svg829" />
  <defs
     id="defs768">
    <style
       id="style766">.cls-1{fill:#bfbfbf;}.cls-2{fill:#fc6459;}.cls-3{fill:#424242;}</style>
  </defs>
  <title
     id="title770">Typography</title>
  <g
     id="Typography">
    <line
       class="cls-1"
       x1="45"
       y1="39"
       x2="45"
       y2="37"
       id="line772" />
    <line
       class="cls-1"
       x1="45"
       y1="33"
       x2="45"
       y2="30"
       id="line774" />
    <rect
       class="cls-2"
       width="6"
       height="6"
       id="rect776"
       x="0"
       y="0" />
    <rect
       class="cls-2"
       x="42"
       width="6"
       height="6"
       transform="rotate(180,45,3)"
       id="rect778"
       y="0" />
    <rect
       class="cls-2"
       y="42"
       width="6"
       height="6"
       id="rect780"
       x="0" />
    <path
       class="cls-3"
       d="M 11,2 H 9 a 1,1 0 0 0 0,2 h 2 a 1,1 0 0 0 0,-2 z"
       id="path782" />
    <path
       class="cls-3"
       d="m 18,2 h -3 a 1,1 0 0 0 0,2 h 3 a 1,1 0 0 0 0,-2 z"
       id="path784" />
    <path
       class="cls-3"
       d="m 39,2 h -2 a 1,1 0 0 0 0,2 h 2 a 1,1 0 0 0 0,-2 z"
       id="path786" />
    <path
       class="cls-3"
       d="m 33,2 h -3 a 1,1 0 0 0 0,2 h 3 a 1,1 0 0 0 0,-2 z"
       id="path788" />
    <path
       class="cls-3"
       d="M 11,44 H 9 a 1,1 0 0 0 0,2 h 2 a 1,1 0 0 0 0,-2 z"
       id="path790" />
    <path
       class="cls-3"
       d="m 18,44 h -3 a 1,1 0 0 0 0,2 h 3 a 1,1 0 0 0 0,-2 z"
       id="path792" />
    <path
       class="cls-3"
       d="m 39,44 h -2 a 1,1 0 0 0 0,2 h 2 a 1,1 0 0 0 0,-2 z"
       id="path794" />
    <path
       class="cls-3"
       d="m 33,44 h -3 a 1,1 0 0 0 0,2 h 3 a 1,1 0 0 0 0,-2 z"
       id="path796" />
    <path
       class="cls-3"
       d="M 3,12 A 1,1 0 0 0 4,11 V 9 A 1,1 0 0 0 2,9 v 2 a 1,1 0 0 0 1,1 z"
       id="path798" />
    <path
       class="cls-3"
       d="m 3,19 a 1,1 0 0 0 1,-1 v -3 a 1,1 0 0 0 -2,0 v 3 a 1,1 0 0 0 1,1 z"
       id="path800" />
    <path
       class="cls-3"
       d="m 3,36 a 1,1 0 0 0 -1,1 v 2 a 1,1 0 0 0 2,0 V 37 A 1,1 0 0 0 3,36 Z"
       id="path802" />
    <path
       class="cls-3"
       d="m 3,29 a 1,1 0 0 0 -1,1 v 3 a 1,1 0 0 0 2,0 V 30 A 1,1 0 0 0 3,29 Z"
       id="path804" />
    <path
       class="cls-3"
       d="m 45,12 a 1,1 0 0 0 1,-1 V 9 a 1,1 0 0 0 -2,0 v 2 a 1,1 0 0 0 1,1 z"
       id="path806" />
    <path
       class="cls-3"
       d="m 45,19 a 1,1 0 0 0 1,-1 v -3 a 1,1 0 0 0 -2,0 v 3 a 1,1 0 0 0 1,1 z"
       id="path808" />
    <circle
       class="cls-1"
       cx="24"
       cy="3"
       r="3"
       id="circle810" />
    <circle
       class="cls-1"
       cx="24"
       cy="45"
       r="3"
       id="circle812" />
    <circle
       class="cls-1"
       cx="3"
       cy="24"
       r="3"
       id="circle814" />
    <circle
       class="cls-1"
       cx="45"
       cy="24"
       r="3"
       id="circle816" />
    <path
       class="cls-3"
       d="m 45,36 a 1,1 0 0 0 -1,1 v 2 a 1,1 0 0 0 2,0 v -2 a 1,1 0 0 0 -1,-1 z"
       id="path818" />
    <path
       class="cls-3"
       d="m 45,29 a 1,1 0 0 0 -1,1 v 3 a 1,1 0 0 0 2,0 v -3 a 1,1 0 0 0 -1,-1 z"
       id="path820" />
    <rect
       class="cls-2"
       x="42"
       y="42"
       width="6"
       height="6"
       transform="rotate(180,45,45)"
       id="rect822" />
    <polygon
       class="cls-1"
       points="35,27.14 32.14,30 27.86,25.71 26.43,27.14 25,20 32.14,21.43 30.71,22.86 "
       id="polygon824" />
    <path
       class="cls-3"
       d="M 38,8 H 10 A 1,1 0 0 0 9,9 v 7 a 1,1 0 0 0 1.45,0.89 L 12.24,16 H 20 v 17.32 l -4.37,1.75 A 1,1 0 0 0 15,36 v 3 a 1,1 0 0 0 1,1 h 16 a 1,1 0 0 0 1,-1 V 36 A 1,1 0 0 0 32.37,35.07 L 28,33.32 v -6.05 l 3.44,3.44 a 1,1 0 0 0 1.41,0 l 2.86,-2.86 a 1,1 0 0 0 0,-1.41 l -3.58,-3.58 0.72,-0.72 A 1,1 0 0 0 32.34,20.45 L 28,19.58 V 16 h 7.76 l 1.79,0.89 A 1,1 0 0 0 39,16 V 9 A 1,1 0 0 0 38,8 Z m -8,15.56 3.58,3.58 -1.45,1.45 L 28.56,25 a 1,1 0 0 0 -0.7,-0.3 1.08,1.08 0 0 0 -0.82,0.4 l -0.77,-3.84 3.84,0.77 A 1,1 0 0 0 30,23.56 Z m 7,-9.18 C 36,13.87 37.26,14 27,14 a 1,1 0 0 0 -1,1 v 4.18 L 25.2,19 A 1,1 0 0 0 24,20.2 l 1.43,7.14 A 1,1 0 0 0 26,28 v 6 a 1,1 0 0 0 0.63,0.93 L 31,36.68 V 38 H 17 v -1.32 l 4.37,-1.75 A 1,1 0 0 0 22,34 V 15 A 1,1 0 0 0 21,14 C 10.74,14 12,13.87 11,14.38 V 10 h 26 z"
       id="path826" />
  </g>
  <metadata
     id="metadata833">
    <rdf:RDF>
      <cc:Work
         rdf:about="">
        <dc:title>Typography</dc:title>
      </cc:Work>
    </rdf:RDF>
  </metadata>
</svg>
